<svg id="Layer_2" data-name="Layer 2" xmlns="http://www.w3.org/2000/svg" viewBox="0 0 100 100"><defs><style>.cls-1{fill:#fff;}</style></defs><title>Artboard 1</title><path class="cls-1" d="M19.52,73.57c.08,0,.06-.15.08-.18C19.47,73.42,19.52,73.61,19.52,73.57Z"/><polygon class="cls-1" points="17.89 73.71 17.94 73.65 17.67 73.76 17.89 73.71"/><path class="cls-1" d="M16.41,73.35c.07.31.55.1.79.26l0,.07.17-.2A2.67,2.67,0,0,1,16.41,73.35Z"/><path class="cls-1" d="M15.82,72.53c0,.12-.19,0,.16.09l0,0Z"/><path class="cls-1" d="M16,72.58c.15,0-.07-.12,0,0Z"/><path class="cls-1" d="M15.25,72.42l.23,0c0-.07-.19-.15-.11-.17C15.16,72.2,15.18,72.27,15.25,72.42Z"/><path class="cls-1" d="M15,72.55h.12S15.08,72.49,15,72.55Z"/><path class="cls-1" d="M15.36,72.54h-.24c0,.06,0,.15.1,0C15.18,72.62,15.25,72.56,15.36,72.54Z"/><path class="cls-1" d="M15.47,72.62c.09.09.22.17,0,.21C15.86,72.91,15.86,72.7,15.47,72.62Z"/><path class="cls-1" d="M16.26,73.61l.13.13.16-.06C16.47,73.71,16.27,73.53,16.26,73.61Z"/><path class="cls-1" d="M14.12,71.82c0,.05,0,.18,0,.25h.17C14.21,72,14.09,71.9,14.12,71.82Z"/><path class="cls-1" d="M14.1,72.07h-.25C14,72.17,14.09,72.14,14.1,72.07Z"/><polygon class="cls-1" points="14.86 72.83 15.29 72.76 14.79 72.81 14.86 72.83"/><polygon class="cls-1" points="13.34 71.46 13.51 71.39 13.21 71.48 13.34 71.46"/><path class="cls-1" d="M12.82,71.22c.14-.06,0-.23.1-.25a.86.86,0,0,0-.45,0A.48.48,0,0,1,12.82,71.22Z"/><path class="cls-1" d="M12.23,71l.24,0A.51.51,0,0,0,12.23,71Z"/><path class="cls-1" d="M13.51,71.89a.27.27,0,0,0-.09-.23v.19Z"/><path class="cls-1" d="M13.43,71.86h0l-.18-.09Z"/><path class="cls-1" d="M13.53,71.9h0S13.51,71.92,13.53,71.9Z"/><path class="cls-1" d="M14.34,72.47c-.16,0-.47,0-.26.27C14.21,72.67,14.1,72.53,14.34,72.47Z"/><path class="cls-1" d="M13.54,72.14l.21.14s0-.13.08-.14Z"/><polygon class="cls-1" points="13.41 72.14 13.54 72.14 13.47 72.09 13.41 72.14"/><path class="cls-1" d="M12.51,71.32a.64.64,0,0,1-.35-.08,2,2,0,0,0,.35.24S12.65,71.38,12.51,71.32Z"/><path class="cls-1" d="M12.94,71.6h0S12.93,71.63,12.94,71.6Z"/><polygon class="cls-1" points="11.08 70.57 11.08 70.61 11.1 70.58 11.08 70.57"/><path class="cls-1" d="M12.51,71.52a.21.21,0,0,0,.23,0,1.09,1.09,0,0,1-.23-.09S12.48,71.51,12.51,71.52Z"/><path class="cls-1" d="M11.89,70.88a.81.81,0,0,0,.1.18C12,71,11.92,70.85,11.89,70.88Z"/><path class="cls-1" d="M12.91,71.54h0S12.91,71.51,12.91,71.54Z"/><path class="cls-1" d="M12.91,71.54a1,1,0,0,0-.17,0,.57.57,0,0,0,.18,0S12.91,71.56,12.91,71.54Z"/><path class="cls-1" d="M10.13,71.25c.1-.11.43-.07.54.2.28,0,.42-.49.41-.84,0,0-.08.1-.33,0,0,.12.34.46.09.47s-.2-.19-.28-.35c0,.25-.5,0-.62.26l.3.1S10.09,71.17,10.13,71.25Z"/><path class="cls-1" d="M11.46,70.87l.09,0a.86.86,0,0,1-.17-.36c-.18,0-.24,0-.28,0l.4.27Z"/><path class="cls-1" d="M11.92,71.14c-.15.11-.39,0-.36.28.26.15.25,0,.44,0-.44-.18.17,0-.08-.26l.24.08L12,71.06h0s0,.05,0,0h0l-.05,0c-.09-.11,0,0,.05,0l0,0h0l-.44-.17A1.3,1.3,0,0,0,11.92,71.14Z"/><path class="cls-1" d="M13.7,73s0,0,0,0S13.64,73,13.7,73Z"/><path class="cls-1" d="M13.55,72.8s.1-.06.2,0,0,.07-.05.13.27,0,.1-.18h0c-.16-.13-.3-.43-.25-.44A1,1,0,0,0,13.55,72.8Z"/><path class="cls-1" d="M12.67,72l-.39-.11.11.23,0-.09C12.61,72.19,12.62,72.07,12.67,72Z"/><polygon class="cls-1" points="11.09 70.48 11.24 70.35 10.9 70.45 11.09 70.48"/><polygon class="cls-1" points="10.67 70.21 10.78 70.09 10.62 70.09 10.67 70.21"/><path class="cls-1" d="M8.74,43.94v-.13A.28.28,0,0,0,8.74,43.94Z"/><path class="cls-1" d="M8.44,44.79l.07.05C8.48,44.78,8.45,44.76,8.44,44.79Z"/><path class="cls-1" d="M5,59.92c.15-.16.38-.33.2-.31l-.17,0A.34.34,0,0,1,5,59.92Z"/><path class="cls-1" d="M6.88,51.58H6.8l.06.19Z"/><path class="cls-1" d="M6.38,51.05l.23-.13A.8.8,0,0,0,6.38,51.05Z"/><path class="cls-1" d="M10.61,39.36l-.08-.22C10.41,39.34,10.54,39.3,10.61,39.36Z"/><path class="cls-1" d="M7.11,66.59A1,1,0,0,0,7,66.25C7,66.44,7,66.63,7.11,66.59Z"/><path class="cls-1" d="M10.37,44.87c0-.08,0-.12-.07-.13S10.32,44.87,10.37,44.87Z"/><path class="cls-1" d="M6.79,65.89a.27.27,0,0,1,0,.09,1,1,0,0,1,.2.27C7,66.11,7,66,6.79,65.89Z"/><path class="cls-1" d="M24,27.86h0S24,27.84,24,27.86Z"/><path class="cls-1" d="M29.37,28l-.2.06A.45.45,0,0,0,29.37,28Z"/><path class="cls-1" d="M9.18,68.87c.09.06,0,0,0,0Z"/><path class="cls-1" d="M9.1,69.73a.11.11,0,0,0-.09,0Z"/><path class="cls-1" d="M5.33,65.44h0S5.32,65.46,5.33,65.44Z"/><path class="cls-1" d="M9.25,69a.83.83,0,0,0-.07-.13A.57.57,0,0,0,9.25,69Z"/><path class="cls-1" d="M9.29,69l.05.07S9.38,69,9.29,69Z"/><path class="cls-1" d="M9.07,68.77a.63.63,0,0,1,.11.13v0Z"/><path class="cls-1" d="M16.22,33.27h0C16.29,33.14,16.26,33.18,16.22,33.27Z"/><polygon class="cls-1" points="3.57 56.83 3.58 56.85 3.58 56.83 3.57 56.83"/><path class="cls-1" d="M3.54,56.38c.17.23.12.33,0,.45l.52,0Z"/><path class="cls-1" d="M9.49,41.91l-.26.21c-.09-.43.09-.64-.22-.47.48.26-.4,1.1.09,1.34l-.18.14c0-.05,0-.07,0-.12-.38.26.25.4,0,.83-.1.14-.21.23-.23.1v.4c0,.1-.12,0-.08-.06l-.14.56h0a2.07,2.07,0,0,1,.14.42c-.12.11,0-.09-.11-.08s0,.23,0,.35c-.17.08-.24-.21-.15-.42-.61.13.06.3-.42.83l0-.31c-.35.1-.31.36-.58.65.12-.06.65-.54.69-.17a.42.42,0,0,0-.07.41c-.18,0-.19.14-.23.37l-.24-.07c0,.26.15.27.23.43-.08.27-.29.28-.47.31-.13.43.38-.23.31.29a1.58,1.58,0,0,0,0,1.08c-.13.24-.15-.07-.24,0l.17.26c0,.06-.07,0-.1,0,.06.18.24.11.29.3s0,.14-.08.2-.28,0-.3.27c-.12,0-.09-.14-.18-.19a2.3,2.3,0,0,0-.24,1l-.36.17c.31-.09.29.32.27.66l.3,0L7,52c-.07,0-.12-.07-.16-.19a.31.31,0,0,0,0,.1c-.17.08-.25-.07-.3-.25l.23,0a.72.72,0,0,0-.26-.44.37.37,0,0,1,0,.16c0-.05,0-.09-.06-.09s0,.07,0,.17l-.3-.08.08.08-.5.42a4.62,4.62,0,0,1-.07,1.72c-.1-.25-.28-.2-.49-.32.3-.05.17-.53.4-.82-.12.15-.2.06-.21,0l-.13.68c-.17-.11-.19,0-.35.17.42.07,0,.55,0,.84-.13,0-.22-.16,0-.43-.43.19.22.61-.15.82,0-.07.07-.1,0-.16,0,.22-.22.59-.29.45l0-.07c-.28.45-.53,1.52-.23,1.67a2,2,0,0,1-.44-.22,12.81,12.81,0,0,0,.9,1.16c-.27-.14-1,0-1.09-.44a.77.77,0,0,0-.1.54c.06-.08.46-.13.46,0-.38.25-.24.18-.55.53.08-.12.51.09.48.29-.07,0-.45-.05-.49-.13l.39.56c-.07-.14-.38-.07-.52,0,.1-.05-.07.44,0,.58L3.34,59c-.08.57.63.58.61,1.12-.1-.06-.58-.16-.63.14.21.13,1.13.51,1.37.93l-.12.1.19.33a6,6,0,0,1-1.5-1.07c-.08.22-.14.07-.09.39-.11.13-.21-.16-.23-.25v.77c.27-.06.34.55.56.48l-.38-.78c.27-.05.82.38.83.89-.07.15-.49,0-.57,0,.09.06.29.46.24.52l-.2-.19c0,.31.47.39.3.79,0,.13-.24.46-.08.43a2.43,2.43,0,0,1,1.4-.52s-.12.65-.2.83-.64-.09-.78.13a.46.46,0,0,1,.24.09c0,.14-.23,0-.1.28.27,0,.18.53.26,0,.17.22,0,.28.18.57.13-.16.62,0,.83.22-.07,0-.12.1-.15.15.23.48.25.79.49,1.23-.05.08,0,.33-.14.3.08,0,.2,0,.29.17,0,.38-.22-.27-.33.07.14-.07.41.22.62.35.16-.2-.25-.45-.46-.58A1.19,1.19,0,0,1,7,67.24c.29.28-.08.27,0,.3.38.67.86.13,1.06.76,0,.33-.31.29-.39.44-.28-.2-.23-.48-.39-.64l.11.27a.53.53,0,0,1-.35-.3c0,.27.8,1,1.12,1.56.13,0,.31.09.31,0l-.16-.11c0-.24.43.07.31-.15a1.15,1.15,0,0,1,.78.43L9.3,70c0-.06-.07-.26-.19-.27.17,0,.17.61.51.45l-.08-.27c.27,0,.67,0,.86.27,0-.28-.07,0-.07-.38-.07.39-.59-.47-.59,0,0-.38-.19-.36-.21-.75,0,.06,0,.18-.19,0l-.09,0v0h0a.28.28,0,0,1,0,.18c-.22,0-.51-.23-.67-.25s.11,0,.11-.14l-.25,0c.11-.14,0-.5.26-.31l-.2-.24a.69.69,0,0,0-.33-.49c-.07-.13-.4-.15-.2-.14a2.47,2.47,0,0,1-.39-.32l0,0c-.24-.41-.84-.64-.83-1.29a1.15,1.15,0,0,1-.32-.51l.11-.12c-.14-.15-.15-.61-.33-.62.3-.37-.27-1-.34-1.32l-.19.06a5.92,5.92,0,0,0-.35-.73l-.17.06c-.19-.23-.07-.7-.14-1.11.07,0,.06.12,0,.21.34-.56-.44-1-.18-1.52a.28.28,0,0,1,0-.28,0,0,0,0,1,0,0v-.05L5,59.92a.46.46,0,0,0-.09.14,1.42,1.42,0,0,0-.08-.35l.2-.06v0c.07-.12-.09-.1-.24,0a1.08,1.08,0,0,0-.11-.18c.3-.09-.1-.35.25-.47-.15-.1,0-.67-.37-.79,0,0,.07,0,.06,0a.57.57,0,0,0,.05-.44l.25,0-.25-.38c.19-.17.29-.23.43,0-.17-.52,0-.4-.19-.86l.14.06c0-.14-.09-.43.06-.47.36-.22.6-1.52,1.25-2.12-.48-.08.36-.25.07-.45.12,0,.24,0,.25.11.13-.41.46-.45.38-.85.12,0,.08.16.16.16s0-.16.07-.16.05.1.05.18c.22-.36,0-.59-.27-.8.25-.1.3-.19.23-.45.13,0,.3,0,.16.2.1-.12.7-.63.52-.8.07,0,.15-.15.16-.2.22-.23.33-.31.63-.64l-.13.07a.37.37,0,0,1,0-.15c0-.17.09-.3.1-.58h0c.3-.62-.07-.29.28-.88h-.2c-.39-.14.33-.51.26-.89l-.13.1c-.1-.23.67-.42.76-.6s0,.08,0,.14c.35-.44-.24-.12-.2-.51.15,0,.32.17.41-.07.14-.09-.23-.84.11-1.11-.12.05-.24.09-.26-.1s.61-.59.38-.93a.1.1,0,0,1,.09,0c0-.23.08-.7,0-.88.69.06.21-1.34.77-1.1.07-.2.14-.41.22-.61l.05,0a.72.72,0,0,0,.1-.74c.08-.07.1,0,.12,0a1.16,1.16,0,0,0,.35-1.15l.2,0c0-.18.73-.59.84-1.21a.19.19,0,0,1,0,.1,1.86,1.86,0,0,1,.65-.85c.27-.23.46-.45.24-.76l.13-.46c-.4.42-.2-.26-.44-.14.11-.22.53-.34.39-.1l0,0c.23.31.53-.49.72-.32a8.15,8.15,0,0,1,1.18-1.17c.42-.35.78-.75,1.2-1.06l-.29-.14.29-.22c.12,0,.25.08.05.24.21,0,.24-.38.2-.44.47-.24.07.39.2.29l.14-.15h-.05c.05-.2,0-.31.22-.5s.2.07.26,0,0,0,.1-.07l.36-.28-.28-.06c.08-.22.34-.28,0-.34.46.07,1.51-.87,1.73-.9a1.59,1.59,0,0,1,.69-.64c-.1,0-.28-.18,0-.32.18.5.59-.11,1,.13-.32-.12.73-.45.25-.61.25-.08.11.17.34.19.45-.45,1.23-.5,1.87-.87,0-.07-.18-.13-.07-.28l.51.19c.12-.09,0-.42.31-.29-.05,0-.14-.11-.06-.16a8.56,8.56,0,0,0,2.12-.72,4.47,4.47,0,0,1,2.25-.29c-.23-.08-.1-.13,0-.17-.1,0,0-.17-.08-.26l.67.11c0-.29.64-.18.65-.44l-.18.09c.2-.36-.5-.56-.54-.94-.22.4-.9-.3-1.27.3-.13-.05.06-.15,0-.22-.08.19-.22.26-.51.26l0-.05c-.77.24-1.15.13-2,.37l.12.15a.53.53,0,0,1-.34,0c-.12.35.51-.17.42.2-.36-.28-1.27.47-1.59.12-.28.11.16.18-.12.28l-.12-.08v.16a.35.35,0,0,1-.39-.14s.12-.08.16-.1c-.29,0-.65.3-.75.28l.3,0a11.79,11.79,0,0,0-2.25,1.33l.1,0c-.45.42-.48.14-1,.51v0a.78.78,0,0,1-.34.38c.09-.18-.36,0-.24-.22-.45.52-.2.3-.37.82l-.17-.07a.57.57,0,0,1-.26.47c.15-.25-.3-.07-.15-.37-.76.13-.66.83-1.2.64,0,.51.62-.17.54,0,.2,0,0,.38-.23.49s-.6-.17-1,.2c0,0,0-.06.07-.1-.23.06-.22.38-.53.42.06.28-.26.2-.08.47l.34-.39c-.17.25-.12.7-.6.88a.7.7,0,0,1,.07-.33c-.16,0-.16.22-.33.25-.19-.26.42-.46.5-.84-.21,0-.3.55-.41.2.13.47-.47.31-.5.82l-.11-.15a.76.76,0,0,1-.13.3l0-.32c-.06.37-.54.3-.66.6.42-.46.26.06.54,0-.34.73-.66,0-1.18.67.06-.1.38-.24.32,0a1.24,1.24,0,0,1-.49.21c-.35.44.21.06.14.32-.31,0-.13.26-.22.5l-.15-.12c-.48.43.21.39-.25.75L13.2,36l-.13.28-.14-.18a.89.89,0,0,1-.41.64c.16,0,.26.24.09.47s-.08-.2-.3.14c0-.14-.11-.31.14-.35,0,0,0-.14-.08-.19-.23.09-.34.41-.43.52a.38.38,0,0,1,.13-.1c-.05.21-.07.43-.1.64-.11,0-.12-.06-.13-.15a1.91,1.91,0,0,1-.09.39c-.11-.13-.25-.2-.18-.46l-.15.58c-.08,0-.31.14-.32,0-.25.22-.15.81-.47,1.1,0,0,0,.08,0,.17-.21.32-.53.54-.55,1l-.37.11c-.11.35.48-.16.3.42-.11.41-.29,0-.42.14,0,.24.16.7-.2,1C9.39,42.1,9.46,42,9.49,41.91ZM8.14,46.1c0-.09-.09-.29,0-.32C8.36,45.94,8.24,46,8.14,46.1ZM6.21,51.88c0-.08.06-.15.18-.2A.38.38,0,0,1,6.21,51.88ZM8.27,68.14h0C8.2,68,8.22,68,8.27,68.14Zm.18.33a.05.05,0,0,0,.07,0s-.11-.05-.16-.13S8.34,68.42,8.45,68.47Zm9.54-35H17.9C18,33.33,18,33.4,18,33.47Z"/><path class="cls-1" d="M6.43,51.11a.21.21,0,0,1,.11,0S6.5,51.08,6.43,51.11Z"/><path class="cls-1" d="M10.62,39.4h0s0,0,0,0Z"/><path class="cls-1" d="M4,64.28a.41.41,0,0,1,0-.19C4,64.1,4,64.15,4,64.28Z"/><path class="cls-1" d="M10.05,69.52l-.21-.1a.35.35,0,0,1,.12.18S10,69.48,10.05,69.52Z"/><path class="cls-1" d="M11,71.68s.06,0,.1,0l0-.08C11,71.56,10.91,71.57,11,71.68Z"/><path class="cls-1" d="M9.82,70.15c-.09.14.06.19.21.27l0,0C10.19,70.25,10,70.2,9.82,70.15Z"/><path class="cls-1" d="M10.07,70.44a.34.34,0,0,1,.12.09C10.26,70.47,10.16,70.48,10.07,70.44Z"/><path class="cls-1" d="M8.84,68.72c0,.09.18-.11.16,0C9.21,68.6,8.45,68.52,8.84,68.72Z"/><polygon class="cls-1" points="9.59 70.66 9.67 70.46 9.49 70.53 9.59 70.66"/><path class="cls-1" d="M8.67,69.67l.16.23s.05,0,.1,0C8.81,69.77,8.7,69.62,8.67,69.67Z"/><path class="cls-1" d="M8.93,69.89a.34.34,0,0,0,.18.13A1.4,1.4,0,0,0,8.93,69.89Z"/><path class="cls-1" d="M9.26,70.48l0-.09a.86.86,0,0,1-.14-.13C9.13,70.34,9.2,70.4,9.26,70.48Z"/><path class="cls-1" d="M6.78,67.46l-.22-.22c-.07,0-.06.11,0,.18S6.75,67.53,6.78,67.46Z"/><path class="cls-1" d="M6.88,68.52c0-.09,0-.12,0-.2l-.2.15Z"/><path class="cls-1" d="M6.3,67.83c-.07,0-.42-.25-.18.06C6.19,67.88,6.42,68.1,6.3,67.83Z"/><polygon class="cls-1" points="4.51 63.61 4.54 63.68 4.92 63.55 4.51 63.61"/><path class="cls-1" d="M3,59.65c-.09.39.26.09.13.44.1.08.1-.29.19-.19C3.16,59.67,3.22,59.55,3,59.65Z"/><path class="cls-1" d="M3.27,59.9a.41.41,0,0,0,.06.11Z"/><polygon class="cls-1" points="30.2 28.01 30.44 28.04 30.27 27.94 30.2 28.01"/><path class="cls-1" d="M30.56,27.61l.1.24.09-.26C30.7,27.61,30.61,27.66,30.56,27.61Z"/><path class="cls-1" d="M7.46,46.61l.06,0c.07,0,.09-.07.13-.17Z"/><polygon class="cls-1" points="8.6 43.57 8.57 43.62 8.83 43.6 8.6 43.57"/><path class="cls-1" d="M9.38,40.94c-.06.1-.07.24-.13.34C9.32,41,9.66,41,9.38,40.94Z"/><path class="cls-1" d="M62.65,25.16c0,.06.14-.08.17-.09S62.62,25.19,62.65,25.16Z"/><polygon class="cls-1" points="61.47 24.61 61.53 24.57 61.29 24.58 61.47 24.61"/><path class="cls-1" d="M60.57,23.91c-.08.29.37.2.47.39v.08l.21-.12C61,24.12,60.67,24.08,60.57,23.91Z"/><path class="cls-1" d="M60.42,23.05c0,.11-.16,0,.1.11v0Z"/><path class="cls-1" d="M60.51,23.12c.11.07,0-.12,0,0Z"/><path class="cls-1" d="M60,22.85h.19c0-.08-.11-.17,0-.18C60,22.63,60,22.7,60,22.85Z"/><path class="cls-1" d="M59.77,22.94h.09S59.85,22.89,59.77,22.94Z"/><path class="cls-1" d="M60.06,23l-.2,0c0,.05,0,.13.09,0C59.89,23,60,23,60.06,23Z"/><path class="cls-1" d="M60.12,23.07c0,.1.11.2-.07.19C60.32,23.41,60.39,23.21,60.12,23.07Z"/><path class="cls-1" d="M60.35,24.11l0,.14.14,0C60.47,24.24,60.4,24,60.35,24.11Z"/><path class="cls-1" d="M59.2,22.22c0,.05,0,.17-.06.24h.14C59.25,22.39,59.16,22.3,59.2,22.22Z"/><path class="cls-1" d="M59.14,22.46h-.2C59.07,22.56,59.12,22.53,59.14,22.46Z"/><path class="cls-1" d="M59.58,23.2c.12,0,.24,0,.36,0-.14,0-.27,0-.41,0Z"/><polygon class="cls-1" points="58.6 21.88 58.75 21.81 58.5 21.91 58.6 21.88"/><path class="cls-1" d="M58.18,21.71c.12-.08,0-.22.09-.26a.69.69,0,0,0-.39.07C58,21.51,58.09,21.57,58.18,21.71Z"/><path class="cls-1" d="M57.69,21.57a.9.9,0,0,0,.19-.05A.36.36,0,0,0,57.69,21.57Z"/><path class="cls-1" d="M58.69,22.3a.29.29,0,0,0,0-.22v.18Z"/><path class="cls-1" d="M58.63,22.27h0l-.13-.08Z"/><path class="cls-1" d="M58.7,22.31h0S58.69,22.32,58.7,22.31Z"/><path class="cls-1" d="M59.26,22.84c-.14,0-.38,0-.27.25C59.11,23,59.05,22.89,59.26,22.84Z"/><path class="cls-1" d="M58.68,22.54l.14.12s0-.11.09-.13Z"/><polygon class="cls-1" points="58.57 22.54 58.68 22.54 58.62 22.49 58.57 22.54"/><path class="cls-1" d="M57.92,21.85a.48.48,0,0,1-.29,0,1,1,0,0,0,.28.18S58,21.89,57.92,21.85Z"/><path class="cls-1" d="M58.26,22.05h0S58.25,22.07,58.26,22.05Z"/><polygon class="cls-1" points="56.73 21.44 56.73 21.47 56.75 21.45 56.73 21.44"/><path class="cls-1" d="M57.91,22c.06.07.12,0,.18,0L57.91,22S57.88,22,57.91,22Z"/><path class="cls-1" d="M57.4,21.54a1.1,1.1,0,0,0,.09.14C57.47,21.61,57.43,21.5,57.4,21.54Z"/><path class="cls-1" d="M58.24,22h0S58.24,22,58.24,22Z"/><path class="cls-1" d="M58.24,22a.44.44,0,0,0-.15.05h.15Z"/><path class="cls-1" d="M56.07,22.36a.22.22,0,0,1,.41,0c.2,0,.29-.57.25-.9,0,.07,0,.12-.25.14,0,.1.29.35.1.42s-.16-.13-.24-.24c0,.21-.38.17-.43.46l.23,0S56,22.31,56.07,22.36Z"/><path class="cls-1" d="M57.05,21.62l.08,0a.72.72,0,0,1-.17-.31c-.14,0-.19.07-.21.11l.33.17Z"/><path class="cls-1" d="M57.44,21.77c-.12.13-.32.13-.29.35.21.07.2-.08.35-.09-.34-.1.13-.05-.07-.24a1.06,1.06,0,0,1,.2,0,.93.93,0,0,1-.14-.14h0s0,0,0,0h0l0,.05c-.08-.07,0-.05,0-.05v0h0l-.36-.05A.94.94,0,0,0,57.44,21.77Z"/><path class="cls-1" d="M58.65,23.32a.06.06,0,0,1,0,0S58.61,23.3,58.65,23.32Z"/><path class="cls-1" d="M58.57,23.16s.09-.05.15,0,0,.07-.06.12.21,0,.11-.17h0a.7.7,0,0,1-.12-.41A1.35,1.35,0,0,0,58.57,23.16Z"/><path class="cls-1" d="M58,22.48l-.31,0,.08.19,0-.08C57.94,22.64,58,22.53,58,22.48Z"/><path class="cls-1" d="M56.73,21.34l.1-.15-.25.17Z"/><polygon class="cls-1" points="56.35 21.23 56.42 21.09 56.29 21.15 56.35 21.23"/><path class="cls-1" d="M36.11,24.08l0,.07A.23.23,0,0,0,36.11,24.08Z"/><path class="cls-1" d="M36.63,23.82l0-.07C36.6,23.8,36.6,23.83,36.63,23.82Z"/><path class="cls-1" d="M47.07,19.64c-.12-.15-.26-.38-.24-.2l0,.17A.21.21,0,0,1,47.07,19.64Z"/><path class="cls-1" d="M40.87,21.31l0,0,0-.18Z"/><path class="cls-1" d="M41,22,40.78,22A.38.38,0,0,0,41,22Z"/><path class="cls-1" d="M33.81,26l.06.18C34,26.13,33.86,26.11,33.81,26Z"/><path class="cls-1" d="M52.52,20.26a.84.84,0,0,0-.25-.16C52.38,20.23,52.45,20.39,52.52,20.26Z"/><path class="cls-1" d="M35.43,22.36a.13.13,0,0,0,0,.13C35.45,22.43,35.46,22.39,35.43,22.36Z"/><path class="cls-1" d="M52,20a.12.12,0,0,0,0,.05.58.58,0,0,1,.26,0C52.18,20,52.08,19.94,52,20Z"/><path class="cls-1" d="M32.24,36.16a0,0,0,0,0,0,0S32.25,36.17,32.24,36.16Z"/><path class="cls-1" d="M32.1,40.06a.73.73,0,0,1-.09-.13A.33.33,0,0,0,32.1,40.06Z"/><path class="cls-1" d="M54.89,20.67c.08,0,0,0,0,0Z"/><path class="cls-1" d="M55.07,21.45a.1.1,0,0,0,0,.07A.1.1,0,0,1,55.07,21.45Z"/><path class="cls-1" d="M51,21h0S51,21,51,21Z"/><path class="cls-1" d="M55,20.78a.6.6,0,0,0-.08-.08A.57.57,0,0,0,55,20.78Z"/><path class="cls-1" d="M55,20.7l.07,0S55.07,20.69,55,20.7Z"/><path class="cls-1" d="M54.77,20.65l.13.05s0,0,0,0Z"/><path class="cls-1" d="M31,30.23h0C31.08,30.33,31.07,30.29,31,30.23Z"/><polygon class="cls-1" points="45.03 21.45 45.04 21.45 45.02 21.44 45.03 21.45"/><path class="cls-1" d="M44.76,21.6c.11-.22.17-.2.27-.16l-.12-.5Z"/><path class="cls-1" d="M35,24.84l.24,0c0,.33-.2.36.06.43-.31-.47.54-.42.27-.89l.16,0s0,0,0,.06c.33.09-.06-.43.24-.53.12,0,.23,0,.19.11l.15-.23c.07,0,.1.07,0,.09l.31-.21v0a2.61,2.61,0,0,1,.08-.35c.12,0,0,.07,0,.12l.12-.21c.14.08,0,.29-.09.33.42.41.09-.21.6-.09l-.15.14c.25.23.34.07.61.17-.08-.08-.59-.28-.45-.49.08,0,.16,0,.23-.15.08.18.17.09.3,0l.09.24c.11-.13.05-.25.09-.39s.28.12.38.26c.27-.07-.3-.22,0-.39.26,0,.38-.14.6-.37.18,0,0,.16.1.21l.08-.25s0,.06,0,.09-.07-.24.1-.37c0-.29.5.25.65-.11.08.06,0,.16.06.25a1.79,1.79,0,0,0,.43-.56l.27.1c-.22-.14-.06-.42.09-.65l-.2-.17.27-.22c.05,0,0,.13,0,.25l0-.08c.13.06.11.22.06.38l-.15-.12a1.06,1.06,0,0,0,0,.5s.05-.07.08-.1,0,.09,0,.11,0,0,.06-.12l.14.26v-.11a3.25,3.25,0,0,1,.43.08c.22-.34.38-.81.82-1-.08.23,0,.34.08.59-.18-.23-.33.18-.57.18.12,0,.12.12.1.17l.36-.32c0,.2.12.13.24.19-.15-.38.26-.33.41-.48,0,.13,0,.27-.19.28.26.26.23-.54.46-.3,0,0-.07,0-.08.06.08-.13.4-.06.34.06h0c.34,0,1-.07,1.07-.41a2.82,2.82,0,0,1,0,.48l.57-1.17c0,.29.18,1-.09,1.16a.32.32,0,0,0,.35,0c-.06,0-.15-.42-.07-.44.21.32.15.17.41.44-.09-.06,0-.52.13-.51s0,.45,0,.5l.33-.45c-.08.08,0,.38.06.51,0-.09.28,0,.37,0l-.14-.1c.37.07.38-.63.75-.6-.05.09-.12.57.06.63.09-.23.42-1.09.77-1.25l.06.13.27-.13a11.28,11.28,0,0,1-.91,1.31c.13.11,0,.16.24.16s-.12.18-.18.18l.47.11c0-.27.38-.25.38-.48l-.54.25c0-.27.34-.74.69-.68.08.11-.1.48-.1.57.05-.09.34-.16.36-.09l-.15.13c.18.12.34-.33.54-.05.08,0,.21.37.23.21a3.66,3.66,0,0,1,.07-1.49,2.79,2.79,0,0,1,.48.49c.1.25-.26.55-.17.77a.31.31,0,0,1,.13-.18c.07.07-.06.22.12.2.06-.26.36.08.11-.21.19-.06.18.08.39.1,0-.19.26-.57.46-.62a.33.33,0,0,0,0,.2c.36.08.54.22.87.29,0,.07.17.18.08.28s.12-.12.22-.1c.16.27-.23,0-.13.3,0-.16.3-.17.47-.24,0-.24-.33-.11-.5,0a1,1,0,0,1,.78-.71c.3,0,.08.24.14.2.52.16.58-.47,1-.13.12.26-.1.42-.09.58-.25,0-.32-.22-.48-.25l.17.15a.29.29,0,0,1-.32,0c.1.22.87.26,1.22.54.1-.05.24-.09.2-.19h-.13c-.07-.19.31-.16.17-.28.2-.08.45-.2.66,0l0,.25c0-.07-.11-.19-.2-.15.14-.07.27.44.48.17l-.12-.21c.21-.06.51-.24.7-.09,0-.26-.06,0-.12-.31,0,.38-.55-.2-.45.22-.06-.36-.23-.22-.36-.56,0,.08,0,.17-.14.07s-.05,0-.06.06h0s0,0,0,0a.27.27,0,0,1,0,.14c-.14.15-.43.07-.55.14s.07-.08,0-.18l-.19.1c0-.17-.21-.36.08-.4l-.24-.06a.42.42,0,0,0-.43-.18c-.1-.07-.32.12-.19,0l-.4,0v0c-.36-.1-.8.14-1.16-.26a.85.85,0,0,1-.47,0l0-.16c-.16,0-.45-.22-.54-.07-.12-.44-.77-.21-1-.3l0,.2a1.59,1.59,0,0,0-.63.07V20c-.22.13-.52-.18-.85-.17,0-.07.11-.05.17,0-.37-.43-.84.25-1.18-.06a.15.15,0,0,1-.21,0h0a.63.63,0,0,0-.12-.1.46.46,0,0,0,.1.1.67.67,0,0,0-.27.07l0-.2h0c-.1-.07-.08.09,0,.23a.81.81,0,0,0-.14.12c-.07-.31-.26.1-.37-.23-.07.15-.51.12-.55.46,0,0,0-.06,0-.07-.12,0-.23-.07-.33,0l0-.25-.23.34c-.16-.15-.22-.23-.08-.42-.35.3-.29.12-.57.42v-.16c-.11,0-.27.23-.34.1s-.43-.13-.78-.1a4.57,4.57,0,0,1-1.1,0c.2.43-.33-.15-.28.21-.06-.1-.16-.14-.08-.26-.29.17-.51-.07-.66.27-.06-.1,0-.17,0-.23s-.08.12-.12.06,0-.1.06-.16c-.32.08-.27.44-.22.75-.19-.11-.27-.06-.33.17-.08-.09-.2-.17,0-.26-.11,0-.71,0-.65.29,0-.06-.16,0-.18.05a1.75,1.75,0,0,0-.51.14h.08c0,.33-.17.14-.35.24v0c-.51-.06-.15.17-.67.08l.09.17c.1.4-.47-.11-.66.14l.13.07c-.08.18-.58-.37-.74-.36s0-.07.06-.11c-.46-.07,0,.25-.19.42-.11-.11-.08-.35-.27-.29s-.34.61-.69.51c.1.07.2.13.11.27s-.67-.1-.68.28a.16.16,0,0,1-.08-.05c-.1.14-.38.37-.36.57-.48-.48-.64.8-1,.29l-.37.33,0-.06a.48.48,0,0,0-.26.53c-.09,0-.08-.07-.1-.1-.44.2-.44.28-.51.75l-.17-.11c0,.08-.17.14-.37.24a1,1,0,0,0-.45.54.19.19,0,0,1,0-.09c-.16.5-1.19.72-.69,1.25,0,.13,0,.26,0,.39.25-.35.25.21.43.11,0,.16-.39.27-.33.08l.05,0c-.3-.24-.36.41-.59.29a11.68,11.68,0,0,0-.93,2.36l.3,0-.06.27c-.08.06-.25.07-.2-.13-.18.08.08.35.14.37-.15.37-.32-.2-.34-.08v.17l0,0c.1.15.23.18.19.41s-.18.07-.2.13,0,0,0,.09,0,.24,0,.35l.23-.13c.12.16,0,.33.25.18-.2.11-.24.43-.24.75s.08.61,0,.69a.93.93,0,0,1,.22.66c0-.07.3-.14.29.08-.54,0-.16.44-.5.69.22-.21.18.63.49.3,0,.19-.2,0-.28.22.3.39.11,1,.35,1.51.07,0,.14-.13.28-.06l-.24.39c.07.1.41,0,.25.23.05,0,.12-.11.16-.05.05,1.15,1.08,1.89,1,3.15,0-.2.1-.11.16,0,0-.08.16-.08.23-.14v.53c.27-.06.27.42.51.32l-.11-.1c.35,0,.42-.57.77-.74-.4,0,.17-.71-.41-.77,0-.1.14,0,.2-.08-.19,0-.27-.07-.29-.27H33a3.66,3.66,0,0,1-.37-1.31l-.15.11a.35.35,0,0,1,0-.24c-.32,0,.13.33-.21.33.28-.3-.34-.83,0-1.1-.07-.18-.19.13-.26,0l.1-.09H32a.3.3,0,0,1,.19-.28s.06.07.08.1c.08-.2-.2-.42-.17-.49v.2c-.28-.47-.29-1.12-.64-1.56l-.08.06c-.24-.36,0-.33-.12-.74l0,0a.37.37,0,0,1-.16-.3c.11.09.17-.23.3-.1-.23-.39-.16-.19-.53-.43l.15-.08c-.14-.08-.22-.09-.27-.3.14.17.22-.15.4,0,.29-.45-.36-.65.12-.85-.41-.21-.23.38-.32.27-.13.1-.3-.17-.26-.32s.51-.23.54-.58c0,0,0,0,0,.08.12-.12-.12-.27.06-.41-.23-.12,0-.21-.27-.27,0,.11,0,.22,0,.33-.07-.19-.42-.42-.18-.7a.69.69,0,0,1,.16.21c.11-.07,0-.18.08-.26.31.09,0,.4.22.63.13-.08-.18-.39.14-.25-.4-.21.12-.32-.17-.61l.18.05s-.1-.13-.07-.2l.21.17c-.16-.22.27-.29.21-.49-.1.36-.25,0-.42.14-.11-.52.52-.13.62-.62,0,.07-.21.2-.25.07a.6.6,0,0,1,.3-.19c.09-.32-.2,0-.25-.2.25,0,0-.19,0-.37l.17.08c.3-.29-.31-.26,0-.52l.17.26,0-.2.18.14c0-.25,0-.29.16-.42-.14,0-.29-.2-.19-.36s.12.16.23-.06c.07.11.16.24,0,.23,0,.05.07.11.11.15s.2-.24.25-.31a.16.16,0,0,1-.09.05l0-.45c.09,0,.11.07.13.14s0-.16,0-.25c.11.11.24.21.21.36l.07-.36c.07,0,.25,0,.27.06.19-.07,0-.55.33-.63a.13.13,0,0,1,0-.12c.2-.14.46-.14.53-.48l.3.12c.13-.19-.39-.14-.17-.45s.23.12.35.13c0-.18,0-.57.35-.52C35.12,24.78,35,24.78,35,24.84Zm2.36-1.47c0,.06-.08.22-.17.13S37.25,23.35,37.36,23.37Zm4-1.81c0,.07-.09.05-.18,0A.17.17,0,0,1,41.37,21.56ZM54,20.6h0C53.86,20.5,53.89,20.54,54,20.6Zm.24.15a.07.07,0,0,0,0-.08s-.1,0-.16,0S54.13,20.77,54.22,20.75ZM29.66,30.93l.05-.05C29.76,31,29.71,31,29.66,30.93Z"/><path class="cls-1" d="M41,21.94a.41.41,0,0,1-.05-.09A.07.07,0,0,0,41,21.94Z"/><polygon class="cls-1" points="33.8 26 33.79 26.01 33.81 26.04 33.8 26"/><path class="cls-1" d="M49.86,21.61a.23.23,0,0,1-.09-.11C49.76,21.55,49.78,21.59,49.86,21.61Z"/><path class="cls-1" d="M55.73,20.85h-.19a.21.21,0,0,1,.14.11S55.67,20.84,55.73,20.85Z"/><path class="cls-1" d="M56.75,22.5s0,0,.08,0l0-.08C56.76,22.38,56.66,22.42,56.75,22.5Z"/><path class="cls-1" d="M55.68,21.51c0,.16.08.14.21.15h0C56,21.45,55.83,21.48,55.68,21.51Z"/><path class="cls-1" d="M55.92,21.67a.2.2,0,0,1,.11,0C56.07,21.62,56,21.67,55.92,21.67Z"/><path class="cls-1" d="M54.59,20.73c0,.06.09-.19.11-.12C54.81,20.43,54.25,20.76,54.59,20.73Z"/><polygon class="cls-1" points="55.6 22.05 55.63 21.85 55.51 21.98 55.6 22.05"/><path class="cls-1" d="M54.75,21.61l.17.11s0,0,.06,0S54.76,21.55,54.75,21.61Z"/><path class="cls-1" d="M55,21.67a.19.19,0,0,0,.16,0Z"/><polygon class="cls-1" points="55.34 22.02 55.3 21.97 55.17 21.91 55.34 22.02"/><path class="cls-1" d="M52.75,21.08l-.22,0c0,.06,0,.11.1.1S52.77,21.15,52.75,21.08Z"/><path class="cls-1" d="M53.25,21.75c0-.06,0-.1-.06-.17l-.06.24Z"/><path class="cls-1" d="M52.65,21.68c0,.06-.33.14-.08.17C52.61,21.79,52.82,21.77,52.65,21.68Z"/><polygon class="cls-1" points="49.62 20.9 49.67 20.9 49.7 20.5 49.62 20.9"/><path class="cls-1" d="M46.84,21.72c.24.1.06-.25.28-.13.06-.09-.18-.1-.12-.18C46.85,21.51,46.78,21.45,46.84,21.72Z"/><path class="cls-1" d="M47,21.41l.08-.06A.28.28,0,0,0,47,21.41Z"/><polygon class="cls-1" points="32.22 40.7 32.24 40.88 32.3 40.72 32.22 40.7"/><path class="cls-1" d="M32.65,40.81l-.2.18.26,0S32.62,40.87,32.65,40.81Z"/><path class="cls-1" d="M38,23.69v-.06c0-.06-.09-.05-.15,0Z"/><polygon class="cls-1" points="36.08 24.39 36.11 24.38 35.94 24.21 36.08 24.39"/><path class="cls-1" d="M34.91,25.55c.06,0,.09-.12.15-.15C35,25.52,34.72,25.33,34.91,25.55Z"/><path class="cls-1" d="M86.05,43.22c0,.09.16,0,.19.05S86,43.23,86.05,43.22Z"/><polygon class="cls-1" points="85.51 42.15 85.58 42.15 85.38 42.03 85.51 42.15"/><path class="cls-1" d="M85.28,41.15c-.24.16.13.35.07.55l0,0,.24,0C85.45,41.56,85.25,41.31,85.28,41.15Z"/><path class="cls-1" d="M85.73,40.45c-.1.07-.12-.09,0,.14l0,0S85.74,40.51,85.73,40.45Z"/><path class="cls-1" d="M85.75,40.56c0,.1.08-.1,0,0Z"/><path class="cls-1" d="M85.56,40.08l.13.11c.06,0,0-.18.09-.14C85.69,39.92,85.63,40,85.56,40.08Z"/><path class="cls-1" d="M85.31,40l.07.06S85.4,40,85.31,40Z"/><path class="cls-1" d="M85.51,40.2l-.13-.13s-.13.06.05.06C85.35,40.14,85.43,40.15,85.51,40.2Z"/><path class="cls-1" d="M85.49,40.3c0,.09,0,.2-.18.09C85.42,40.65,85.6,40.55,85.49,40.3Z"/><path class="cls-1" d="M85,41.17l0,.12.12.06C85,41.32,85.07,41.14,85,41.17Z"/><path class="cls-1" d="M85.41,39.17c-.06,0-.14.1-.21.14l.1.08C85.32,39.32,85.33,39.21,85.41,39.17Z"/><path class="cls-1" d="M85.2,39.31l-.15-.12C85.09,39.33,85.14,39.34,85.2,39.31Z"/><path class="cls-1" d="M85,40.08l.29.19A3.55,3.55,0,0,0,85,40Z"/><polygon class="cls-1" points="85.2 38.59 85.37 38.63 85.11 38.55 85.2 38.59"/><path class="cls-1" d="M85,38.22c.13,0,.15-.16.24-.12a.55.55,0,0,0-.31-.19A.27.27,0,0,1,85,38.22Z"/><path class="cls-1" d="M84.79,37.83a1.38,1.38,0,0,0,.17.08A.34.34,0,0,0,84.79,37.83Z"/><path class="cls-1" d="M85,38.93a.28.28,0,0,0,.12-.18l-.14.12Z"/><path class="cls-1" d="M85,38.87h0l0-.13Z"/><path class="cls-1" d="M85,38.94h0S85,38.94,85,38.94Z"/><path class="cls-1" d="M85,39.64c-.12,0-.28-.2-.36,0C84.79,39.68,84.84,39.56,85,39.64Z"/><path class="cls-1" d="M84.82,39.09l0,.17s.09-.07.15,0Z"/><polygon class="cls-1" points="84.74 39.03 84.82 39.09 84.82 39.02 84.74 39.03"/><path class="cls-1" d="M84.75,38.16a.41.41,0,0,1-.18-.19,1,1,0,0,0,.07.29S84.8,38.25,84.75,38.16Z"/><path class="cls-1" d="M84.84,38.51h0S84.82,38.52,84.84,38.51Z"/><polygon class="cls-1" points="84.21 37.16 84.19 37.19 84.22 37.18 84.21 37.16"/><path class="cls-1" d="M84.61,38.29c0,.07,0,.1.12.12a.6.6,0,0,1-.09-.15S84.6,38.27,84.61,38.29Z"/><path class="cls-1" d="M84.62,37.63a.83.83,0,0,0,0,.15C84.62,37.73,84.67,37.62,84.62,37.63Z"/><path class="cls-1" d="M84.86,38.46h0S84.88,38.44,84.86,38.46Z"/><path class="cls-1" d="M84.86,38.46a.25.25,0,0,0-.13-.05.43.43,0,0,0,.1.09Z"/><path class="cls-1" d="M83.11,37.4c.14-.06.36,0,.27.26.18.09.61-.22.81-.47-.07,0-.13.05-.28-.06,0,.09,0,.41-.22.35s0-.18,0-.31c-.14.16-.38-.12-.62,0l.17.12S83.12,37.33,83.11,37.4Z"/><path class="cls-1" d="M84.31,37.48l0,.05a.54.54,0,0,1,.09-.3c-.12-.07-.18-.07-.23,0l.12.31Z"/><path class="cls-1" d="M84.48,37.81c-.17,0-.3-.1-.44.07.09.18.19.07.3.15-.16-.28.13,0,.13-.21a.44.44,0,0,1,.1.15,1.21,1.21,0,0,1,0-.19h0l0,0h-.07c0-.1,0,0,.06,0h0l-.22-.26A1,1,0,0,0,84.48,37.81Z"/><path class="cls-1" d="M84.26,39.62l0,0S84.25,39.58,84.26,39.62Z"/><path class="cls-1" d="M84.32,39.46s.1,0,.1.09-.07,0-.13.05.17.11.2-.05l0,0c0-.14.16-.37.19-.35A1.27,1.27,0,0,0,84.32,39.46Z"/><path class="cls-1" d="M84.37,38.66l-.18-.22-.09.18.08,0C84.21,38.73,84.3,38.66,84.37,38.66Z"/><polygon class="cls-1" points="84.27 37.1 84.45 37.05 84.15 37.02 84.27 37.1"/><polygon class="cls-1" points="84.1 36.79 84.25 36.73 84.12 36.69 84.1 36.79"/><path class="cls-1" d="M68.56,26.5l-.08,0Z"/><path class="cls-1" d="M69.06,26.67l0-.07S69,26.66,69.06,26.67Z"/><path class="cls-1" d="M78.84,30c0-.19.06-.45,0-.3l-.09.15A.18.18,0,0,1,78.84,30Z"/><path class="cls-1" d="M73.49,27.54v.06l.14-.11Z"/><path class="cls-1" d="M73.09,28.13,73,28A.43.43,0,0,0,73.09,28.13Z"/><path class="cls-1" d="M65.77,26.11l-.09.17C65.8,26.28,65.75,26.19,65.77,26.11Z"/><path class="cls-1" d="M82.19,33.72a.55.55,0,0,0-.06-.26C82.12,33.61,82.05,33.78,82.19,33.72Z"/><path class="cls-1" d="M69.28,24.8a.11.11,0,0,0-.09.08C69.25,24.86,69.28,24.84,69.28,24.8Z"/><path class="cls-1" d="M82,33.22v.06a.49.49,0,0,1,.17.18C82.14,33.34,82.12,33.22,82,33.22Z"/><path class="cls-1" d="M58.12,30.56l0,0S58.12,30.58,58.12,30.56Z"/><path class="cls-1" d="M55.61,33.14a.71.71,0,0,1,0-.14S55.6,33.06,55.61,33.14Z"/><path class="cls-1" d="M83.49,35.5c.05.06,0,0,0,0Z"/><path class="cls-1" d="M83.08,36.15a.1.1,0,0,0-.09,0S83.05,36.14,83.08,36.15Z"/><path class="cls-1" d="M80.65,33.32h0S80.63,33.34,80.65,33.32Z"/><path class="cls-1" d="M83.48,35.63a.4.4,0,0,0,0-.11A.2.2,0,0,0,83.48,35.63Z"/><path class="cls-1" d="M83.54,35.58l0,.06S83.6,35.62,83.54,35.58Z"/><path class="cls-1" d="M83.43,35.41a.34.34,0,0,1,0,.11,0,0,0,0,1,0,0Z"/><path class="cls-1" d="M61.19,26.29h0C61.14,26.38,61.16,26.36,61.19,26.29Z"/><polygon class="cls-1" points="76.26 30.17 76.27 30.16 76.27 30.15 76.26 30.17"/><path class="cls-1" d="M76,30.13c.21-.11.25-.06.29,0l.23-.44Z"/><path class="cls-1" d="M67.34,26.24l.13.18c-.25.21-.37.1-.27.34.14-.52.64,0,.79-.45l.08.15s0,0-.07,0c.14.31.26-.33.51-.17.09.07.13.17,0,.21l.25-.06a0,0,0,1,1,0,.08l.33.06v0a1.68,1.68,0,0,1,.29-.2c.06.1-.06.05-.06.12l.22-.07c0,.16-.16.24-.28.18,0,.57.19-.08.45.33h-.19c0,.33.17.26.29.5,0-.1-.21-.57,0-.64,0,.06.1.1.25,0-.07.19,0,.16.18.21l-.1.23c.16,0,.19-.13.31-.21.14.09.1.29.07.46.22.14,0-.37.26-.29s.34.14.64.11c.1.14-.09.13-.07.22l.21-.13s0,.07,0,.09c.14,0,.12-.23.31-.22.16-.23.17.53.51.32,0,.09-.1.14-.12.23a2.15,2.15,0,0,0,.65-.17L73,28c0-.25.23-.36.47-.43a1.51,1.51,0,0,0,0-.26l.32,0c0,.05-.06.12-.15.19l.08,0c0,.13-.07.24-.21.33V27.6a.94.94,0,0,0-.33.36.2.2,0,0,1,.11,0s-.06.05-.06.08,0,0,.11,0l-.07.28.06-.09.24.33a2.16,2.16,0,0,1,1.21-.27c-.2.13-.2.28-.33.49,0-.28-.34-.06-.5-.21a.12.12,0,0,1,0,.19l.45,0c-.11.17,0,.17,0,.29.14-.38.4-.1.58-.1-.06.12-.16.21-.3.08,0,.37.47-.24.51.09,0,0-.05-.06-.11,0,.16,0,.33.19.21.25l0,0c.23.22.77.54,1,.29a2.65,2.65,0,0,1-.33.35l1.14-.6c-.21.21-.48.87-.79.85a.28.28,0,0,0,.27.18c0-.07.16-.41.23-.39a1.67,1.67,0,0,0,0,.59c0-.1.33-.4.41-.31s-.28.35-.34.36l.51-.15c-.11,0-.25.28-.28.42,0-.09.19.17.28.19l0-.16c.21.26.66-.27.91,0-.09,0-.46.36-.37.51.21-.12,1-.6,1.35-.5l0,.14.28.06a12.06,12.06,0,0,1-1.49.45c0,.16-.07.13.07.25,0,.14-.2.07-.25,0s.17.24.25.36c.17-.21.42,0,.56-.13l-.52-.14c.17-.21.72-.35.91-.09,0,.13-.38.29-.44.36.09,0,.33.08.3.15h-.19c0,.19.45,0,.41.27,0,.07-.11.39,0,.29a3.62,3.62,0,0,1,1.05-1.05,2,2,0,0,1,0,.64c-.1.25-.54.24-.63.46a.3.3,0,0,1,.21,0c0,.1-.19.12-.07.23.23-.16.2.27.23-.1.16.08.06.17.19.31a.8.8,0,0,1,.73-.17.36.36,0,0,0-.12.16c.19.28.21.48.4.73,0,.07,0,.24-.15.25.06,0,.16,0,.22.06-.09.29-.15-.15-.3.13.13-.08.32.08.47.13.18-.17-.14-.29-.29-.34a.94.94,0,0,1,1,0c.22.17-.12.22-.05.23.23.44.74,0,.76.5-.1.26-.36.24-.47.35-.18-.14-.07-.35-.15-.46v.2c-.1,0-.22-.1-.21-.2-.08.21.42.71.45,1.13.09,0,.21.08.26,0l-.08-.09c.09-.18.32.08.31-.09.19.08.45.14.48.39l-.2.16c.06,0,.06-.2,0-.22.14,0-.12.46.22.4l.07-.22c.19.08.5.15.53.37.17-.19-.05,0,.14-.29-.25.27-.23-.49-.46-.13.21-.28,0-.29.14-.6-.07,0-.1.14-.16,0h-.08v0h0a.21.21,0,0,1-.07.14c-.2,0-.33-.23-.46-.26s.1,0,.14-.1l-.19,0c.15-.1.12-.39.33-.23l-.1-.2a.37.37,0,0,0-.17-.39c0-.1-.32-.11-.15-.11l-.29-.22,0,0c-.18-.3-.64-.4-.6-.92a.57.57,0,0,1-.31-.29l.1-.13c-.13-.08-.16-.44-.33-.39.22-.39-.39-.62-.5-.87l-.15.13a1.49,1.49,0,0,0-.5-.32l-.12.13c-.24,0-.25-.43-.47-.64.06,0,.1,0,.11.1,0-.54-.72-.34-.77-.75-.11,0-.14-.06-.15-.13h0s0,0,0,0l0-.14a.49.49,0,0,0,0,.13.77.77,0,0,0-.24-.11l.1-.17h0c0-.11-.12,0-.17.16h-.17c.14-.28-.26-.07-.12-.39-.15.08-.43-.21-.68,0,0,0,0-.07,0,0s-.1-.2-.23-.18l.11-.22-.37.12c0-.19,0-.29.21-.37-.45,0-.29-.06-.68,0l.1-.12c-.09,0-.34,0-.31-.1,0-.37-.86-.69-1.21-1.19-.15.45-.13-.31-.33,0,0-.11,0-.2.12-.24-.31-.05-.3-.37-.63-.2,0-.11.14-.11.14-.18s-.13,0-.12,0,.08-.06.15-.08c-.28-.13-.47.16-.63.43-.06-.21-.14-.23-.33-.09,0-.12,0-.26.15-.2-.08-.06-.48-.45-.6-.22,0-.07-.13-.07-.17-.06a2.11,2.11,0,0,0-.43-.2l0,.06c-.21.25-.2,0-.38,0l0,0c-.29-.37-.21,0-.49-.37l0,.19c-.2.36-.24-.37-.52-.32l0,.13c-.17.08-.13-.67-.23-.77s.06,0,.1,0c-.23-.37-.12.21-.39.18,0-.14.18-.31,0-.38s-.64.25-.78-.07c0,.12,0,.23-.11.27s-.36-.53-.61-.26a.1.1,0,0,1,0-.09c-.16,0-.48,0-.61.14,0-.71-.92.1-.78-.48l-.44-.05,0-.06a.43.43,0,0,0-.51.16c-.06-.05,0-.1,0-.13-.38-.19-.43-.17-.8.07l0-.2c-.09.11-.58-.33-1-.11a.18.18,0,0,1,0-.08c-.45.22-1.15-.59-1.27.19l-.28.22c.39,0,0,.32.15.42-.14.06-.41-.16-.23-.22l0,0c0-.39-.49-.06-.53-.31l-.58.07-.57.13a5.16,5.16,0,0,0-1.12.32l.2.22-.23.11c-.09,0-.19-.15,0-.24-.16-.09-.2.29-.17.34-.38.09,0-.37-.15-.32l-.12.1,0,0c0,.16,0,.28-.18.38s-.17-.11-.22-.09,0,0-.08,0a1.73,1.73,0,0,0-.3.16l.25.11c-.06.16-.24.18,0,.29-.41-.18-1,.68-1.17.69a.83.83,0,0,1-.3.59c.08,0,.3.12.15.26-.37-.39-.42.15-.84.06.28,0-.27.55.16.54-.13.13-.17-.1-.35-.05-.05.46-.6.73-.74,1.24.06,0,.19,0,.24.15l-.43.1c0,.11.33.24,0,.32.07,0,.16,0,.16.07-.68.83-.37,2-1.16,2.84.15-.12.15,0,.14.08,0-.06.17,0,.27,0l-.33.38c.25.11,0,.46.21.53l0-.14c.28.2.69-.17,1.06-.1-.3-.23.56-.39.14-.76.09,0,.11.07.21.06-.15-.11-.16-.2-.06-.36l0,0c0-.47.28-.63.51-1.1l-.19,0c0-.1.12-.1.18-.14-.23-.21-.11.3-.37.09.4,0,.27-.76.71-.7.06-.16-.22,0-.16-.2h.12l-.12-.1a.27.27,0,0,1,.32-.05s0,.08,0,.1c.19-.07.13-.38.19-.41l-.13.12a3.28,3.28,0,0,1,.27-.69,1.48,1.48,0,0,0,.25-.7l-.09,0c0-.38.21-.19.39-.52v0a.29.29,0,0,1,.08-.29c0,.14.27,0,.28.16.09-.39,0-.22-.09-.64l.15.05c0-.15-.08-.2,0-.36,0,.2.25.08.24.32.51,0,.22-.63.65-.39-.12-.44-.39.05-.37-.08-.16-.05-.09-.34,0-.4s.48.27.74.12c0,0,0,0,0,0,.15,0,.11-.23.32-.16-.06-.25.16-.08,0-.37l-.21.21c.09-.15,0-.56.37-.54a.77.77,0,0,1,0,.25c.11,0,.1-.13.21-.09.12.3-.26.24-.29.54.13.08.16-.36.25,0-.09-.45.27-.12.33-.47l.06.18s0-.15.11-.16v.26c.08-.25.37.07.47-.09-.31.11-.15-.19-.33-.27.31-.39.39.38.77.14,0,.05-.24,0-.18-.14a.36.36,0,0,1,.29.12c.29-.08-.09-.18,0-.32.16.21.13-.11.26-.2l0,.19c.37.06,0-.41.37-.32l-.1.29.16-.1v.23c.15-.19.21-.16.39-.13,0-.13,0-.35.15-.38s-.05.18.18.15c0,.12-.09.26-.2.11a1.06,1.06,0,0,0,0,.19c.11.1.28,0,.36,0a.16.16,0,0,1-.09-.05l.32-.26a.14.14,0,0,1,0,.19c.06,0,.11-.11.21-.12,0,.16,0,.32-.16.39L65,26c0,.07.15.19.11.25.16.1.43-.29.65-.17a.15.15,0,0,1,.09-.08c.22.07.38.3.66.13l.1.31c.21,0-.14-.39.22-.43s0,.25.11.34c.14-.12.41-.36.58-.1C67.46,26.28,67.41,26.23,67.34,26.24Zm2.49.59c-.06,0-.19.11-.19,0S69.77,26.74,69.83,26.83Zm3.83,1.23c-.06,0-.1,0-.12-.12S73.63,28,73.66,28.06ZM83,34.87h0C82.94,34.72,82.93,34.77,83,34.87Zm0,.26a.08.08,0,0,0,.08,0s-.08,0-.11-.1A.08.08,0,0,0,83,35.13ZM59.85,25.58l.08,0C59.86,25.7,59.86,25.65,59.85,25.58Z"/><path class="cls-1" d="M73.14,28.07a.45.45,0,0,1,0-.11A.08.08,0,0,0,73.14,28.07Z"/><polygon class="cls-1" points="65.79 26.07 65.78 26.07 65.77 26.11 65.79 26.07"/><path class="cls-1" d="M79.46,33.08a.21.21,0,0,1,0-.14S79.43,33,79.46,33.08Z"/><path class="cls-1" d="M84,36.13,83.83,36a.16.16,0,0,1,0,.16S83.93,36.09,84,36.13Z"/><path class="cls-1" d="M83.49,37.9s0,0,.06.05l.08,0C83.58,37.82,83.48,37.79,83.49,37.9Z"/><path class="cls-1" d="M83.46,36.56c-.14.09,0,.15,0,.24v0C83.7,36.71,83.58,36.63,83.46,36.56Z"/><path class="cls-1" d="M83.5,36.82a.2.2,0,0,1,0,.09C83.64,36.88,83.55,36.86,83.5,36.82Z"/><path class="cls-1" d="M83.25,35.35c0,.07.2-.08.16,0C83.62,35.28,83,35.15,83.25,35.35Z"/><polygon class="cls-1" points="83.02 36.89 83.18 36.76 83.01 36.78 83.02 36.89"/><path class="cls-1" d="M82.73,36.07l0,.17a.14.14,0,0,1,.09,0C82.81,36.16,82.78,36,82.73,36.07Z"/><path class="cls-1" d="M82.86,36.25s0,.1.1.11A.5.5,0,0,0,82.86,36.25Z"/><polygon class="cls-1" points="82.86 36.7 82.88 36.64 82.83 36.53 82.86 36.7"/><path class="cls-1" d="M81.76,34.46l-.15-.13c-.07,0-.07.09,0,.13S81.73,34.52,81.76,34.46Z"/><path class="cls-1" d="M81.63,35.23a.37.37,0,0,1,.08-.15l-.21.13Z"/><path class="cls-1" d="M81.28,34.82c-.07,0-.32-.11-.17.07C81.17,34.87,81.33,35,81.28,34.82Z"/><polygon class="cls-1" points="79.78 32.41 79.81 32.44 80.11 32.16 79.78 32.41"/><path class="cls-1" d="M77.34,31.41c.1.21.2-.16.27.06.11,0,0-.18,0-.21C77.48,31.25,77.47,31.17,77.34,31.41Z"/><path class="cls-1" d="M77.65,31.26h.09A.14.14,0,0,0,77.65,31.26Z"/><polygon class="cls-1" points="55.32 33.67 55.22 33.82 55.36 33.73 55.32 33.67"/><path class="cls-1" d="M55.59,34l-.26,0,.22.12S55.53,34,55.59,34Z"/><path class="cls-1" d="M70,27.43l0-.05c0-.07,0-.09-.08-.12Z"/><polygon class="cls-1" points="68.32 26.69 68.35 26.7 68.36 26.46 68.32 26.69"/><path class="cls-1" d="M66.79,26.65c.06,0,.14,0,.19,0C66.85,26.67,66.82,26.36,66.79,26.65Z"/><path class="cls-1" d="M53.4,73.3c-.12,0-.08.15-.1.18C53.51,73.44,53.4,73.25,53.4,73.3Z"/><polygon class="cls-1" points="55.44 72.95 55.4 73.02 55.7 72.86 55.44 72.95"/><path class="cls-1" d="M57.33,73c-.17-.29-.68,0-1-.07l-.05-.07-.16.23A5,5,0,0,1,57.33,73Z"/><path class="cls-1" d="M58.34,73.63c-.07-.11.22-.09-.24,0l0,0Z"/><path class="cls-1" d="M58.14,73.62c-.2,0,.13.09,0,0Z"/><path class="cls-1" d="M59.07,73.57l-.27.1c.05.06.29.08.2.13C59.27,73.75,59.22,73.68,59.07,73.57Z"/><path class="cls-1" d="M59.32,73.37l-.14,0S59.24,73.45,59.32,73.37Z"/><path class="cls-1" d="M58.89,73.49l.29-.08s0-.14-.13,0C59.07,73.35,59,73.43,58.89,73.49Z"/><path class="cls-1" d="M58.73,73.45c-.15-.07-.34-.11-.07-.21C58.15,73.27,58.22,73.48,58.73,73.45Z"/><path class="cls-1" d="M57.44,72.7l-.2-.09-.17.09C57.16,72.66,57.45,72.79,57.44,72.7Z"/><path class="cls-1" d="M60.7,73.75c0-.06-.08-.16-.1-.24l-.2.07C60.5,73.62,60.69,73.66,60.7,73.75Z"/><path class="cls-1" d="M60.6,73.51l.29-.1C60.63,73.39,60.59,73.44,60.6,73.51Z"/><polygon class="cls-1" points="59.37 73.05 58.89 73.26 59.47 73.05 59.37 73.05"/><polygon class="cls-1" points="61.81 73.78 61.65 73.92 61.95 73.71 61.81 73.78"/><path class="cls-1" d="M62.55,73.77c-.12.11.17.2,0,.27a1.53,1.53,0,0,0,.53-.2A.85.85,0,0,1,62.55,73.77Z"/><path class="cls-1" d="M63.38,73.71a1.58,1.58,0,0,0-.26.13A.9.9,0,0,0,63.38,73.71Z"/><path class="cls-1" d="M61.39,73.45a.32.32,0,0,0,.22.18l-.11-.18Z"/><path class="cls-1" d="M61.5,73.45h0l.25,0Z"/><path class="cls-1" d="M61.36,73.45h0S61.37,73.43,61.36,73.45Z"/><path class="cls-1" d="M60.13,73.22c.18-.09.53-.19.19-.34C60.2,73,60.39,73.08,60.13,73.22Z"/><path class="cls-1" d="M61.22,73.23l-.31,0s.06.11,0,.16Z"/><polygon class="cls-1" points="61.37 73.18 61.22 73.23 61.34 73.25 61.37 73.18"/><path class="cls-1" d="M62.85,73.54a1.06,1.06,0,0,1,.45-.08,2.48,2.48,0,0,0-.54-.06S62.66,73.54,62.85,73.54Z"/><path class="cls-1" d="M62.19,73.48h0S62.19,73.45,62.19,73.48Z"/><polygon class="cls-1" points="64.92 73.49 64.89 73.46 64.89 73.49 64.92 73.49"/><path class="cls-1" d="M62.73,73.36a.31.31,0,0,0-.28.06,1.56,1.56,0,0,1,.31,0S62.78,73.36,62.73,73.36Z"/><path class="cls-1" d="M63.83,73.64l-.23-.1C63.67,73.6,63.81,73.68,63.83,73.64Z"/><path class="cls-1" d="M62.27,73.52h0S62.29,73.55,62.27,73.52Z"/><path class="cls-1" d="M62.27,73.52a.64.64,0,0,0,.18-.1l-.23,0Z"/><path class="cls-1" d="M65.43,72.4c0,.16-.38.3-.67.12-.3.12-.12.64.13.94,0-.07,0-.13.32-.22-.1-.09-.67-.22-.41-.36.41-.07.33.07.53.15-.17-.2.52-.27.43-.57l-.35.1S65.53,72.44,65.43,72.4Z"/><path class="cls-1" d="M64.31,73.43l-.12,0a1.16,1.16,0,0,1,.43.22c.21-.07.25-.13.27-.18l-.62,0Z"/><path class="cls-1" d="M63.62,73.44c.1-.17.41-.24.23-.43-.37,0-.27.14-.49.21.6,0-.17.09.26.2a2,2,0,0,1-.32,0l.3.08h0s0,0,0,0h0l0-.06c.17,0,0,0,0,.06v0h0l.6-.08A2,2,0,0,0,63.62,73.44Z"/><path class="cls-1" d="M60.65,72.52s0,0,0,0S60.72,72.52,60.65,72.52Z"/><path class="cls-1" d="M60.89,72.63a.26.26,0,0,1-.22.07c-.12-.06,0-.09,0-.14s-.3.12,0,.2l0,0c.24.07.55.29.5.31A1,1,0,0,0,60.89,72.63Z"/><path class="cls-1" d="M62.27,73l.5-.08-.25-.15v.09C62.25,72.81,62.31,72.92,62.27,73Z"/><polygon class="cls-1" points="64.97 73.58 64.91 73.76 65.2 73.5 64.97 73.58"/><polygon class="cls-1" points="65.62 73.57 65.59 73.72 65.77 73.63 65.62 73.57"/><path class="cls-1" d="M94.74,61.07v-.15A.62.62,0,0,0,94.74,61.07Z"/><path class="cls-1" d="M94.48,62l.07,0C94.52,62,94.5,62,94.48,62Z"/><path class="cls-1" d="M81.42,74.74c.23.14.5.36.46.19l-.08-.18A.68.68,0,0,1,81.42,74.74Z"/><path class="cls-1" d="M91.17,69.73h-.08V70Z"/><path class="cls-1" d="M90.76,69.12,91,69A.94.94,0,0,0,90.76,69.12Z"/><path class="cls-1" d="M94.58,55.79l-.21-.11C94.43,55.91,94.49,55.79,94.58,55.79Z"/><path class="cls-1" d="M72.23,73.63a1.59,1.59,0,0,0,.46.11C72.47,73.64,72.29,73.48,72.23,73.63Z"/><path class="cls-1" d="M96.44,61.9c0-.1,0-.15-.07-.16S96.39,61.91,96.44,61.9Z"/><path class="cls-1" d="M73.22,73.75l-.1,0a2,2,0,0,1-.43,0A.5.5,0,0,0,73.22,73.75Z"/><path class="cls-1" d="M81.09,44.65h0S81.06,44.66,81.09,44.65Z"/><path class="cls-1" d="M75.37,46.78l.16-.22A.67.67,0,0,0,75.37,46.78Z"/><path class="cls-1" d="M68.22,73.69c-.14,0,0,0,0,0Z"/><path class="cls-1" d="M67.56,73s.06,0,.06-.08A.1.1,0,0,1,67.56,73Z"/><path class="cls-1" d="M74.58,72.91h0S74.56,72.88,74.58,72.91Z"/><path class="cls-1" d="M68,73.61l.18,0Z"/><path class="cls-1" d="M68,73.69l-.12,0S67.92,73.72,68,73.69Z"/><path class="cls-1" d="M68.41,73.69a.78.78,0,0,1-.22,0l0,0Z"/><path class="cls-1" d="M90.53,47.68v0C90.37,47.61,90.42,47.65,90.53,47.68Z"/><polygon class="cls-1" points="84.72 72.49 84.7 72.5 84.72 72.5 84.72 72.49"/><path class="cls-1" d="M85.13,72.24c-.13.26-.25.27-.41.26l.28.44Z"/><path class="cls-1" d="M95,58.75l-.17.31c-.24-.39-.15-.65-.37-.36.37,0,.24.61.27.91v.09c0,.12.08.24.23.27l-.15.19c0-.06,0-.07,0-.13-.32.35.34.37.16.89-.09.18-.19.29-.23.15l0,.44c0,.11-.12.06-.08,0,0,.21-.08.42-.13.63h0a2,2,0,0,1,.15.47c-.13.13,0-.1-.11-.08v.39c-.17.09-.21-.23-.12-.46-.62.15,0,.33-.49.9L94,63c-.37.1-.34.39-.66.66.13,0,.71-.53.71-.12A.54.54,0,0,0,94,64c-.18-.08-.21.13-.3.37l-.23-.12c0,.28.08.31.12.51-.14.27-.35.24-.54.23-.25.41.44-.16.22.37a2.37,2.37,0,0,0-.42,1.12c-.23.2-.11-.12-.23-.07l0,.31s-.08,0-.1,0c0,.22.21.15.08.47.19.25-.73.34-.72.86-.12,0-.09-.14-.19-.17a4,4,0,0,0-.28,1L91,69c.35-.08.26.34.15.73a1.78,1.78,0,0,0,.33,0,5.09,5.09,0,0,1-.3.5c-.07,0-.09-.09-.1-.23l0,.12c-.21.06-.24-.12-.23-.31l.25,0a.74.74,0,0,0-.18-.51.37.37,0,0,1-.07.18c0-.06,0-.1,0-.11s0,.08,0,.18l-.29-.12.06.1-.62.33A3.26,3.26,0,0,1,89,71.47c.06-.28-.15-.31-.27-.52.32.09.45-.41.78-.63-.18.11-.22,0-.2-.08a6.76,6.76,0,0,1-.44.61c-.1-.18-.21,0-.41,0,.34.27-.31.5-.52.75-.08-.11-.08-.27.24-.41-.48-.08-.21.67-.68.62.08,0,.13,0,.13-.12-.13.2-.64.31-.57.16l.07,0c-.53.23-1.63.63-1.62,1a2.43,2.43,0,0,1,0-.49c-.21.45-.46.91-.73,1.38,0-.31-.47-.9,0-1.18a1,1,0,0,0-.57.14c.1,0,.32.38.19.43a2.91,2.91,0,0,0-.76-.33c.15,0,.07.52-.16.55,0-.08-.08-.45,0-.51a4.93,4.93,0,0,1-.5.52c.14-.09,0-.38-.16-.5.07.09-.47,0-.62.1l.25.08c-.63,0-.59.68-1.24.68.08-.1.17-.58-.15-.63-.13.24-.65,1.13-1.26,1.26l-.11-.13-.46.12A16.2,16.2,0,0,1,80.66,73c-.24-.1-.07-.14-.42-.15-.12-.13.2-.17.3-.18-.27,0-.54-.08-.81-.12,0,.27-.64.24-.63.46l.91-.23c0,.27-.55.74-1.16.66-.14-.13.16-.47.15-.56a.84.84,0,0,1-.62,0l.27-.11c-.32-.14-.58.29-.94,0-.13,0-.35-.39-.39-.24A2.06,2.06,0,0,1,77.21,74a4.16,4.16,0,0,1-.82-.6c-.18-.27.44-.5.28-.74,0,.07-.16.14-.21.16s.1-.21-.22-.24c-.1.26-.62-.13-.19.2-.31,0-.31-.1-.66-.18.07.2-.45.51-.78.51,0-.06,0-.17,0-.22a6.16,6.16,0,0,1-.77-.27,2,2,0,0,0-.79-.12c-.06-.07-.34-.16-.22-.27a.67.67,0,0,1-.35.14c-.35-.24.41,0,.14-.32,0,.16-.48.21-.74.3.07.25.6.06.87,0,0,.34-.47.68-1.1.83s-.21-.23-.3-.18c-.93-.08-.8.57-1.58.32-.3-.22,0-.43-.07-.59.41-.07.62.15.9.15l-.34-.11a.75.75,0,0,1,.55-.05c-.26-.2-1.58-.07-2.3-.26-.12.07-.35.14-.24.23l.22,0c.21.18-.43.23-.14.32a1.76,1.76,0,0,1-1.09.19l-.07-.24c0,.07.28.15.4.07-.18.11-.65-.34-.86,0l.3.17a2,2,0,0,1-1.07.29c.17.24.09,0,.35.26-.23-.36,1,0,.61-.34.27.33.48.15.83.43,0-.08-.12-.15.2-.11L68,73.6h0s0,0,0,0a.37.37,0,0,1-.16-.13c.16-.18.67-.17.84-.26s-.08.09,0,.18l.26-.14c0,.18.5.31,0,.4l.41,0a1.14,1.14,0,0,0,.76.08c.19,0,.48-.19.31,0l.64-.1v0c.63,0,1.29-.27,2,.07l.31-.06a.22.22,0,0,1,.08,0h0l.12,0,0,.17c.28,0,.78.35.93.22.19.49,1.31.38,1.78.53l0-.19a3.83,3.83,0,0,0,1.09,0V74.3c.37-.11.9.25,1.48.27,0,.06-.19,0-.29,0,.66.43,1.46-.19,2.07.08a.46.46,0,0,1,.38,0h0l.22.09a.85.85,0,0,0-.18-.1,1.84,1.84,0,0,0,.47-.08l.09.19h0c.18.06.14-.1,0-.24a.8.8,0,0,0,.22-.13c.17.29.46-.15.68.16.11-.16.89-.22.92-.59,0,0,.07.06,0,.08a.88.88,0,0,0,.56-.12l.13.22c.12-.13.24-.25.36-.4.28.08.41.13.2.38.54-.44.48-.24.91-.65l0,.16c.18-.07.4-.37.55-.29.53.18,2-.75,3.06-1.13-.44-.27.54-.12.38-.44.12,0,.28,0,.19.19.4-.41.8-.39.92-.87.12,0,0,.2.09.21s.08-.19.17-.18,0,.13,0,.23a.62.62,0,0,0,0-1c.32-.09.41-.21.4-.51.15,0,.34,0,.12.24.16-.12,1-.8.76-1,.09,0,.19-.21.2-.27a4,4,0,0,0,.57-.73l-.11.07c-.15-.31.16-.33.32-.65l0,0c.62-.56.1-.34.72-.91L94,66.6c-.32-.26.55-.5.62-1l-.18.1c0-.28.8-.4,1-.62,0,0,0,.1,0,.19.5-.53-.19-.18,0-.67.16,0,.27.24.42-.07.18-.12-.06-1.07.32-1.42-.13.06-.26.12-.27-.12s.65-.82.41-1.21a.14.14,0,0,1,.1,0c0-.28,0-.89-.1-1.08.3-.06.34-.38.32-.75,0,0,0,0,0,0,0-.48-.16-.9.18-.89,0-.28,0-.57,0-.85l.06,0a1,1,0,0,0-.31-.9c0-.13.1,0,.13,0a1.65,1.65,0,0,0-.41-1.47l.18-.1c-.15-.15.07-1.2-.41-1.87a.12.12,0,0,1,.11,0c-.46-.74-.26-2.18-1.07-2.15l-.41-.43c.28.68-.32,0-.3.37-.14-.23-.17-.73,0-.45v.06c.39-.07-.36-.84-.13-1-.37-.63-.81-1.19-1.18-1.8a14,14,0,0,0-1.35-1.59l-.09.31-.33-.33c0-.13,0-.28.27,0,0-.24-.51-.28-.56-.24-.41-.53.42-.08.27-.22L91,46.19l0,.07c-.25-.06-.34,0-.64-.26s0-.22-.06-.29,0,0-.12-.1l-.47-.38,0,.33c-.27-.07-.43-.34-.37,0,0-.61-1.77-1.33-1.92-1.56a3.84,3.84,0,0,1-1.15-.37c.09.08,0,.35-.3.17.32-.43-.56-.52-.79-.93.22.32-1.14-.21-.77.25-.31-.12,0-.2-.2-.38A5.64,5.64,0,0,1,83,42.66a4.46,4.46,0,0,0-1.5,0c0,.07.18.16,0,.29a4.31,4.31,0,0,0-.6-.22c-.19.09-.07.44-.49.3.07,0,.17.11,0,.17a4.49,4.49,0,0,0-1.41.46,9.42,9.42,0,0,0-1.22.84,28.68,28.68,0,0,1-2.33,1.85c.27-.12.17,0,0,.19.11-.08.13.11.22.15a7.9,7.9,0,0,0-.69.49c.12.26-.47.73-.3.94l.1-.24c.08.43.8,0,1.1.23-.08-.5.92-.44.92-1.17.14,0,0,.16.13.17,0-.21.06-.37.33-.55v.05a5.25,5.25,0,0,1,1.86-1.25l-.16-.12a.86.86,0,0,1,.37-.07c.06-.37-.51.29-.5-.09.24.1.54-.11.86-.27s.66-.26.82-.09c.29-.12-.17-.19.13-.28l.12.09,0-.17a.34.34,0,0,1,.38.18,1.4,1.4,0,0,0-.17.09c.28.07.69-.25.79-.18a.77.77,0,0,0-.3,0,4.82,4.82,0,0,1,1.34-.17c.47,0,.94,0,1.37,0l0-.11c.67,0,.49.18,1.19.35h0a1,1,0,0,1,.55.1c-.21,0,.24.32,0,.33.73.13.39,0,1-.08l0,.19a.69.69,0,0,1,.59.07c-.32,0,.1.32-.28.29.49.66,1.17.31,1.19.93.53-.11-.42-.59-.21-.54-.06-.21.42-.08.6.11s0,.69.54,1.06c0,0-.07,0-.12-.06.13.22.46.17.56.5.28-.08.27.26.52.05l-.48-.33c.29.15.77.09,1.06.6a1.18,1.18,0,0,1-.37-.08c0,.18.27.16.33.34-.26.2-.57-.42-1-.48,0,.22.64.28.28.41.47-.14.43.43.94.52l-.16.11a.74.74,0,0,1,.31.17h-.33c.38.11.3.61.6.77-.46-.5.07-.26,0-.57.77.47,0,.68.59,1.36-.1-.08-.19-.45,0-.34a1.26,1.26,0,0,1,.15.54c.4.47.1-.19.35,0-.06.3.26.2.47.4l-.17.1c.27.67.45-.05.66.58l-.38-.09.24.25-.23,0c.33.23.32.37.43.71.09-.14.34-.12.49.17,0,.24-.22,0,0,.36-.14,0-.34-.08-.26-.33a1.92,1.92,0,0,1-.22,0c0,.26.23.53.28.68a.58.58,0,0,1,0-.18l.48.5c0,.12-.11.07-.19,0,.06.12.18.17.27.35-.17,0-.32.06-.49-.16.13.17.26.34.37.51-.05.07-.09.36-.17.3,0,.33.53.7.5,1.17a.45.45,0,0,1,.12.14,2.65,2.65,0,0,0,.17,1.28l-.25.3c.1.38.32-.41.48.23.11.46-.23.18-.31.35.16.21.45.62.2,1C95,59,95,58.88,95,58.75Zm-.91,4.74c0-.11-.06-.33.07-.35C94.34,63.31,94.21,63.36,94.1,63.49ZM90.37,70c0-.1.11-.15.25-.18A.49.49,0,0,1,90.37,70ZM69.72,73.56h0C70,73.63,69.87,73.6,69.72,73.56Zm-.46-.09c-.05,0-.05,0,0,.08s.14,0,.26,0S69.4,73.43,69.26,73.47Zm21-27.73,0,.09C90.11,45.75,90.19,45.75,90.27,45.74Z"/><path class="cls-1" d="M90.81,69.19a.18.18,0,0,1,.1,0S90.88,69.16,90.81,69.19Z"/><path class="cls-1" d="M94.62,55.81h0Z"/><path class="cls-1" d="M76.52,72.55a.4.4,0,0,1,.15.13S76.65,72.59,76.52,72.55Z"/><path class="cls-1" d="M66.8,73.75l.29,0a.51.51,0,0,1-.26-.07S66.89,73.75,66.8,73.75Z"/><path class="cls-1" d="M64.25,72.51s-.1,0-.14,0v.09C64.31,72.62,64.44,72.55,64.25,72.51Z"/><path class="cls-1" d="M66.54,73.11c0-.17-.21-.12-.42-.09h0C66.09,73.25,66.31,73.18,66.54,73.11Z"/><path class="cls-1" d="M66.07,73h-.19C65.85,73.12,66,73.05,66.07,73Z"/><path class="cls-1" d="M68.67,73.57c-.1,0-.07.2-.12.14C68.43,73.91,69.21,73.47,68.67,73.57Z"/><polygon class="cls-1" points="66.38 72.57 66.45 72.77 66.57 72.61 66.38 72.57"/><path class="cls-1" d="M68,72.75l-.33-.07s0,.06-.09.07C67.8,72.76,68,72.81,68,72.75Z"/><path class="cls-1" d="M67.59,72.75a.52.52,0,0,0-.26,0A1.38,1.38,0,0,0,67.59,72.75Z"/><polygon class="cls-1" points="66.83 72.52 66.93 72.56 67.16 72.58 66.83 72.52"/><path class="cls-1" d="M71.58,72.85l.37,0c0-.07-.06-.11-.2-.09S71.53,72.78,71.58,72.85Z"/><path class="cls-1" d="M70.5,72.28c.09,0,.1.09.15.16l0-.25Z"/><path class="cls-1" d="M71.55,72.24c0-.06.53-.18.07-.18C71.59,72.13,71.22,72.18,71.55,72.24Z"/><polygon class="cls-1" points="76.94 73.32 76.85 73.31 76.8 73.72 76.94 73.32"/><path class="cls-1" d="M81.66,72.65c-.41-.08-.08.26-.46.14-.09.1.31.1.21.18C81.66,72.87,81.79,72.92,81.66,72.65Z"/><path class="cls-1" d="M81.41,73l-.12.07A.37.37,0,0,0,81.41,73Z"/><polygon class="cls-1" points="74.57 47.54 74.34 47.74 74.56 47.65 74.57 47.54"/><path class="cls-1" d="M74.53,48.18l-.26-.06.11.28C74.41,48.32,74.46,48.19,74.53,48.18Z"/><path class="cls-1" d="M93.35,64l.05,0c.07,0,.1-.06.16-.17Z"/><polygon class="cls-1" points="94.56 60.69 94.55 60.75 94.8 60.69 94.56 60.69"/><path class="cls-1" d="M94.49,57.89c0,.11.05.25.05.36C94.49,58,94.78,57.84,94.49,57.89Z"/><path class="cls-1" d="M17.86,60.31c.06-.08-.11-.13-.13-.16C17.69,60.32,17.9,60.33,17.86,60.31Z"/><polygon class="cls-1" points="17.48 61.91 17.43 61.85 17.47 62.13 17.48 61.91"/><path class="cls-1" d="M16.89,63.28c.32,0,.16-.51.36-.72l.07,0-.16-.2C17.07,62.66,17.05,63.1,16.89,63.28Z"/><path class="cls-1" d="M16,63.84c.12,0,0,.2.09-.18l0,0A.5.5,0,0,1,16,63.84Z"/><path class="cls-1" d="M16.08,63.69c.05-.16-.11.07,0,0Z"/><path class="cls-1" d="M15.92,64.43l0-.23c-.07,0-.14.2-.17.12C15.71,64.55,15.78,64.52,15.92,64.43Z"/><path class="cls-1" d="M16.07,64.69v-.12S16,64.61,16.07,64.69Z"/><path class="cls-1" d="M16,64.32l0,.25c.05,0,.14,0,0-.11C16.13,64.5,16.07,64.43,16,64.32Z"/><path class="cls-1" d="M16.12,64.2c.1-.09.18-.23.21,0C16.41,63.81,16.2,63.8,16.12,64.2Z"/><path class="cls-1" d="M17.14,63.46l.13-.11,0-.16C17.25,63.27,17.05,63.44,17.14,63.46Z"/><path class="cls-1" d="M15.45,65.72c.06,0,.18,0,.25,0l0-.17C15.61,65.58,15.54,65.73,15.45,65.72Z"/><path class="cls-1" d="M15.7,65.68l.06.25C15.81,65.73,15.77,65.68,15.7,65.68Z"/><polygon class="cls-1" points="16.36 64.81 16.26 64.38 16.34 64.88 16.36 64.81"/><path class="cls-1" d="M15.28,66.64l-.12-.16a2.68,2.68,0,0,0,.18.28Z"/><path class="cls-1" d="M15.26,67.28c-.11-.12-.21.13-.28,0a1.07,1.07,0,0,0,.18.47A.6.6,0,0,1,15.26,67.28Z"/><path class="cls-1" d="M15.28,68a1,1,0,0,0-.12-.22A.8.8,0,0,0,15.28,68Z"/><path class="cls-1" d="M15.66,66.33a.29.29,0,0,0-.21.16l.19-.07Z"/><path class="cls-1" d="M15.64,66.42h0l-.05.2Z"/><path class="cls-1" d="M15.66,66.31v0S15.68,66.32,15.66,66.31Z"/><path class="cls-1" d="M16.05,65.36c.07.16.11.46.31.22C16.26,65.46,16.15,65.59,16.05,65.36Z"/><path class="cls-1" d="M15.89,66.23,16,66c-.05,0-.12,0-.15,0Z"/><polygon class="cls-1" points="15.93 66.36 15.89 66.23 15.86 66.32 15.93 66.36"/><path class="cls-1" d="M15.47,67.54a.77.77,0,0,1,.07.37,2.14,2.14,0,0,0,.08-.44S15.48,67.38,15.47,67.54Z"/><path class="cls-1" d="M15.56,67v0S15.59,67,15.56,67Z"/><polygon class="cls-1" points="15.6 69.28 15.63 69.26 15.6 69.25 15.6 69.28"/><path class="cls-1" d="M15.65,67.45a.22.22,0,0,0,0-.24,2.17,2.17,0,0,1,0,.26S15.66,67.49,15.65,67.45Z"/><path class="cls-1" d="M15.38,68.37a1.19,1.19,0,0,0,.08-.2C15.41,68.23,15.33,68.35,15.38,68.37Z"/><path class="cls-1" d="M15.52,67.05v0S15.49,67.06,15.52,67.05Z"/><path class="cls-1" d="M15.52,67.05a.51.51,0,0,0,.09.16.9.9,0,0,0,0-.19Z"/><path class="cls-1" d="M16.76,69.51a.3.3,0,0,1-.21-.48c-.13-.22-.64,0-.92.23.07,0,.12,0,.27.23,0-.1.14-.58.29-.38s0,.26-.07.43c.17-.16.36.36.63.23l-.15-.25S16.73,69.59,16.76,69.51Z"/><path class="cls-1" d="M15.62,68.77l0-.11a1.13,1.13,0,0,1-.19.39c.09.17.15.2.2.2v-.52Z"/><path class="cls-1" d="M15.57,68.19c.17.08.26.32.44.17,0-.3-.16-.21-.24-.39.06.49-.1-.15-.18.21a.68.68,0,0,1-.05-.27l-.08.26h0s0,0,0,0h0l.06,0c0,.14,0,0-.06,0h0l.12.5A1.59,1.59,0,0,0,15.57,68.19Z"/><path class="cls-1" d="M16.67,65.9h0S16.66,66,16.67,65.9Z"/><path class="cls-1" d="M16.54,66.06a.17.17,0,0,1-.05-.18c.07-.08.09,0,.14,0s-.08-.26-.2-.07l0,0c-.09.17-.35.37-.37.34A1.27,1.27,0,0,0,16.54,66.06Z"/><path class="cls-1" d="M16.05,67.1l.05.4.16-.19h-.09C16.23,67.09,16.11,67.13,16.05,67.1Z"/><path class="cls-1" d="M15.52,69.34l-.19,0,.3.21Z"/><polygon class="cls-1" points="15.64 69.88 15.49 69.89 15.61 70.02 15.64 69.88"/><path class="cls-1" d="M40.3,77.46l.09-.07Z"/><path class="cls-1" d="M39.52,77.62v.08S39.55,77.62,39.52,77.62Z"/><path class="cls-1" d="M24.76,78.48c.11.2.22.48.25.3V78.6A.4.4,0,0,1,24.76,78.48Z"/><path class="cls-1" d="M33.19,79.15l0-.05-.13.15Z"/><path class="cls-1" d="M33.37,78.45l.2.13A.69.69,0,0,0,33.37,78.45Z"/><path class="cls-1" d="M44.37,76.1l.06-.21C44.25,76,44.36,76,44.37,76.1Z"/><path class="cls-1" d="M18.34,74.74a1.1,1.1,0,0,0,.2.33C18.48,74.87,18.47,74.67,18.34,74.74Z"/><path class="cls-1" d="M40.4,79.33c.06,0,.08-.09.07-.12S40.38,79.29,40.4,79.33Z"/><path class="cls-1" d="M18.87,75.38l0-.09a1,1,0,0,1-.3-.22C18.59,75.22,18.68,75.37,18.87,75.38Z"/><path class="cls-1" d="M54.06,66.4s0,0,0,0S54.05,66.38,54.06,66.4Z"/><path class="cls-1" d="M54.66,61.57s.06.12.1.18A.47.47,0,0,0,54.66,61.57Z"/><path class="cls-1" d="M16.25,72c-.06-.1,0,0,0,0Z"/><path class="cls-1" d="M16.66,71.26a.1.1,0,0,0,.09,0A.13.13,0,0,1,16.66,71.26Z"/><path class="cls-1" d="M20.39,75.2h0S20.4,75.17,20.39,75.2Z"/><path class="cls-1" d="M16.24,71.85a.77.77,0,0,0,0,.15A.58.58,0,0,0,16.24,71.85Z"/><path class="cls-1" d="M16.18,71.9l0-.1S16.1,71.82,16.18,71.9Z"/><path class="cls-1" d="M16.33,72.18a1.34,1.34,0,0,1-.07-.18s0,0,0,0Z"/><path class="cls-1" d="M51,73.34h0C51,73.22,51,73.25,51,73.34Z"/><path class="cls-1" d="M27.88,77.51h0Z"/><path class="cls-1" d="M28.27,77.47c-.2.17-.28.13-.39.06V78Z"/><path class="cls-1" d="M42.12,77l-.29-.08c.24-.32.47-.31.18-.45.11.54-.95.29-.85.83L41,77.18c.05,0,.05,0,.1,0-.39-.18-.15.44-.58.47-.16,0-.28-.06-.19-.15l-.29.21c-.1,0-.1-.09,0-.1l-.49.15v0a2.19,2.19,0,0,1-.25.33c-.15,0,0-.07,0-.13l-.25.19c-.14-.11.06-.3.26-.31-.37-.48-.21.18-.82,0l.24-.12c-.23-.27-.41-.12-.73-.25.08.09.67.36.4.55a.36.36,0,0,0-.35.12c0-.19-.18-.1-.38-.06l0-.26c-.2.11-.16.24-.27.37s-.32-.17-.41-.33c-.39,0,.32.27-.13.4-.33-.05-.54.09-.9.31-.23,0,0-.16-.07-.22l-.17.23s0-.06,0-.09,0,.26-.19.36c0,.29-.47-.43-.81-.13-.07-.07.05-.15,0-.25a2.7,2.7,0,0,0-.78.38l-.3-.19c.22.21-.1.41-.38.57.08.1.14.19.18.23l-.43.1s0-.13.08-.23l-.08.06c-.14-.11,0-.25.07-.38l.14.17a.76.76,0,0,0,.22-.46.26.26,0,0,1-.14,0s.05-.07,0-.1-.06,0-.13.09l-.07-.3,0,.11-.52-.23a3,3,0,0,1-1.44.65c.18-.19.08-.34.12-.58.13.28.49,0,.8,0-.16,0-.11-.16-.06-.2l-.6.16c0-.2-.09-.17-.23-.27.05.41-.46.21-.7.28,0-.13.08-.25.35-.18-.26-.34-.47.4-.73.09.07,0,.1,0,.14,0-.18.09-.55-.07-.44-.17h.07c-.44-.13-1.36-.27-1.5,0a2.42,2.42,0,0,1,.19-.45l-1.07.93c.14-.27,0-1,.45-1.08a.51.51,0,0,0-.46-.1c.06,0,.08.45,0,.45-.19-.38-.14-.22-.4-.57.09.09-.15.5-.32.44.05-.06.11-.44.18-.47l-.54.31c.13,0,.13-.36.07-.51,0,.1-.35-.12-.48-.11l.15.16c-.45-.21-.66.45-1.12.27.09-.07.32-.49.11-.63-.18.18-.86.88-1.35.86l0-.15h-.37a12.09,12.09,0,0,1,1.54-.85c-.14-.16,0-.16-.25-.25-.05-.15.2-.12.28-.1L24.3,76c-.08.26-.55.07-.62.29h.75a.85.85,0,0,1-1.07.34c-.06-.15.27-.41.3-.49s-.45,0-.46-.1l.23-.05c-.18-.19-.52.15-.68-.21-.09,0-.11-.45-.2-.31a2.75,2.75,0,0,1-.61,1.36,3.17,3.17,0,0,1-.4-.73c0-.29.52-.37.49-.62,0,.06-.17.09-.22.1s.15-.18-.07-.26c-.17.21-.39-.28-.21.14-.24-.06-.18-.19-.41-.32,0,.19-.54.37-.79.29a.31.31,0,0,0,.06-.2c-.36-.33-.51-.56-.84-.87,0-.08-.09-.28.06-.31-.08,0-.19,0-.29-.07,0-.35.24.18.29-.16-.11.1-.41-.07-.61-.15-.15.22.3.35.5.41a1,1,0,0,1-1.19,0c-.32-.25.05-.28,0-.3-.44-.58-.88-.13-1-.8,0-.32.35-.24.45-.37.24.21.16.48.29.65L17.91,73a.52.52,0,0,1,.3.3c0-.26-.69-1-.74-1.58-.11-.06-.26-.18-.3-.07l.11.15c-.08.22-.37-.2-.34,0a.94.94,0,0,1-.53-.73l.21-.14c-.07,0-.06.26,0,.33-.15-.11.14-.6-.21-.66l-.09.29c-.2-.2-.55-.44-.53-.78-.2.2.05.06-.18.36.26-.28.23.81.49.39-.24.33,0,.43-.16.83.07,0,.1-.16.17.11l.09,0v0s0,0,0,0a.29.29,0,0,1,.06-.17c.23,0,.41.43.56.51s-.11,0-.15.1l.22.12c-.15.11-.06.54-.33.24a1.87,1.87,0,0,0,.17.31.87.87,0,0,0,.31.58c.07.16.4.22.2.19l.43.34,0,0c.32.44.94.58,1.16,1.22a1.65,1.65,0,0,1,.53.37l-.05.15c.21.1.44.55.62.46,0,.47.86.68,1.17.91l.11-.17a2.43,2.43,0,0,0,.8.29l.07-.17c.31,0,.58.43,1,.59-.06,0-.15,0-.21-.08.33.57,1.13.16,1.47.58a.27.27,0,0,1,.27.1h0l0,0a1.66,1.66,0,0,0,.13.14.36.36,0,0,0-.1-.13,1.65,1.65,0,0,0,.37.05v.2h0c.11.11.13-.06.11-.22a.66.66,0,0,0,.2-.06c0,.33.37,0,.41.37.14-.13.69.08.84-.24,0,0,0,.07,0,.06a.49.49,0,0,0,.42.09v.25l.39-.23c.16.19.22.29,0,.43.53-.18.4,0,.85-.21l-.05.15c.14,0,.41-.13.47,0,.25.36,1.54.35,2.31.73-.09-.48.35.27.43-.09,0,.12.14.19,0,.27.43,0,.6.26.93,0,0,.11-.11.15-.07.22s.14-.08.18,0-.07.08-.15.12c.44,0,.51-.3.58-.62.2.18.31.16.48,0,.07.11.18.23-.09.24.15,0,.91.23.94,0,0,.07.21,0,.25,0a3.21,3.21,0,0,0,.69,0l-.09,0c.14-.31.27,0,.6-.11v0c.64.12.24-.14.87,0l-.06-.19c0-.41.56.16.88,0l-.14-.09c.16-.17.61.47.81.48s0,.07-.1.11c.53.15,0-.25.37-.38.09.12,0,.35.23.33s.63-.58,1-.4c-.1-.08-.19-.17,0-.28s.79.24.95-.13c0,0,.06,0,.06.07.18-.13.61-.3.69-.5.34.59,1.14-.62,1.29,0l.59-.21v.07a.69.69,0,0,0,.58-.44c.1,0,.06.09.06.12.59-.06.65-.08,1-.54l.11.17c.09-.16.91,0,1.37-.41a.11.11,0,0,1,0,.1c.51-.46,1.67-.11,1.59-.86l.31-.35c-.52.2-.07-.32-.32-.33.17-.13.59,0,.37.1H48c.08.38.67-.19.78,0a24.82,24.82,0,0,0,2.83-1.57l-.27-.16.28-.22c.12,0,.25.1,0,.26.21,0,.25-.39.21-.45.47-.24.07.39.19.3l.16-.16H52.2c0-.21,0-.3.22-.51s.2.06.26,0,0,0,.09-.08l.35-.31-.29,0c.06-.23.31-.3,0-.33.53.07,1.21-1.23,1.4-1.33a2,2,0,0,1,.34-.88c-.08.06-.33,0-.17-.27.44.34.46-.38.89-.48-.3.12.25-.86-.22-.64.12-.23.2,0,.38-.11,0-.63.45-1.3.44-2.09-.07,0-.19.1-.28-.07l.36-.39c0-.15-.4-.14-.15-.41-.06,0-.15.1-.18,0A4.68,4.68,0,0,0,55.38,64a8.41,8.41,0,0,1-.45-2.23c0,.24-.11.12-.17,0,0,.11-.16.07-.24.13,0-.22,0-.45,0-.67-.28,0-.33-.59-.59-.52l.14.15c-.38-.07-.41.64-.77.78.43.09-.14.83.47,1,0,.12-.15,0-.21.06.19,0,.27.15.29.4h0A4.33,4.33,0,0,1,54,64.82l.17-.09a.51.51,0,0,1-.07.29c.32.14-.07-.45.27-.34-.31.27.16,1.16-.28,1.33,0,.25.22-.08.23.16l-.11.07.15.06a.3.3,0,0,1-.28.25s0-.11,0-.15c-.15.2,0,.58,0,.64l.09-.22c.07.67-.21,1.43-.18,2.11l.09,0c0,.53-.23.34-.35.88l0,0a.57.57,0,0,1-.07.42c0-.17-.31.13-.32-.08-.1.56,0,.3.09.78H53.2a.52.52,0,0,1,0,.49c0-.27-.28,0-.27-.29-.59.26-.29.88-.81.78.13.49.49-.24.46-.06.19,0,.1.37-.06.49s-.62-.13-.94.21c0,0,0-.06.05-.09-.19,0-.14.35-.43.36.08.26-.22.17,0,.43l.29-.33c-.14.21-.08.65-.52.79a.73.73,0,0,1,.07-.31c-.15,0-.14.2-.3.2-.16-.27.37-.4.41-.75-.18,0-.23.49-.35.15.13.46-.38.25-.45.69l-.09-.16s-.06.19-.14.24v-.3c-.09.32-.51.13-.65.37.42-.3.22.12.48.11-.39.59-.58-.21-1.14.24.07-.07.37-.09.29.06a.88.88,0,0,1-.45,0c-.39.28.16.13,0,.34-.25-.12-.15.2-.31.36l-.1-.17c-.55.14.06.43-.46.52l.07-.33-.2.17,0-.22c-.18.28-.28.28-.55.35a.26.26,0,0,1-.11.43c-.21,0,0-.2-.3,0,0-.14,0-.31.25-.21,0-.06,0-.14,0-.2-.22,0-.43.15-.54.2a.24.24,0,0,1,.14,0l-.36.45c-.1,0-.06-.12,0-.19s-.12.17-.25.24c0-.16-.09-.31.08-.46l-.38.35c-.05-.05-.3-.09-.26-.16-.28,0-.51.5-.88.51a.31.31,0,0,1-.1.12c-.32.09-.67,0-1,.3l-.3-.2c-.28.15.4.25-.07.5s-.2-.19-.35-.23c-.13.19-.35.57-.75.43C41.93,77,42,77,42.12,77Zm-3.74,1c.07,0,.19-.2.26-.1S38.52,78,38.38,77.94Zm-5.73.79c.07-.06.15,0,.24.06A.39.39,0,0,1,32.65,78.73ZM17,73.09h0C17.07,73.29,17.06,73.22,17,73.09Zm-.14-.37c-.05,0-.07,0-.08,0s.11.07.15.16S17,72.79,16.87,72.72Zm35.79.84-.08,0C52.65,73.42,52.66,73.49,52.66,73.56Z"/><path class="cls-1" d="M33.35,78.53a.2.2,0,0,1,0,.11S33.41,78.57,33.35,78.53Z"/><path class="cls-1" d="M44.36,76.14h0s0,0,0,0Z"/><path class="cls-1" d="M22,75.3a.26.26,0,0,1,.07.15S22.05,75.36,22,75.3Z"/><path class="cls-1" d="M15.73,70.92l.13.23a.35.35,0,0,1,0-.24S15.75,71,15.73,70.92Z"/><path class="cls-1" d="M16.53,68.64s0-.07,0-.1h-.09C16.42,68.69,16.5,68.79,16.53,68.64Z"/><path class="cls-1" d="M16.27,70.52c.14-.06.06-.19,0-.35v0C16.05,70.2,16.14,70.36,16.27,70.52Z"/><path class="cls-1" d="M16.25,70.13a.8.8,0,0,1,0-.15C16.13,70,16.21,70,16.25,70.13Z"/><path class="cls-1" d="M16.54,72.33c0-.1-.21,0-.17,0C16.15,72.31,16.85,72.69,16.54,72.33Z"/><path class="cls-1" d="M16.75,70.25l-.18.11.18,0A.75.75,0,0,1,16.75,70.25Z"/><path class="cls-1" d="M17,71.49a1.09,1.09,0,0,1-.05-.26s-.06,0-.09,0C16.93,71.35,17,71.52,17,71.49Z"/><path class="cls-1" d="M16.89,71.19a.29.29,0,0,0-.1-.18A1.12,1.12,0,0,0,16.89,71.19Z"/><polygon class="cls-1" points="16.91 70.56 16.89 70.64 16.94 70.82 16.91 70.56"/><path class="cls-1" d="M18.52,73.82l.23.17c.06,0,0-.11,0-.17S18.54,73.74,18.52,73.82Z"/><path class="cls-1" d="M18.41,72.84a.53.53,0,0,1-.05.18l.2-.14Z"/><path class="cls-1" d="M19,73.39c.07,0,.39.15.17-.09C19.05,73.33,18.83,73.17,19,73.39Z"/><polygon class="cls-1" points="21.99 76.09 21.93 76.06 21.74 76.42 21.99 76.09"/><path class="cls-1" d="M25.66,76.6c-.27-.2-.15.21-.38,0-.1.07.19.17.09.23C25.58,76.79,25.66,76.88,25.66,76.6Z"/><path class="cls-1" d="M25.37,76.83l-.12,0A.25.25,0,0,0,25.37,76.83Z"/><polygon class="cls-1" points="54.48 60.73 54.43 60.49 54.39 60.69 54.48 60.73"/><path class="cls-1" d="M54,60.5l.19-.18H53.9C54,60.37,54,60.44,54,60.5Z"/><path class="cls-1" d="M37.72,77.55v.06c0,.06.09.06.18,0Z"/><polygon class="cls-1" points="40.49 77.15 40.44 77.16 40.59 77.36 40.49 77.15"/><path class="cls-1" d="M42.66,76.26c-.09,0-.18.1-.28.12C42.57,76.28,42.77,76.53,42.66,76.26Z"/><path class="cls-1" d="M39.06,54.39s0-.13,0-.16S39.05,54.42,39.06,54.39Z"/><polygon class="cls-1" points="38.67 54.67 38.68 54.61 38.61 54.75 38.67 54.67"/><path class="cls-1" d="M38.37,54.63c0,.25.11,0,.15.07v.06l.06-.2C38.5,54.58,38.4,54.71,38.37,54.63Z"/><path class="cls-1" d="M38.26,54.07c0,.1,0,.08,0,0v0Z"/><path class="cls-1" d="M38.29,54.08s0-.08,0,0Z"/><path class="cls-1" d="M38.13,54.12l0-.08c0-.06,0-.08,0-.12S38.11,54,38.13,54.12Z"/><path class="cls-1" d="M38.07,54.3l0,0S38.09,54.23,38.07,54.3Z"/><path class="cls-1" d="M38.15,54.19l0,.07s0,.12,0,0C38.11,54.31,38.13,54.24,38.15,54.19Z"/><path class="cls-1" d="M38.18,54.23c0,.06,0,.1,0,.18S38.27,54.21,38.18,54.23Z"/><path class="cls-1" d="M38.32,54.89l0,.07,0-.08S38.33,54.81,38.32,54.89Z"/><path class="cls-1" d="M37.86,54s0,.14,0,.21l0-.06A.39.39,0,0,1,37.86,54Z"/><path class="cls-1" d="M37.87,54.17l-.06.08S37.87,54.23,37.87,54.17Z"/><polygon class="cls-1" points="38.04 54.57 38.14 54.39 38.03 54.57 38.04 54.57"/><polygon class="cls-1" points="37.67 53.93 37.71 53.81 37.65 53.99 37.67 53.93"/><path class="cls-1" d="M37.54,54c0-.1,0-.17,0-.24a.54.54,0,0,0-.1.19S37.51,53.87,37.54,54Z"/><path class="cls-1" d="M37.4,54a.83.83,0,0,0,0-.12A.55.55,0,0,0,37.4,54Z"/><path class="cls-1" d="M37.73,54.22a.32.32,0,0,0,0-.16v.15Z"/><path class="cls-1" d="M37.71,54.22h0Z"/><path class="cls-1" d="M37.74,54.22h0S37.73,54.24,37.74,54.22Z"/><path class="cls-1" d="M37.93,54.42a.33.33,0,0,0,0,.3A1.17,1.17,0,0,1,37.93,54.42Z"/><path class="cls-1" d="M37.75,54.41l0,0a.66.66,0,0,1,0-.14Z"/><polygon class="cls-1" points="37.72 54.45 37.75 54.41 37.73 54.4 37.72 54.45"/><path class="cls-1" d="M37.49,54.15c0,.07-.05.08-.08.09a.12.12,0,0,0,.09,0C37.5,54.23,37.52,54.15,37.49,54.15Z"/><path class="cls-1" d="M37.6,54.19h0S37.6,54.22,37.6,54.19Z"/><polygon class="cls-1" points="37.13 54.25 37.13 54.28 37.13 54.25 37.13 54.25"/><path class="cls-1" d="M37.5,54.31s0,0,0-.06a.05.05,0,0,1,0,0Z"/><path class="cls-1" d="M37.32,54.09a.2.2,0,0,0,0,.08S37.32,54.05,37.32,54.09Z"/><path class="cls-1" d="M37.59,54.16h0S37.59,54.14,37.59,54.16Z"/><path class="cls-1" d="M37.59,54.16a.25.25,0,0,0,0,.09.1.1,0,0,0,0,0Z"/><path class="cls-1" d="M37.09,55.21c0-.13,0-.27.09-.12a2.33,2.33,0,0,0,0-.81.34.34,0,0,1,0,.2c0,.07.12.17.08.3s-.06-.05-.09-.12c0,.17-.07.25,0,.51l0-.09S37.07,55.18,37.09,55.21Z"/><path class="cls-1" d="M37.23,54.29l0,0s0-.08-.08-.19a.31.31,0,0,0,0,.17l.1,0Z"/><path class="cls-1" d="M37.35,54.26a1.22,1.22,0,0,0,0,.38c.06,0,0-.12.08-.19s0-.09,0-.17,0,0,.06,0a.18.18,0,0,1,0-.07h0v0h0v0s0,0,0,0v0h0l-.1.09S37.3,54.28,37.35,54.26Z"/><path class="cls-1" d="M37.81,55v0S37.8,55,37.81,55Z"/><path class="cls-1" d="M37.77,54.94s0-.08,0-.06,0,.07,0,.12a.21.21,0,0,0,0-.18v0a.83.83,0,0,1-.06-.27C37.75,54.71,37.76,54.8,37.77,54.94Z"/><path class="cls-1" d="M37.57,54.62l-.08.08,0,.13v-.08S37.56,54.69,37.57,54.62Z"/><polygon class="cls-1" points="37.12 54.18 37.12 54.02 37.08 54.24 37.12 54.18"/><polygon class="cls-1" points="37.01 54.2 37 54.06 36.98 54.15 37.01 54.2"/><path class="cls-1" d="M33.41,58.34l0,0A.05.05,0,0,0,33.41,58.34Z"/><path class="cls-1" d="M33.48,58.22l-.06,0Z"/><path class="cls-1" d="M34.33,55c-.1-.1-.24-.25-.16-.12l.09.13S34.3,54.92,34.33,55Z"/><path class="cls-1" d="M33.53,56.77l0,0-.1-.11Z"/><path class="cls-1" d="M34,57.2l-.09,0Z"/><path class="cls-1" d="M33.23,59.11l.13.08S33.3,59.14,33.23,59.11Z"/><path class="cls-1" d="M35.88,54.4c-.05,0-.08-.07-.1-.07S35.89,54.53,35.88,54.4Z"/><path class="cls-1" d="M32,57.52l.07.07A.12.12,0,0,0,32,57.52Z"/><path class="cls-1" d="M35.68,54.36l0,0s0-.06.07-.06S35.69,54.25,35.68,54.36Z"/><path class="cls-1" d="M32.44,61.91h0S32.44,61.91,32.44,61.91Z"/><path class="cls-1" d="M30.84,62.72a.06.06,0,0,0,0,0S30.82,62.7,30.84,62.72Z"/><path class="cls-1" d="M36.55,54.16s0,0,0,0Z"/><path class="cls-1" d="M36.72,54.75v0Z"/><path class="cls-1" d="M35.72,55.32Z"/><path class="cls-1" d="M36.59,54.23l0,0A.09.09,0,0,0,36.59,54.23Z"/><path class="cls-1" d="M36.58,54.16h0S36.6,54.13,36.58,54.16Z"/><path class="cls-1" d="M36.52,54.17h0s0,0,0,0Z"/><path class="cls-1" d="M32.31,60.25h0C32.35,60.29,32.34,60.28,32.31,60.25Z"/><polygon class="cls-1" points="34.73 56.57 34.72 56.56 34.72 56.56 34.73 56.57"/><path class="cls-1" d="M34.74,56.7c-.09-.17-.06-.16,0-.14l-.28-.34Z"/><path class="cls-1" d="M33.3,58.67h.14c.18.15.09.15.28.19-.42-.2,0-.17-.39-.39l.1,0s0,0,0,0c.23,0-.28-.2-.19-.24a.2.2,0,0,1,.16.05l-.08-.11s.09,0,.07,0v-.1h0a1.52,1.52,0,0,1-.18-.17c.07,0,0,0,.09.06l-.07-.1c.12,0,.2.14.16.16.44.2-.08-.1.22,0l0,.07c.25.11.19,0,.36.08-.08,0-.42-.13-.49-.24s.06,0,0-.08c.14.09.12,0,.13,0l.19.13a1,1,0,0,0-.21-.2s.2.06.32.14-.25-.12-.25-.21,0-.08,0-.22c.09,0,.11.09.17.11l-.13-.13s.05,0,.08,0-.18-.13-.21-.21c-.19-.16.34.14.17-.07,0,0,.1.09.17.14a1.31,1.31,0,0,0-.21-.34l.16,0a1,1,0,0,1-.36-.39l-.17-.1,0-.14a.7.7,0,0,1,.14.15l0,0a.67.67,0,0,1,.25.23l-.12-.07a2.76,2.76,0,0,0,.29.3.09.09,0,0,1,0-.06l.07.07,0-.08.2.16L34,57.11l.17,0c-.14-.22-.36-.52-.35-.69a4.12,4.12,0,0,0,.36.38c-.18-.14,0,.13-.06.14s.11.07.13.1l-.08-.22c.12.13.1.08.17.11-.25-.23-.12-.23-.15-.33.08.09.15.18.1.19.22.16-.22-.35,0-.22,0,0,0,0,0,0s.07-.08.12,0h0c.09,0,.2-.14,0-.39l.24.34c-.17-.29-.32-.59-.47-.9a5.8,5.8,0,0,1,.56.84s.08,0,.06-.06a1.72,1.72,0,0,1-.24-.31c.21.2.12.1.3.26a1.31,1.31,0,0,1-.22-.39c0,.06.22.33.24.37l-.15-.37a1.47,1.47,0,0,0,.25.36c-.05-.06.06,0,0-.06l-.07-.07c.1,0-.21-.51-.11-.54a1.75,1.75,0,0,0,.29.48,4.28,4.28,0,0,1-.36-1.08l.07.09v-.15l.34,1.16c.07.07.07.12.11.09s.05.15,0,.16l.12,0c-.1-.21,0-.25-.11-.42v.27c-.12-.21-.24-.63-.14-.63a4.58,4.58,0,0,1,.2.46c0-.08,0-.18,0-.13l0,.13c.08.06-.06-.32.08-.13,0,0,.16.25.11.12a10.61,10.61,0,0,1-.5-1.2,2.28,2.28,0,0,1,.27.3c.11.19.13.49.22.65,0-.06,0-.14,0-.16s.06.18.1.15c-.08-.23.09,0,0-.2,0-.07.06,0,.11,0a1.35,1.35,0,0,1-.09-.59.91.91,0,0,0,.06.16c.1,0,.18.09.27.07a.46.46,0,0,1,.08.22s0-.13,0-.14c.1.19-.05,0,0,.28a.68.68,0,0,1,0-.3c-.05-.21-.09,0-.11.07a1.38,1.38,0,0,1,0-.76c.07-.09.07.18.08.13s0-.53.2-.36a2.2,2.2,0,0,1,.09.51c0,.08-.12-.1-.16-.08l.07.07c0,.07,0,.13-.07.08.06.15.24,0,.37.14a.49.49,0,0,0,0-.21l0,0c0-.15,0-.21,0-.28s.07-.28.15-.2l0,.22c0-.06,0-.13-.07-.06,0-.1.13.28.14,0l-.06-.14c0-.11.09-.35.16-.28,0-.21,0,0-.07-.22.06.3-.17,0-.09.31-.07-.28-.09-.11-.17-.35,0,.07,0,.13,0,.1v.06h0a1,1,0,0,1,0,.1c0,.17-.1.17-.12.25s0-.08,0-.15l0,.12c0-.15-.12-.25,0-.35h-.07c-.06-.09-.12-.11-.14,0s-.06.19-.05.06l-.09.12v0c-.12,0-.16.31-.35.07,0,0-.05.1-.12.07l-.05-.12s-.18-.1-.16,0c-.17-.33-.26,0-.36,0l.06.16c-.06,0-.09.09-.13.19l.06.14c0,.15-.18,0-.27,0s0-.05,0,0c-.26-.27-.1.33-.31.15,0,.06,0,.05-.06,0h0l-.07,0s.05,0,.07,0a.13.13,0,0,0,0,.09l-.1-.13h0s0,.08.1.18a.52.52,0,0,0,0,.11c-.16-.22,0,.11-.2-.12,0,.13-.07.18.09.44,0,0,0,0,0-.06s-.09,0-.06.07L34,55.41l.11.28a.58.58,0,0,1-.23-.29c.07.27,0,.13.08.38l-.09-.11s.06.2,0,.12-.3.17-.58.13c.31.26-.19-.07,0,.16-.07-.06-.13-.08-.17-.16,0,.13-.21,0-.06.23A1.35,1.35,0,0,1,33,56s0,.08,0,0-.05-.06-.07-.1.16.29.36.48c-.13-.06-.13,0,0,.12-.08,0-.17-.09-.16-.16s-.24.07-.07.21c0,0,0,0,0,0s-.08,0-.11.1h0c.2.18,0,.08,0,.14h0c-.22,0,.05.1-.2.07l.14.09c.29.22-.24,0-.16.11l.09,0c.08.1-.47-.17-.53-.16s0,0-.05-.06c-.24,0,.18.13.18.22s-.25-.17-.3-.14.25.33,0,.28a.4.4,0,0,1,.21.13c0,.06-.37,0-.14.15l-.07,0c.05.07.05.18.18.27-.54-.22.14.36-.34.13l0,.13-.05,0c-.07.06,0,.14.14.22a.36.36,0,0,1-.11,0c-.15.07-.13.09.08.28l-.16,0c.08.06-.32.07-.17.25l-.07,0c.15.19-.57.15,0,.4l.12.13c.09-.09.26.1.37.09s-.21.05-.23,0h0c-.31-.12-.15.09-.36,0-.05.21-.28.37-.35.58l.25,0,0,.07c-.06,0-.2,0-.18-.07-.15,0,.1.11.15.13-.12.07-.28-.11-.29-.08v.05h0c.09.06.2.09.18.15s-.16,0-.17,0,0,0,0,0l0,.08h.21c.09.06,0,.08.2.09-.35,0-.19.3-.3.32.13.08.12.13.09.2s.27,0,.23.07c-.46-.1-.21.07-.55.06.22,0,0,.18.35.16-.05,0-.17,0-.29,0,.16.14-.16.24-.11.4a.55.55,0,0,1,.24,0l-.31,0s.35.06.13.09c.06,0,.13,0,.15,0-.33.26.2.59-.38.85.12,0,.13,0,.13,0a.94.94,0,0,1,.24,0l-.24.12c.23,0,0,.13.24.15l0,0c.26.05.58-.07.92,0-.3-.06.44-.12,0-.22.07,0,.11,0,.18,0-.14,0-.17,0-.1-.1h0c0-.14.12-.19.23-.34h-.17s.08,0,.12,0c-.25-.06,0,.09-.29,0,.34,0,0-.23.41-.23,0,0-.19,0-.19,0h.11l-.13,0s.15,0,.24,0l0,0c.12,0,0-.12,0-.13l-.07,0c-.08-.15.08-.3-.11-.46h-.08c-.13-.13.1-.07.05-.19h0c-.08,0-.11-.07-.1-.1s.19,0,.28,0c-.14-.13-.11-.07-.38-.19h.13c-.11,0-.17-.06-.19-.12s.2,0,.33.08c.3-.06-.24-.23.17-.2-.34-.12-.21.06-.28,0s-.26-.1-.21-.13.46,0,.47-.06,0,0,0,0-.11-.09,0-.1c-.21-.07,0-.05-.25-.12l.05.1c-.06-.07-.37-.19-.2-.23a1.19,1.19,0,0,1,.16.08c.08,0,0,0,0-.06.26.07,0,.12.22.22s-.17-.14.11,0c-.36-.13.08-.08-.19-.21l.16.05-.09-.07.2.08c-.16-.09.19-.05.1-.12,0,.1-.2,0-.33,0-.18-.18.44,0,.4-.11,0,0-.11,0-.18,0a.38.38,0,0,1,.2,0c0-.1-.17,0-.25-.1.2,0-.07-.07-.12-.13l.16,0c.13-.07-.33-.13-.18-.19l.21.11,0-.06.18.06c-.12-.09-.08-.1,0-.13-.12,0-.29-.1-.28-.15s.15.07.15,0,.21.11.06.08l.14.07c.12,0,.06-.07.06-.09h0l-.19-.17a.35.35,0,0,1,.15.07s-.08-.07-.08-.1a1.25,1.25,0,0,1,.31.16l-.12-.13a.78.78,0,0,1,.22,0c.09,0-.21-.21-.09-.23l-.06-.05s.22,0,.08-.17l.24.06c0-.07-.31-.08-.35-.2s.2.07.28.07c-.1-.08-.3-.24-.1-.21C33.33,58.64,33.29,58.64,33.3,58.67Zm.22-.67s.11.11,0,.07S33.46,58,33.52,58Zm.32-1.1c0,.05,0,0-.05,0S33.8,56.88,33.84,56.9Zm2.47-2.59h0C36.26,54.26,36.28,54.29,36.31,54.31Zm.09.07a.17.17,0,0,0,0-.07s0,0,0,0S36.38,54.42,36.4,54.38Zm-5.25,5.84h.05S31.2,60.23,31.15,60.22Z"/><path class="cls-1" d="M33.93,57.15l-.07-.06Z"/><polygon class="cls-1" points="33.2 59.1 33.2 59.1 33.23 59.11 33.2 59.1"/><path class="cls-1" d="M35.68,56a.22.22,0,0,1,0-.08A.12.12,0,0,0,35.68,56Z"/><path class="cls-1" d="M36.79,54.07l0,0s0,0,0,.05S36.78,54.07,36.79,54.07Z"/><path class="cls-1" d="M37.26,55.09s0,0,0,0V55A.07.07,0,0,0,37.26,55.09Z"/><path class="cls-1" d="M36.88,54.63c0,.14,0,.09.07.06h0C36.94,54.49,36.91,54.56,36.88,54.63Z"/><path class="cls-1" d="M37,54.69s0,0,0,0S37,54.66,37,54.69Z"/><path class="cls-1" d="M36.49,54.28s0-.18,0-.12C36.49,54,36.4,54.38,36.49,54.28Z"/><polygon class="cls-1" points="36.94 55.09 36.91 54.92 36.91 55.06 36.94 55.09"/><path class="cls-1" d="M36.68,55l0,0a.11.11,0,0,1,0-.06S36.67,54.93,36.68,55Z"/><path class="cls-1" d="M36.74,55s0,0,0,0A.05.05,0,0,0,36.74,55Z"/><polygon class="cls-1" points="36.87 55.15 36.85 55.11 36.82 55.1 36.87 55.15"/><path class="cls-1" d="M36.12,55l0,.06c0,.06,0,.09.05.06A.26.26,0,0,0,36.12,55Z"/><path class="cls-1" d="M36.37,55.46a.68.68,0,0,1,0-.13l0,.22Z"/><path class="cls-1" d="M36.24,55.55c0,.06,0,.18,0,.15S36.29,55.58,36.24,55.55Z"/><polygon class="cls-1" points="35.4 55.49 35.41 55.48 35.28 55.15 35.4 55.49"/><path class="cls-1" d="M35.19,56.54c.09.05-.1-.19,0-.12s-.08-.06-.11-.13C35.1,56.38,35.06,56.35,35.19,56.54Z"/><path class="cls-1" d="M35.08,56.29v0A.43.43,0,0,0,35.08,56.29Z"/><polygon class="cls-1" points="30.65 62.88 30.57 62.93 30.69 62.9 30.65 62.88"/><path class="cls-1" d="M30.91,63l-.23,0,.21,0S30.86,63,30.91,63Z"/><path class="cls-1" d="M34,58.16l0,0c-.05,0-.06,0-.08,0Z"/><polygon class="cls-1" points="33.58 58.48 33.59 58.48 33.4 58.4 33.58 58.48"/><path class="cls-1" d="M33.64,59s0-.05,0-.06S33.4,58.86,33.64,59Z"/><path class="cls-1" d="M61.39,48.29s.13,0,.16,0S61.35,48.3,61.39,48.29Z"/><polygon class="cls-1" points="60.93 48.07 60.99 48.05 60.83 48.05 60.93 48.07"/><path class="cls-1" d="M60.8,47.75c-.22.13.08.1,0,.19l0,0,.19,0C60.91,47.86,60.75,47.83,60.8,47.75Z"/><path class="cls-1" d="M61.22,47.37c-.09.05-.1,0,0,.05l0,0S61.22,47.39,61.22,47.37Z"/><path class="cls-1" d="M61.23,47.4s.06,0,0,0Z"/><path class="cls-1" d="M61.11,47.27h.09s0-.08.09-.09S61.18,47.2,61.11,47.27Z"/><path class="cls-1" d="M60.92,47.3h0S61,47.29,60.92,47.3Z"/><path class="cls-1" d="M61.06,47.33l-.09,0s-.11.06,0,0C60.93,47.35,61,47.33,61.06,47.33Z"/><path class="cls-1" d="M61,47.37c0,.05-.06.09-.16.08C61,47.52,61.1,47.44,61,47.37Z"/><path class="cls-1" d="M60.55,47.84l0,.06h.09C60.54,47.9,60.62,47.81,60.55,47.84Z"/><path class="cls-1" d="M61.1,46.93c-.05,0-.12.08-.18.11H61A.24.24,0,0,1,61.1,46.93Z"/><path class="cls-1" d="M60.92,47h-.1S60.87,47.07,60.92,47Z"/><polygon class="cls-1" points="60.67 47.41 60.88 47.41 60.66 47.4 60.67 47.41"/><polygon class="cls-1" points="61.02 46.74 61.14 46.71 60.95 46.74 61.02 46.74"/><path class="cls-1" d="M60.94,46.62c.1,0,.13-.11.2-.12a.49.49,0,0,0-.21,0S61,46.55,60.94,46.62Z"/><path class="cls-1" d="M60.8,46.52l.13,0A.37.37,0,0,0,60.8,46.52Z"/><path class="cls-1" d="M60.8,46.94a.41.41,0,0,0,.12-.11l-.12.09Z"/><path class="cls-1" d="M60.79,46.92h0l0-.05Z"/><path class="cls-1" d="M60.8,46.94Z"/><path class="cls-1" d="M60.73,47.23a.34.34,0,0,0-.28.1C60.55,47.3,60.6,47.24,60.73,47.23Z"/><path class="cls-1" d="M60.65,47.05v.07a.26.26,0,0,1,.13-.06Z"/><polygon class="cls-1" points="60.59 47.05 60.65 47.05 60.65 47.03 60.59 47.05"/><path class="cls-1" d="M60.73,46.67a.13.13,0,0,1-.12,0,.15.15,0,0,0,0,.1S60.75,46.7,60.73,46.67Z"/><path class="cls-1" d="M60.75,46.8h0S60.73,46.81,60.75,46.8Z"/><polygon class="cls-1" points="60.45 46.38 60.43 46.4 60.46 46.39 60.45 46.38"/><path class="cls-1" d="M60.61,46.76s0,0,.07,0a.1.1,0,0,1,0,0S60.59,46.76,60.61,46.76Z"/><path class="cls-1" d="M60.69,46.48l0,.08S60.73,46.46,60.69,46.48Z"/><path class="cls-1" d="M60.78,46.77h0S60.8,46.75,60.78,46.77Z"/><path class="cls-1" d="M60.78,46.77h0Z"/><path class="cls-1" d="M59.59,46.8c.12-.07.26-.08.16,0a2.38,2.38,0,0,0,.68-.44.28.28,0,0,1-.2.05c0,.06-.08.19-.22.22s0-.08.06-.14c-.13.11-.26,0-.47.2h.11S59.61,46.77,59.59,46.8Z"/><path class="cls-1" d="M60.48,46.5h0s0-.08.12-.16a.35.35,0,0,0-.17,0l0,.1Z"/><path class="cls-1" d="M60.56,46.6c-.14.06-.22,0-.35.15,0,0,.14,0,.21,0-.09-.07.09,0,.13-.12a.09.09,0,0,1,.06,0l0-.08h0l-.06,0c0-.05,0,0,.06,0h0l-.13-.05S60.52,46.56,60.56,46.6Z"/><path class="cls-1" d="M60.14,47.42l0,0S60.14,47.41,60.14,47.42Z"/><path class="cls-1" d="M60.2,47.34s.08,0,.08,0-.07,0-.11,0a.17.17,0,0,0,.16-.07h0a.75.75,0,0,1,.2-.2A3.37,3.37,0,0,0,60.2,47.34Z"/><path class="cls-1" d="M60.37,47l-.12-.05-.09.1.07,0C60.23,47.06,60.31,47,60.37,47Z"/><polygon class="cls-1" points="60.51 46.33 60.66 46.26 60.44 46.33 60.51 46.33"/><polygon class="cls-1" points="60.43 46.24 60.55 46.17 60.47 46.19 60.43 46.24"/><path class="cls-1" d="M54.62,43.94l0,0Z"/><path class="cls-1" d="M54.77,44l0-.06Z"/><path class="cls-1" d="M58.48,44c.05-.13.14-.32.05-.19l-.09.12S58.49,44,58.48,44Z"/><path class="cls-1" d="M56.36,43.7v0l.08-.12Z"/><path class="cls-1" d="M56.07,44.26v0Z"/><path class="cls-1" d="M53.72,43.94l0,.15S53.7,44,53.72,43.94Z"/><path class="cls-1" d="M59.68,45.25a.15.15,0,0,0,0-.12C59.66,45.22,59.58,45.33,59.68,45.25Z"/><path class="cls-1" d="M55.07,42.39a.14.14,0,0,0,0,.08A.16.16,0,0,0,55.07,42.39Z"/><path class="cls-1" d="M59.63,45.05v0s.07,0,.08,0S59.74,45,59.63,45.05Z"/><path class="cls-1" d="M50.44,43.92h0Z"/><path class="cls-1" d="M49.09,42.66l0,0S49.11,42.63,49.09,42.66Z"/><path class="cls-1" d="M60.23,45.79s0,0,0,0Z"/><path class="cls-1" d="M59.8,46.23l-.07,0Z"/><path class="cls-1" d="M58.76,45.49Z"/><path class="cls-1" d="M60.19,45.86s0,0,0,0Z"/><path class="cls-1" d="M60.25,45.82v0S60.28,45.82,60.25,45.82Z"/><path class="cls-1" d="M60.2,45.76s0,0,0,.05l0,0Z"/><path class="cls-1" d="M52.2,43.34v0C52.18,43.39,52.18,43.38,52.2,43.34Z"/><polygon class="cls-1" points="57.05 44.86 57.06 44.86 57.06 44.85 57.05 44.86"/><path class="cls-1" d="M56.93,44.92c.13-.14.13-.11.13-.07l.23-.37Z"/><path class="cls-1" d="M54.23,43.9l0,.14c-.1.21-.13.13-.12.33.1-.47.21,0,.31-.48l0,.1s0,0,0,0c0,.24.12-.32.2-.23a.2.2,0,0,1,0,.17l.09-.1s0,.09,0,.08h.11v0c0-.07.1-.18.13-.22s0,0,0,.11l.09-.1c0,.13-.09.23-.12.2-.07.47.08-.1.12.2l-.07,0c0,.27,0,.19,0,.36,0-.09,0-.44.1-.53s0,.06.08,0c0,.16,0,.13,0,.13l-.07.21c.06-.05.09-.16.15-.25s0,.2,0,.35,0-.28.14-.3.1,0,.23-.06c0,.09-.06.13-.07.19l.1-.15s0,.06,0,.09.08-.21.15-.25c.11-.22,0,.38.14.15a1.59,1.59,0,0,1-.09.2,1.51,1.51,0,0,0,.3-.28v.16a1,1,0,0,1,.29-.46l0-.18.13-.08a.43.43,0,0,1-.1.19l0-.05a.63.63,0,0,1-.15.31l0-.14a1.88,1.88,0,0,0-.21.36.07.07,0,0,1,0,0l0,.08s0,0,.06-.07l-.08.24,0-.09,0,.18c.18-.2.41-.48.58-.5a2.67,2.67,0,0,0-.25.45c.08-.22-.13,0-.17,0s0,.13-.06.15l.2-.12c-.09.15,0,.13,0,.21.15-.32.19-.16.28-.23,0,.11-.12.2-.16.15-.07.26.28-.31.22-.09,0,0,0,0,0,0s.11,0,0,.12h0c.06.09.25.15.43-.09l-.25.34c.23-.25.47-.49.72-.73a5.32,5.32,0,0,1-.61.81s0,.09.09,0a1.55,1.55,0,0,1,.21-.33c-.11.27,0,.15-.14.39,0-.06.27-.37.29-.33s-.23.32-.26.34l.3-.25a1.51,1.51,0,0,0-.25.36c0-.06.05.06.09,0l0-.09c0,.11.42-.37.5-.28s-.35.36-.34.44a4.31,4.31,0,0,1,.9-.72l-.06.1.14,0-1,.74c0,.09-.08.11,0,.13s-.13.11-.15.1l.05.14c.16-.18.24-.12.37-.26l-.28.09c.15-.18.51-.45.56-.35a3.85,3.85,0,0,1-.35.35c.07-.05.18-.05.14,0l-.11.07c0,.1.28-.17.17,0,0,0-.17.27-.07.17a9.11,9.11,0,0,1,.9-.94,1.56,1.56,0,0,1-.17.39c-.12.18-.4.31-.5.46a.46.46,0,0,1,.14-.09c0,.05-.15.13-.1.15.18-.16.06.09.16-.12.09,0,0,.07,0,.11a1.26,1.26,0,0,1,.51-.32.68.68,0,0,0-.12.13c.05.1,0,.21.07.29s-.06.12-.15.17.11-.06.14,0c-.12.18-.07,0-.23.16.1-.08.19-.06.29-.08s0-.1-.13-.08a1.24,1.24,0,0,1,.7-.32c.12,0-.12.14-.08.13.06.15.51-.21.41,0s-.3.22-.4.31,0-.16,0-.19l0,.1c-.06,0-.13,0-.1,0-.1.12.13.24.06.43.07,0,.14,0,.19-.08l0,0c.11-.11.21-.05.25-.14s.29-.05.26.06l-.18.13c.06,0,.08-.11,0-.09.1,0-.18.25.07.13l.1-.12c.12,0,.35-.08.33,0,.16-.14,0,0,.15-.18-.24.2-.08-.16-.32.07.21-.2,0-.14.22-.33-.05,0-.1.1-.1,0l-.06,0h0l-.08.09c-.15.06-.19,0-.28,0s.08,0,.13-.09l-.13,0c.13-.09.16-.23.28-.21l0-.07c.05-.09,0-.16,0-.15s-.2,0-.08,0l-.15,0,0,0c-.07-.1-.36,0-.23-.3-.06,0-.12,0-.13-.08l.09-.1c-.07,0,0-.21-.12-.13.23-.29-.11-.25-.12-.36l-.13.12s-.11-.06-.21-.07l-.11.12c-.14,0,0-.19-.14-.24s.06,0,0,0c.14-.34-.38,0-.29-.24-.06,0-.06,0,0,0h0l0-.08a.31.31,0,0,0,0,.08.18.18,0,0,0-.11,0l.09-.14h0c0-.07-.07,0-.14.16l-.1.05c.15-.23-.12,0,0-.23-.11.1-.19,0-.38.21,0,0,0,0,0,0s0-.1-.09,0l.12-.19L57.7,44a.48.48,0,0,1,.19-.31c-.24.15-.13,0-.35.19l.08-.11s-.18.11-.13,0c.07-.27-.3-.23-.35-.54-.16.38,0-.21-.15.07,0-.09,0-.16.11-.21-.13,0-.07-.22-.25,0,0-.09.08-.12.1-.17s-.07.06-.05,0,.05-.06.08-.09-.24.23-.37.48c0-.14,0-.13-.13,0,0-.09,0-.19.1-.19s-.14-.21-.23,0c0-.06,0,0-.06,0s-.07-.06-.14-.07v0c-.13.24-.08,0-.15,0v0c-.06-.23-.08.07-.14-.2l0,.16c-.13.34,0-.24-.16-.13v.1c-.08.1,0-.5,0-.56s0,0,.05-.06c-.05-.24-.08.2-.18.23s.11-.28,0-.32-.27.32-.29.08c0,.09,0,.19-.07.24s-.08-.38-.21-.11c0,0,0,0,0-.08s-.18.08-.24.23c.08-.59-.34.22-.24-.3h-.15l0,0c-.09-.05-.14.07-.2.19a.18.18,0,0,1,0-.11c-.12-.13-.14-.11-.29.14v-.18c0,.1-.16-.31-.32-.11a.41.41,0,0,1,0-.08c-.17.2-.33-.5-.43.13l-.11.15c.13.05,0,.27,0,.38s-.11-.2-.05-.23v0c0-.33-.15-.12-.14-.35-.25,0-.49-.16-.73-.18l0,.25h-.08c0-.06,0-.2,0-.19s-.1.12-.1.18c-.12-.1,0-.3,0-.3l-.05,0,0,0c0,.11,0,.22-.11.21s0-.16-.05-.17,0,0,0,0l-.1,0,0,.2c0,.1-.09,0,0,.22-.09-.35-.39-.09-.44-.2,0,.15-.11.16-.19.14s.06.27,0,.25c0-.47-.14-.2-.24-.52.08.22-.18.08-.06.39-.06,0,0-.18-.09-.28-.1.2-.31-.07-.46,0a.85.85,0,0,1,0,.25l-.14-.29s0,.35-.06.16c0,0,0,.12,0,.14-.38-.23-.58.37-1-.09.07.1.05.12,0,.14s0,.14.07.22l-.2-.18c0,.23-.14.06-.09.27l0-.05c0,.27.25.53.33.86,0-.3.27.38.25,0,0,.06,0,.1,0,.18,0-.15,0-.18.08-.13v0c.14-.07.24.05.43.11l0-.16s.06.06.08.1c0-.25-.1,0-.12-.27.12.32.26,0,.37.32,0,0-.06-.18,0-.19l0,.1v-.14a.38.38,0,0,1,.1.23s0,0,0,0,.13-.06.15,0l-.06-.06c.13-.12.34,0,.46-.24l0-.08c.09-.16.1.07.22,0v0c0-.08,0-.12.09-.11s.08.17,0,.27c.11-.16,0-.12.11-.42l0,.13c0-.12,0-.18.08-.22s0,.19,0,.34c.15.27.17-.3.26.11,0-.37-.13-.19-.1-.27s0-.27.08-.24.1.45.21.44,0,0,0,0,.08-.12.13,0c0-.22.06,0,.06-.27l-.09.07c0-.08.09-.4.19-.24a.84.84,0,0,1,0,.17c0,.08,0-.06.08,0,0,.28-.12.07-.17.28s.11-.2.09.1c0-.38.1,0,.17-.25v.17s0-.11.06-.1l0,.21c.06-.18.11.16.16.06-.11,0,0-.2-.07-.32.15-.22.08.43.24.35,0,0-.08-.1-.05-.18a.48.48,0,0,1,.09.19c.1,0,0-.17,0-.27,0,.2.06-.08.1-.14v.17c.11.11,0-.35.15-.22l-.06.24.06-.06,0,.19c.07-.14.08-.1.14,0,0-.12,0-.31.08-.31s0,.16.05.14-.06.24-.08.08l0,.16c0,.11.1,0,.12,0a.05.05,0,0,1,0,0l.12-.23a.24.24,0,0,1,0,.17s.05-.1.08-.11a.85.85,0,0,1-.08.34l.11-.15c0,.06,0,.17,0,.22s.16-.25.22-.13a.16.16,0,0,1,0-.07c.07,0,.1.22.21,0v.25c.07,0,0-.32.1-.39s0,.21,0,.28c.06-.12.17-.35.21-.15C54.26,43.93,54.25,43.89,54.23,43.9ZM55,44s-.09.13-.07,0S55,43.92,55,44Zm1.31.06c0,.05,0,0,0,0S56.34,44,56.34,44ZM60,45.63h0C60,45.56,60,45.59,60,45.63Zm0,.12a.09.09,0,0,0,.06,0s0,0,0,0S59.91,45.75,60,45.75Zm-8-3.55v0S51.9,42.25,51.91,42.2Z"/><path class="cls-1" d="M56.11,44.2l0-.09A.12.12,0,0,0,56.11,44.2Z"/><polygon class="cls-1" points="53.73 43.91 53.72 43.91 53.72 43.94 53.73 43.91"/><path class="cls-1" d="M58.07,45.71l0-.08A.15.15,0,0,0,58.07,45.71Z"/><path class="cls-1" d="M60.44,46l-.07,0s0,0,0,.07S60.42,46,60.44,46Z"/><path class="cls-1" d="M59.79,46.91h0l.07,0S59.8,46.87,59.79,46.91Z"/><path class="cls-1" d="M60,46.32c-.12.08-.06.08,0,.1h0C60.14,46.32,60.07,46.32,60,46.32Z"/><path class="cls-1" d="M60,46.42s0,0,0,0S60,46.43,60,46.42Z"/><path class="cls-1" d="M60.09,45.79s.15-.1.11-.06C60.36,45.65,60,45.75,60.09,45.79Z"/><polygon class="cls-1" points="59.61 46.59 59.75 46.49 59.62 46.55 59.61 46.59"/><path class="cls-1" d="M59.57,46.29v.07a.07.07,0,0,1,.06,0S59.61,46.26,59.57,46.29Z"/><path class="cls-1" d="M59.62,46.34s0,0,.05,0Z"/><polygon class="cls-1" points="59.52 46.56 59.55 46.52 59.54 46.48 59.52 46.56"/><path class="cls-1" d="M59.24,45.76l-.08,0s-.07.07,0,.08A.27.27,0,0,0,59.24,45.76Z"/><path class="cls-1" d="M59,46.19l.09-.1-.18.13Z"/><path class="cls-1" d="M58.83,46.09c-.06,0-.2,0-.14.09S58.82,46.16,58.83,46.09Z"/><polygon class="cls-1" points="58.44 45.23 58.45 45.24 58.7 44.99 58.44 45.23"/><path class="cls-1" d="M57.29,45.36c0,.11.15-.16.13,0,.07-.06,0-.1.08-.15C57.41,45.22,57.43,45.17,57.29,45.36Z"/><path class="cls-1" d="M57.5,45.17l0,0Z"/><path class="cls-1" d="M48.86,42.53l-.08-.06.07.11Z"/><path class="cls-1" d="M48.84,42.81l-.09-.21,0,.21S48.81,42.77,48.84,42.81Z"/><path class="cls-1" d="M55,44.45l0-.05c0-.06,0-.06,0-.08Z"/><polygon class="cls-1" points="54.52 44.14 54.53 44.15 54.55 43.94 54.52 44.14"/><path class="cls-1" d="M54,44.31s0,0,.06,0S54,44.06,54,44.31Z"/><path class="cls-1" d="M84.51,56.54s0-.13,0-.16S84.5,56.58,84.51,56.54Z"/><polygon class="cls-1" points="84.22 56.87 84.22 56.81 84.18 56.96 84.22 56.87"/><path class="cls-1" d="M84,56.87c0,.25.09,0,.13.05v0l0-.2S84,56.94,84,56.87Z"/><path class="cls-1" d="M83.83,56.33c0,.09,0,.08,0,0v0Z"/><path class="cls-1" d="M83.86,56.33s0-.08,0,0Z"/><path class="cls-1" d="M83.73,56.39l0-.09c0-.06,0-.07,0-.11S83.71,56.29,83.73,56.39Z"/><path class="cls-1" d="M83.7,56.57l0,0S83.71,56.5,83.7,56.57Z"/><path class="cls-1" d="M83.76,56.45l0,.08s0,.12,0,0C83.74,56.58,83.74,56.51,83.76,56.45Z"/><path class="cls-1" d="M83.78,56.49c0,.06,0,.09,0,.18S83.85,56.46,83.78,56.49Z"/><path class="cls-1" d="M84,57.13l0,.07,0-.08S84,57.05,84,57.13Z"/><path class="cls-1" d="M83.5,56.26c0,.05,0,.14,0,.21l0-.06A.37.37,0,0,1,83.5,56.26Z"/><path class="cls-1" d="M83.52,56.47l0,.09S83.53,56.52,83.52,56.47Z"/><polygon class="cls-1" points="83.7 56.85 83.76 56.66 83.69 56.85 83.7 56.85"/><polygon class="cls-1" points="83.34 56.25 83.36 56.13 83.33 56.31 83.34 56.25"/><path class="cls-1" d="M83.24,56.28c0-.11,0-.17,0-.24a.57.57,0,0,0-.07.2C83.17,56.19,83.2,56.2,83.24,56.28Z"/><path class="cls-1" d="M83.13,56.36a.37.37,0,0,0,0-.12A.29.29,0,0,0,83.13,56.36Z"/><path class="cls-1" d="M83.42,56.53a.28.28,0,0,0,0-.15l0,.15Z"/><path class="cls-1" d="M83.41,56.53h0Z"/><path class="cls-1" d="M83.42,56.53Z"/><path class="cls-1" d="M83.6,56.71a.43.43,0,0,0,0,.3A1.58,1.58,0,0,1,83.6,56.71Z"/><path class="cls-1" d="M83.45,56.72l0,0a.32.32,0,0,1,0-.14Z"/><polygon class="cls-1" points="83.44 56.77 83.45 56.72 83.44 56.71 83.44 56.77"/><path class="cls-1" d="M83.22,56.49a.17.17,0,0,1-.06.09.13.13,0,0,0,.08,0S83.24,56.48,83.22,56.49Z"/><path class="cls-1" d="M83.31,56.52Z"/><polygon class="cls-1" points="82.94 56.61 82.94 56.63 82.94 56.61 82.94 56.61"/><path class="cls-1" d="M83.24,56.64s0,0,0-.06l0,0Z"/><path class="cls-1" d="M83.07,56.44a.43.43,0,0,0,0,.07S83.07,56.4,83.07,56.44Z"/><path class="cls-1" d="M83.3,56.48Z"/><path class="cls-1" d="M83.3,56.48a.25.25,0,0,0,0,.1l0-.06Z"/><path class="cls-1" d="M83,57.57c0-.14,0-.27.07-.13a3.18,3.18,0,0,0-.13-.8.35.35,0,0,1,0,.2c0,.07.11.16.09.29s0,0-.08-.11c0,.17,0,.26,0,.51l0-.1A.61.61,0,0,0,83,57.57Z"/><path class="cls-1" d="M83,56.64l0,0a.83.83,0,0,1-.08-.18.56.56,0,0,0,0,.17H83Z"/><path class="cls-1" d="M83.12,56.6a1.28,1.28,0,0,0,0,.39s0-.13,0-.2,0-.09,0-.17,0,0,0,0l0-.07h0v0h0v.05s0,0,0-.05v0h0l-.07.1S83.08,56.63,83.12,56.6Z"/><path class="cls-1" d="M83.56,57.33v0S83.55,57.33,83.56,57.33Z"/><path class="cls-1" d="M83.52,57.24s0-.08,0-.06,0,.07,0,.12a.22.22,0,0,0,0-.18v0a.63.63,0,0,1-.08-.26C83.49,57,83.5,57.11,83.52,57.24Z"/><path class="cls-1" d="M83.33,57l-.06.08,0,.13v-.08S83.33,57,83.33,57Z"/><polygon class="cls-1" points="82.92 56.54 82.91 56.38 82.9 56.61 82.92 56.54"/><polygon class="cls-1" points="82.83 56.57 82.81 56.43 82.8 56.52 82.83 56.57"/><path class="cls-1" d="M80.3,60.3l0,0Z"/><path class="cls-1" d="M80.35,60.2l-.06,0Z"/><path class="cls-1" d="M80.7,57.34c-.1-.09-.24-.24-.15-.11l.09.12S80.67,57.32,80.7,57.34Z"/><path class="cls-1" d="M80.21,59l0,0-.1-.1Z"/><path class="cls-1" d="M80.69,59.38l-.1,0Z"/><path class="cls-1" d="M80.22,60.91l.14.07S80.29,60.94,80.22,60.91Z"/><path class="cls-1" d="M81.93,56.82s-.07-.06-.09-.06S82,57,81.93,56.82Z"/><path class="cls-1" d="M78.87,59.54a.13.13,0,0,0,.07.06A.22.22,0,0,0,78.87,59.54Z"/><path class="cls-1" d="M81.77,56.78l0,0s0-.05,0-.05S81.76,56.67,81.77,56.78Z"/><path class="cls-1" d="M79.7,63.11h0Z"/><path class="cls-1" d="M78.16,63.84a0,0,0,0,1,0,0S78.14,63.82,78.16,63.84Z"/><path class="cls-1" d="M82.46,56.56s0,0,0,0Z"/><path class="cls-1" d="M82.66,57.14a.23.23,0,0,0,0,.07A.26.26,0,0,1,82.66,57.14Z"/><path class="cls-1" d="M81.92,57.73Z"/><path class="cls-1" d="M82.5,56.62s0,0,0,0Z"/><path class="cls-1" d="M82.48,56.55l0,0S82.49,56.53,82.48,56.55Z"/><path class="cls-1" d="M82.43,56.57h0v0Z"/><path class="cls-1" d="M79.43,61.81h0C79.48,61.83,79.47,61.83,79.43,61.81Z"/><polygon class="cls-1" points="81.25 58.88 81.25 58.87 81.24 58.87 81.25 58.88"/><path class="cls-1" d="M81.28,59c-.1-.16-.08-.15,0-.13L81,58.54Z"/><path class="cls-1" d="M80.23,60.56l.14,0c.19.13.11.12.3.17-.44-.19,0-.14-.43-.34l.1,0s0,0,0,0c.23.06-.29-.17-.21-.2a.22.22,0,0,1,.16,0l-.09-.1s.08,0,.07,0v-.08h0L80.1,60c.07,0,0,0,.1.06L80.12,60c.11,0,.2.13.17.14.44.19-.08-.08.2,0l0,.06c.25.11.18,0,.34.1a2.45,2.45,0,0,1-.49-.24s.06,0,0-.06c.15.08.12,0,.13,0l.19.12a1.06,1.06,0,0,0-.22-.18s.19.07.32.14-.26-.12-.26-.2,0-.06-.06-.18c.08,0,.11.08.17.1l-.13-.12.07.05c0-.06-.18-.13-.21-.2-.19-.15.34.15.15,0a1.29,1.29,0,0,1,.17.13,1.62,1.62,0,0,0-.23-.31l.14.05a1.22,1.22,0,0,1-.38-.37l-.16-.09,0-.13a.57.57,0,0,1,.15.14l0,0a1,1,0,0,1,.25.22L80.25,59a2.81,2.81,0,0,0,.31.29l0-.05.07.06s0,0,0-.07l.2.15-.08-.07.17.05a2.15,2.15,0,0,1-.41-.64,3.2,3.2,0,0,0,.37.36c-.19-.15,0,.12,0,.12s.11.07.13.1l-.1-.2c.13.12.11.08.17.11-.26-.23-.12-.2-.17-.29.08.08.16.17.11.17.22.16-.24-.33,0-.2,0,0,0,0,0,0s.05-.07.11,0h0c.08,0,.15-.12,0-.36l.26.33c-.19-.28-.37-.56-.54-.86a9.53,9.53,0,0,1,.61.81s.07,0,0,0a2.21,2.21,0,0,1-.25-.3c.2.19.11.1.29.26a1.52,1.52,0,0,1-.24-.37c0,.05.24.32.25.35l-.17-.35a1.89,1.89,0,0,0,.26.36c-.05-.06,0,0,0-.06l-.07-.06c.09,0-.25-.5-.17-.52a2.64,2.64,0,0,0,.31.46,5.45,5.45,0,0,1-.45-1l.07.09v-.15l.44,1.12c.07.07.08.12.1.09s.07.15.06.16l.11,0c-.12-.2-.07-.24-.16-.41l0,.26c-.13-.2-.28-.61-.2-.61s.18.38.22.45,0-.17,0-.12l0,.12c.07.07-.09-.3,0-.12,0,0,.17.25.11.12s-.5-1-.57-1.17a2.64,2.64,0,0,1,.27.31c.11.19.17.47.26.63l0-.16s.08.18.1.15c-.09-.22.07,0-.07-.19s.06,0,.09,0a1.91,1.91,0,0,1-.15-.58.79.79,0,0,0,.08.16c.08,0,.15.08.22.06s.08.11.1.21a.31.31,0,0,1,0-.13c.1.18,0,0,.07.27a.7.7,0,0,1,0-.29c-.07-.21-.08,0-.08.07a1.52,1.52,0,0,1-.09-.75c0-.09.08.17.07.13s0-.54.13-.35a3.3,3.3,0,0,1,.13.49c0,.08-.11-.1-.14-.08l.06.07c0,.07,0,.13,0,.08.07.14.2,0,.32.13a.5.5,0,0,0,0-.21l0,0c0-.14,0-.21,0-.27s0-.29.11-.21l0,.21c0-.06,0-.12-.06-.06,0-.09.14.28.11,0L82.71,57c0-.12,0-.35.1-.29-.06-.21,0,0-.09-.21.08.29-.14,0,0,.32-.09-.28-.09-.11-.18-.35,0,.07,0,.13,0,.11v.06h0a.37.37,0,0,1,0,.11c0,.16-.06.17-.07.25s0-.08,0-.15V57c0-.16-.13-.25-.09-.35h0c-.06-.08-.11-.11-.12,0s0,.19,0,.06l-.06.13v0c-.09,0-.09.31-.28.07,0,0,0,.11-.09.08l-.06-.12s-.16-.09-.12,0c-.18-.33-.22,0-.31,0l.07.16s-.07.07-.09.16l.07.14c0,.14-.16,0-.22,0s0,0,0,0c-.26-.27,0,.32-.25.14,0,.06,0,0,0,0h0l-.07-.06.06.06a.14.14,0,0,0,0,.09l-.1-.14h0c-.06,0,0,.08.1.18l0,.1c-.17-.22,0,.11-.19-.12.07.13,0,.15.13.4,0,0,0,0,0-.05s-.07,0,0,.06l-.14-.16.13.26a.75.75,0,0,1-.24-.28c.1.25,0,.12.12.36L80.41,58s.08.19,0,.11-.23.15-.51.08c.31.26-.19-.08,0,.15-.07-.06-.13-.08-.17-.16,0,.12-.19,0,0,.21-.08-.06-.1-.11-.15-.14s0,.07,0,0,0-.06-.08-.1.19.28.4.46c-.13-.06-.13,0,0,.11-.08,0-.17-.09-.16-.15s-.21,0,0,.18c0,0,0,0,0,0s-.06,0-.08.09h0c.21.17,0,.07,0,.12h0c-.23,0,0,.08-.19.05l.14.08c.3.21-.22,0-.13.09l.09,0c.09.09-.47-.17-.52-.16s0,0-.06-.06c-.23,0,.19.12.2.2s-.25-.16-.3-.13.27.3,0,.24a.51.51,0,0,1,.22.12c0,.06-.37,0-.13.12l-.07,0c.06.07.07.16.2.24-.54-.21.18.31-.31.1l0,.11,0,0c-.06.06,0,.13.16.19,0,0-.08,0-.1,0s-.13.07.09.24l-.16-.05c.09.05-.3.05-.14.2l-.07,0c.16.16-.54.12.06.33l.12.11c.08-.07.27.09.38.08s-.21,0-.23,0h0c-.31-.1-.14.07-.36,0,0,.18-.24.31-.29.48l.26,0,0,.05c-.06,0-.2,0-.18-.05-.15,0,.11.09.16.1-.12.06-.29-.09-.3-.06v0h0c.1.05.21.07.19.12s-.16,0-.17,0,0,0,0,0l0,.07h.2c.1,0,0,.07.21.07-.35,0-.16.25-.27.27.14.06.13.1.1.16s.27,0,.24,0c-.46-.07-.21.06-.55.07.23,0,0,.14.37.12,0,0-.18,0-.29,0,.17.11-.14.21-.08.33a1.1,1.1,0,0,1,.24,0l-.3,0s.35,0,.13.07c.06,0,.13,0,.15,0-.31.23.24.46-.32.72.12,0,.13,0,.14,0a.76.76,0,0,1,.23,0l-.22.11c.23,0,0,.11.24.1l0,0a9,9,0,0,0,.91-.1c-.3,0,.43-.12,0-.18.06,0,.1,0,.18,0-.14,0-.17,0-.11-.07h0c0-.1.1-.15.2-.27h-.17s.08,0,.12,0c-.25,0,0,.07-.29,0,.33,0,0-.19.39-.2,0,0-.19,0-.19,0h.11l-.14,0a.74.74,0,0,1,.24,0s0,0,0,0,0-.1,0-.11l-.07,0c-.09-.12.06-.23-.14-.36h-.08c-.14-.09.09,0,0-.15h0c-.08,0-.12-.06-.11-.08s.19,0,.28,0c-.14-.11-.11-.06-.39-.15h.13c-.12,0-.18,0-.2-.09s.2,0,.34.06-.27-.18.15-.16c-.35-.1-.21,0-.28,0s-.26-.07-.22-.1.46,0,.46,0,0,0,0,0-.11-.08,0-.08c-.21-.06,0,0-.25-.1l0,.08c-.07-.05-.37-.15-.21-.18a.59.59,0,0,1,.16.07c.09,0,0-.05,0-.05.27.05,0,.09.24.17s-.18-.11.11,0c-.36-.1.07-.06-.21-.16l.16,0-.09,0,.21.06c-.17-.07.17,0,.08-.09s-.2,0-.32,0c-.2-.15.43,0,.38-.09,0,0-.11,0-.18,0a.34.34,0,0,1,.19,0c0-.08-.17,0-.26-.08.2,0-.07-.06-.13-.11l.17,0c.12-.06-.34-.11-.19-.15l.21.09,0-.06.18.06c-.13-.08-.09-.08,0-.1-.12,0-.3-.09-.29-.13s.15.06.14,0,.22.09.07.07l.15.06c.12,0,0-.06,0-.07h0l-.2-.14a.76.76,0,0,1,.16.06s-.09-.05-.1-.08a1.24,1.24,0,0,1,.32.14l-.12-.11a.78.78,0,0,1,.21,0c.09,0-.23-.18-.11-.19a.15.15,0,0,1-.06,0s.21,0,.06-.13l.24.06c0-.06-.3-.08-.36-.18s.2.06.27.07c-.1-.06-.32-.21-.12-.17C80.26,60.54,80.22,60.54,80.23,60.56Zm.14-.53s.11.1,0,.06S80.31,60,80.37,60Zm.14-.92s0,0-.05,0S80.47,59.09,80.51,59.11Zm1.77-2.38h0C82.23,56.68,82.25,56.7,82.28,56.73Zm.08.06a.19.19,0,0,0,0-.07s0,.05,0,0S82.35,56.83,82.36,56.79Zm-4.08,5h0S78.33,61.8,78.28,61.79Z"/><path class="cls-1" d="M80.63,59.33l-.07,0A.18.18,0,0,0,80.63,59.33Z"/><polygon class="cls-1" points="80.19 60.9 80.19 60.9 80.22 60.91 80.19 60.9"/><path class="cls-1" d="M82,58.42l-.06-.08A.18.18,0,0,0,82,58.42Z"/><path class="cls-1" d="M82.64,56.45l0,0s0,0,0,0S82.63,56.46,82.64,56.45Z"/><path class="cls-1" d="M83.13,57.44s0,0,0,0v-.08A.09.09,0,0,0,83.13,57.44Z"/><path class="cls-1" d="M82.77,57c0,.14,0,.09.07.06h0C82.81,56.86,82.79,56.93,82.77,57Z"/><path class="cls-1" d="M82.84,57.05h0C82.86,57,82.86,57,82.84,57.05Z"/><path class="cls-1" d="M82.42,56.69s0-.18,0-.13C82.38,56.38,82.36,56.79,82.42,56.69Z"/><polygon class="cls-1" points="82.87 57.46 82.83 57.29 82.84 57.43 82.87 57.46"/><path class="cls-1" d="M82.65,57.36l0,0s0,0,0-.06S82.64,57.31,82.65,57.36Z"/><path class="cls-1" d="M82.7,57.35s0,0,0,0S82.7,57.32,82.7,57.35Z"/><polygon class="cls-1" points="82.83 57.52 82.81 57.49 82.78 57.48 82.83 57.52"/><path class="cls-1" d="M82.21,57.43l0,.07s0,.09,0,.06A.3.3,0,0,0,82.21,57.43Z"/><path class="cls-1" d="M82.46,57.85a.73.73,0,0,1,0-.12l0,.21Z"/><path class="cls-1" d="M82.36,57.94c0,.06,0,.19,0,.16S82.41,58,82.36,57.94Z"/><polygon class="cls-1" points="81.67 57.89 81.68 57.89 81.53 57.56 81.67 57.89"/><path class="cls-1" d="M81.64,58.89c.08.06-.11-.19,0-.11,0-.08-.07-.06-.1-.13C81.54,58.74,81.51,58.7,81.64,58.89Z"/><path class="cls-1" d="M81.52,58.65l0,0S81.51,58.64,81.52,58.65Z"/><polygon class="cls-1" points="77.97 63.99 77.9 64.03 78.02 64 77.97 63.99"/><path class="cls-1" d="M78.24,64.05l-.22,0h.2S78.19,64.06,78.24,64.05Z"/><path class="cls-1" d="M80.8,60.19l0,0c-.05,0-.06,0-.08,0Z"/><polygon class="cls-1" points="80.48 60.43 80.49 60.42 80.3 60.35 80.48 60.43"/><path class="cls-1" d="M80.6,60.81s0,0,0,0S80.36,60.72,80.6,60.81Z"/></svg>