<svg xmlns="http://www.w3.org/2000/svg" viewBox="0 0 100 100"><defs><style>.cls-1{fill:#fff;}</style></defs><title>Artboard 1</title><g id="Layer_2" data-name="Layer 2"><path class="cls-1" d="M53.19,15.63l.66,0A3.35,3.35,0,0,0,53.19,15.63Z"/><path class="cls-1" d="M52.6,15.43h0Z"/><path class="cls-1" d="M5.87,34.82c.09-.26.18-.48.21-.6A2,2,0,0,0,5.87,34.82Z"/><path class="cls-1" d="M21.11,69.71a.1.1,0,0,0,0,0C21.06,69.72,21.07,69.75,21.11,69.71Z"/><path class="cls-1" d="M60.91,16.3l-.29-.06C60.55,16.28,60.83,16.32,60.91,16.3Z"/><path class="cls-1" d="M12.46,26.06a.19.19,0,0,0,0-.09A.13.13,0,0,0,12.46,26.06Z"/><path class="cls-1" d="M82.48,25.6l.24.14A1.23,1.23,0,0,0,82.48,25.6Z"/><path class="cls-1" d="M14.5,75.62a.88.88,0,0,0,0,.27C14.51,75.74,14.53,75.62,14.5,75.62Z"/><path class="cls-1" d="M14.93,75.94c.64-1.92-.44.28-.47,0-.17.51-.64,1.56-.32,1.11a3.64,3.64,0,0,0-.47.84L13,79.55a35.62,35.62,0,0,1-1.66,4s.63-1.17.18.13a23.14,23.14,0,0,1-1.44,3c-.11.5-1.27,3.46-1.23,3.26-.21.59.11,0,.41-.45s.56-.89.35-.21v0a18.22,18.22,0,0,1,1.95-1.32c.61-.36,1.23-.71,1.87-1.14,1.34-.65-1.61,1.12-2.38,1.68l4.43-2.85c1.22-.62-.69.67-2,1.46.82-.43,1.88-1.08,2.76-1.66a14.69,14.69,0,0,0,1.82-1.36l1.35-.81a9.77,9.77,0,0,1,.91-.5,2.49,2.49,0,0,0-.55.63,2.74,2.74,0,0,1-.48.45c-.24.19-.56.42-1,.71-1.47.9-1.19.66-.88.39s.66-.55-.51.14l-.24.36c-1,.5-1.89,1.21-3.06,1.94-.59.31.21-.2.64-.5-2.06,1.29-3.43,2-5.39,3.47,1.23-.66,3.07-1.81,4.65-2.79a37.52,37.52,0,0,1,3.56-2.1l2.78-1.86,1.55-1.11c-.05-.06-1.25.51-.42-.15A10.26,10.26,0,0,0,23.78,81c-.63.11,1.82-1.38,1-1.12a2,2,0,0,1-1,.51c1.17-.73,0-.24.63-.65,2.17-1.28,0,.15,2.22-1.1a22,22,0,0,1-2.42,2c.17,0,1.19-.75,1.8-1-.82.36.3-.44-.32-.12,1.65-1.14,3.4-2.5,5.39-3.79.09.35-3.21,2.29-2.14,2.11,1-.68.81-.76,1.67-1.26a30.83,30.83,0,0,0,3.88-2.37l-.76.35a6,6,0,0,1,.71-.49,2.76,2.76,0,0,1,.35-.17v0l.08-.12a0,0,0,0,1,.05,0,.37.37,0,0,1,.18-.17h0s.08,0,.11,0l.87.21c.41.09.83.17,1.21.23,0-.16-1.42-.3-2-.45a.31.31,0,0,0-.1-.08s-.15-.08-.15-.11h0s0,0,0-.09h0s0,0,0,0l.16,0,.79.14,1,.15c.7.1,1.44.2,2.32.35l-.61-.16a23.89,23.89,0,0,1,2.39.32c1.67.35-1.27.06-.26.3-.69.06-1.82-.31-2-.13l1,.41c.91,0,1.87.35,2.51.39L41.75,75c.16-.16.77,0,1.08.11l-.42-.31a14,14,0,0,1-2.36-.3c1.74.17,1.37-.08,3.46.15.08.11-.41,0-.63,0,.71.16,1.48,0,2.63.19-.67,0-1.75,0-.91.24l.64-.15c.53.08.31.14.53.16.76.09-.17-.22,1-.09.18.05.58.11.4.15a9.67,9.67,0,0,0,2-.1c-1.16,0-1.19-.33,0-.33a29.49,29.49,0,0,1,4,.08L54,74.7c-.48.21,1.07,0,1.61,0,.19.21-2.54.12-2.53.47,1.12,0,.64.1.28.21,1.21-.09.44-.26,1-.43,0,.1,2.06-.1,1.36.13,1-.07,1.18-.3,1.94-.33-.1.1-.22.21-.14.31A8.7,8.7,0,0,1,58.7,75c-.18,0,.34-.21-.55,0,.21-.19,2.1-.25,2-.4A14,14,0,0,0,63,74.15c-.17-.41-1.69.48-2.07.15A55.88,55.88,0,0,0,67,72.86c1.7-.36,0,.16.42.23-1.54.49-2,.41-3.32.8a24.75,24.75,0,0,0,5-1.35c1.59-.5,1.91-.12,3.79-.91a1.53,1.53,0,0,0-.88.08c.49-.21,1.1-.41,1.65-.61.3-.21-.89.22-.16-.14.31-.09.94-.31.85-.18l-.12.07C76,70,75.7,70.64,77.1,69.68c-.16,0-.45.23-.83.36s.54-.55,1.21-.92c-.08.15.62-.27,1.11-.49.4,0-1.18.66-1.39.86.46-.21.91-.41,1.35-.64l-.29.12,1.37-.89c-1,.57-.58.08-.15-.17,1-.52,2-1.06,2-.84,0-.24,1.22-.94,2-1.56-.92.56-.19-.05,0-.28.48-.25,1-.51,1.41-.8-1.33,1.08.39-.09.14.26a7.27,7.27,0,0,1-2,1.47c1.66-.73,1.94-1.58,3.23-2.42,0,.06,0,.24-.53.64.26-.11,1-1,1.84-1.64-.24.14-.79.42-.07-.34l1.14-.79c1.14-1.12.23-.54,1.06-1.56-.22.19-.47.35-.7.52,0-.2,1.19-1.3,1.06-1.47a12.74,12.74,0,0,1-1.35,1.62c-.37.09.68-.83.9-1.29,1.22-1.25,1-1,1.9-1.94.27.14-1,2-.57,2,1.11-1.37,2.41-3.56,3.06-4.54.64-1.46.35-1.42.09-1.3a9.89,9.89,0,0,1,.59-1.24l-.2.72a29.46,29.46,0,0,0,1.35-4.88c.16-1.13-.1-.71-.29-.47.07-.4.1-.8.14-1.21l-.06.18a1.78,1.78,0,0,1,0-.88l.07-1.27c.08,0,.08.49.14.45a7.84,7.84,0,0,0-.07-2.39c.09,0,.3.48.27,1.35,0,.09,0,0-.06.13L96,45.58c0-1.68.09-2.69.31-2.66-.22-1.69-.1,1.38-.33-.62a8.75,8.75,0,0,0-.12-1.93,11,11,0,0,0-.39-1.73c-.13-.54-.3-1-.43-1.49a7.09,7.09,0,0,1-.21-1.28c-.58-1.11-1.42-2.33-2.46-3.93-.14.1-.77-1-.84-.73.87,1.56,2.09,2.69,2.44,4.15.39.71.41.41.64.71a3.43,3.43,0,0,1,.42,1.45c-.66-1.55-.5-.3-1.33-2.23,0,.3.7,1.84.88,2.58-.16-.19-.15.05-.08.53-.29-.46-.77-1.54-1.14-2,.16.17.05-.21.16-.07-.34-.63-.74-1.22-1.13-1.81-.21-.63-.22-.83,0-.58-.54-1.07-1.87-2.58-1.69-2.73-1-1.18.2.47.18.64l-.08-.11c.3.45.63.88.91,1.33-.13.3-1-1.56-1.34-1.6s-.6-.4-.94-1a7.93,7.93,0,0,0-1.18-1.65c.41.22.78.47,1.16.72-.27-.27-.53-.55-.82-.8.56.37.74.22,1.53.88A26.32,26.32,0,0,0,86.8,26c-.22-.35-.28-.56,0-.54-1.39-.87-1.88-1.7-3-2.51s1.11,1,.11.54a6,6,0,0,0-1.37-.92,17.24,17.24,0,0,1,2.44,1.89c-.64-.49-.68-.28-.9-.36L85,25c-.21.14-1.3-1-1.89-1.22.44.05.27-.08.71,0-1-.61-2.43-1.55-3.22-2.15-.46-.36.48.14.77.27-.15-.28-1-.52-1.15-.78.22,0,.63.34,1,.51-1-.59-2-1.17-3-1.7a3.91,3.91,0,0,1,1.27.57,7.19,7.19,0,0,0-2.79-1.14c-1-.59-2.21-1.19-1.79-1.16-.52-.16-.22.05-.25.13a17.09,17.09,0,0,0-2.58-.73l.61.4c-1.36-.68-.42.12-1.63-.43.26-.09.24-.29.08-.53-.26.08-1-.34-1.58-.49.3.26-1.23-.22-.38.21a19.93,19.93,0,0,0-2.85-.66c.58.19-1.16-.11-.67.13-1.25-.27-2.07-.65-1.7-.75.44.11,1.12.34,1.1.19-.77-.17-1.54-.31-2.31-.44-.55-.19-1.29-.36-1.35-.55-.78.09-2.18-.49-2.79-.29a4.12,4.12,0,0,1,1.7.31l-.36,0,.19,0-1,.19c.95.24.2-.2,1.56,0,.57.24-.12.25-.79.25s-1.34,0-.74.19c1,.22.85-.08,1.69-.07l-.21,0c.63.06,1.26.1,1.89.19.07.12-.51.09-.51.09A50.27,50.27,0,0,1,67,16.77c-.16-.09-.55-.52.53-.29.79.12.82.34,1.45.55a3.68,3.68,0,0,1-1.25-.26l0,.22c-1.85-.19-1,.21-3.39-.25a14.57,14.57,0,0,1-3.23-.4l.62.24c-1.41.07-.23-.26-2-.3-.69-.39-2-.88-1-1a22.16,22.16,0,0,0-2.84-.2c-.68-.29.37-.23.26-.48-.84-.05-1.91,0-1.29.17l-1.58-.17c0-.06.52,0,.75,0a7.77,7.77,0,0,0-2.16.08,3.27,3.27,0,0,1,.7,0,16.1,16.1,0,0,0-1.93.22c1-.11,1,.17,2.06,0a1.08,1.08,0,0,1-.79.15,10.82,10.82,0,0,1,2,.34,2.52,2.52,0,0,0-1.29,0,16.37,16.37,0,0,0,2.29,0c.08.26,2.43.15,1.59.35a4,4,0,0,1,1.51.11c-.05.11-1.26.05-1.79.15-2.42-.07.06-.19-.5-.33s-1.23-.06-1.85-.09c.19.05-.74.15.46.2a8.27,8.27,0,0,1-2.68.06c-.22.08.48.08.69.09-.22.07-1.38.34.12.41-.43,0,.73-.12,0-.22.61,0,2.23.19,1.58.3.73,0,2.1,0,2.7,0,.16.13-.51,0-.82,0,.7,0,1.4.06,2.1.13l-.58-.21a32.57,32.57,0,0,0,3.79.18c-.2.19-1.23,0-2.05,0,.74.36.53-.06,1.8.17.17.06.2.12.11.17.35,0,.69,0,1,0s.12.1,0,.08c1.77.11,0-.33,2.35.06-1.37-.42-1.22-.09-2.39-.34-.66-.28,1.4,0,1.77,0a11.86,11.86,0,0,0,2.65.83c-1-.15-.09.16-1.52-.15-.82-.07.4.19.54.35.38.05-.19-.3.84,0l0,0c.58.07,1.18.13,1.76.22,1.54.57,3.63.86,4.59,1.52l-.17-.3c1,.33,2.34.91,3,1.17A5.87,5.87,0,0,1,73.92,20c1.7.74,3.22,1.35,4.42,1.77a16.84,16.84,0,0,0-1.59-1.1c1.23.25,1.2.81,2.64,1.43-.07.21-.5-.07-.27.31a24.69,24.69,0,0,1,2.24,1.05c.21.4-.45.15-1.83-.62-1-.78-2.29-1.1-3.11-1.69l.49.39a26,26,0,0,0-2.75-1.11h-.5l.51.22a16,16,0,0,1-1.86-.4,7.51,7.51,0,0,0,2.66.47c1.41.66,1.78,1.26,2.76,1.58,0,.13.73.62.08.39s-1.24-.74-1.38-.63c.79.39.45.32,1.66.92a7.31,7.31,0,0,1,2.21.65A15,15,0,0,1,83,25.31c-.86-.57-1.8-1-1.67-.72.61.16,1.54,1.26,1.46.86.47.36,1.1.84,1.59,1.28s.85.83.82,1c-.89-.66-1.65-1.43-2.43-2,.2.16.36.36.21.31-.36-.29-.74-.54-1.11-.82a14.67,14.67,0,0,0,1.65,1.42c0-.07-.16-.2-.06-.13.27.19.6.46.85.67l-.11.2a41.83,41.83,0,0,1,3.37,3.24l-.14-.09c.9,1.1,1.32.91,2.29,2.14-.34-.31-.3-.08-.34,0a5.53,5.53,0,0,1,1,1.69c-.34-.83.51.4.24-.19.08-.08.33.23.61.64s.52,1,.68,1.34c0,.54-1.28-2.16-1-1,.34.72.57.83.36.3a10.18,10.18,0,0,1,1,3.07c.55,1.06.56,1.55,1,2.24a10.49,10.49,0,0,1-.43-1.41c.14.26.3.53.42.8a13.37,13.37,0,0,1,.2,2.87c0-.27-.1-.54-.16-.82l0,0a3.63,3.63,0,0,1-.16-.78c-.07-.29-.15-.51-.21-.44a2.59,2.59,0,0,1,.24,1.05c0,.36.08.75.15,1.24l0,0c.24,1.75-.39,3-.19,4.09.07-.31.3-.92.35-.71-.14.39-.33,1.45-.43,1.39l0-.36c-.22,1-.44,1.52-.49,1.88s.24.07.08.79c-.68,1.64-.08-.79-.59.3q-.24.78-.51,1.56l-.28.26c-1.23,2.09-2,3.92-3.79,5.92-.18-.12,1-1.61,1.38-2.15-.64.52-1.19,1.6-2.07,2.29-.72.73-1.19,1.37-1,1.36-.88.94-.76.51-.91.6a3.62,3.62,0,0,1-.88,1l-1.4,1.11-.11-.09L81.2,63.65c.36-.23.11.09.16.16L81,64c1.56-.58,2.82-2.27,4.31-3-.35.37.21,0-.14.35s-.41.31-.48.29c-.12.25-.58.77.1.18.16.26-1.28,1.34-2.26,2.11-.92.41.7-.79,1-1.23a5.89,5.89,0,0,1-1.2,1v-.28c-1.32,1.07-.27.42-.47.82s-1.31.82-1.69,1.09l.4-.32c-1.18.61-1.32,1-2.39,1.51l-.58.11c1.45-.5,1.46-1.15,2.26-1.47-2,.9.2-.6.64-1.13a7.5,7.5,0,0,1-2,1.07c-1,.91-2.54,1.22-3.58,2.07-.68.25.51-.4-.19-.1-1.29.54-2.64,1.13-4,1.73-.73.24-.64.1-.87.08-1.77.52-3,.93-4.25,1.36A25.18,25.18,0,0,1,61,71.25l.57-.21a6.62,6.62,0,0,0-2,.4,7.73,7.73,0,0,0-2.39.21,8.14,8.14,0,0,1-2.61.11c-1.79,0-1.86.34-3.28.42,0-.09.43-.25-.31-.28a58.88,58.88,0,0,1-13.77-1.16,1.68,1.68,0,0,1,.43,0l-1-.22-1.34-.29-.55,1.36h0L34,70.7l-.1-.12,0,0,0,0-.15.09-.28.19a1.9,1.9,0,0,0-.47.4l-.39.4L31,73.2c-1.08.64-2.14,1.26-3.17,1.8-.4.26-1.66,1-1.15.87s.76-.27.81-.2c-2,1.29-1.22.47-2.57,1.3-.63.1.75-.6.58-.72l-1.88,1.22c-1.19.58-2.22,1.32-3.28,1.78.46-.23,0-.24.81-.56-.1.07,0,0-.12.11,1.69-.92.83-.6,2.27-1.46-1.26.76-3,1.8-4.19,2.4.37,0-.89.59-1.15.88h-.05c.05.07-.22.3-.32.39a.76.76,0,0,1-.11-.22c-.17.14.05.12-.15.27s-1.48,1-1,.43a2.07,2.07,0,0,0-.25.19s-.12,0,0-.34c.11-.08.13,0,.18-.11.18-.36.31-.68.46-1l.25-.55c.25-.57.49-1.1.74-1.6a44.61,44.61,0,0,0,1.46-4.24c-.17.45-.76,1.73-.56.86a19,19,0,0,1,.66-1.86c.05.21.84-1.7.35-.29.41-.24,1.18-3,1.43-2.87,0-.09.08-.27.17-.52l.41-1.06.6-1.54.24-.66c.18-.23-.18-.27-.29-.36s.06,0,.22.06l.12.07.07,0,0,.07-.12.34a4.53,4.53,0,0,0-.33,1l.29-.75.14-.37.07-.18,0-.1s-.05,0-.08,0l.11,0A21.69,21.69,0,0,0,19.92,64a8.66,8.66,0,0,1-1.2-.58h.05c-.2-.13-.42-.25-.61-.38.26.11.55.2.82.3-1-.62-1.54-.83-2.56-1.6l-.05-.14-.64-.44c.11.08.16.08.11,0a24.06,24.06,0,0,1-2.42-1.89c-.33-.39-.43-.87-1-1.28l.28-.08c1.13,1.24.27.6,1.56,1.83-.33-.59-1.14-1.53-2-2.62A31.06,31.06,0,0,1,10,53.76a9,9,0,0,1-.79-1.42l-.37-.8-.3-.82c-.22-.52-.36-1-.51-1.45a6.42,6.42,0,0,0-.43-.92l.19.16a20.31,20.31,0,0,1-.33-3.2,17.4,17.4,0,0,1,.17-4c.23-1.28.5-2.48.77-3.49.11-.17.21-.34.32-.5A14.38,14.38,0,0,1,10.65,33c.92-1.54,2-2.86,2.32-3.61,1-.83-.12.42-.11.59.64-.67,1.51-2,2.35-2.46.06.07-.91,1-.44.59s.6-.79,1.31-1.15c-.37.1.71-1.08,1.63-1.79a1,1,0,0,1-.26.17c-.2,0,.49-.52.88-.79a.39.39,0,0,1-.12.13,44.18,44.18,0,0,1,17.5-7.81c-.37.11-.74.26-1.11.39a19.7,19.7,0,0,1,3-.68l-.13,0c1.72-.06,1.84-.62,3.18-.52l-.25.07c2-.33,3.26-.18,5.23-.49a18.39,18.39,0,0,1,2.49.21,3.7,3.7,0,0,0,1.38-.23H49c-.48-.14.95-.14,1.6-.21-.48-.23-.22-.6-2.07-.81-1.36.14-1.34-.33-2.89-.19-.85.38-2.22-.05-3.6.41.72-.32-1.68.1-.49-.3-.6-.09-2.95.64-4.08.67.17-.08.12-.12.38-.2a13.17,13.17,0,0,1-2.22.32l.1.21c-.42.17-.59,0-1,.18.31-.07,1-.1.66.07-.51.16-.91.36-1.47.5,0-.08.35-.22.61-.32a6.25,6.25,0,0,1-1.33.22,12.32,12.32,0,0,0,1.33-.55c-1.62.36-.15,0-1,0,.28.18-1.36.48-2.19.81-.12-.08.59-.21.78-.35a4.93,4.93,0,0,0-2.14.52c-.65.28-1.33.63-2.37,1a2.21,2.21,0,0,1,.4-.22,14.73,14.73,0,0,0-2.27.89c-.93.35-.29-.22-1.68.44.52,0-1.66.74-1.56,1l-1.12.4c-.83.65.47.28-1.27,1.31s-.1-.5-1.1-.05l-.3.38c-.27.13-.56.25-.82.4l.1-.09a4.8,4.8,0,0,1-1.32.83c0-.11.53-.45.56-.55-.69.58-3.15,1.88-3.6,2.85-.45.31-1.27,1.08-1.26.88-.24.47-1.79,1.72-2.16,2.39,0-.12-.54.34-.84.83.52-.56.28-.14,0,.33C9,30,8,31.65,7.68,31.78c-.43,1-.09.71-.07,1-.48.48-1.38,2.4-1.45,2,.28-.51.92-1.61.65-1.49-.59.94-.16.46-.54,1.27,0-.08-.4.5-.4.31-.18.51-.5,1.18-.78,1.91.51-1.1-.08.78.26.14.07-.38.12-.77.22-1.14.54-1.29.25-.22.52-.67a7,7,0,0,0-.61,2.08c-.08.47-.11.93-.34,2a13.08,13.08,0,0,0-.4,1.36c.13-.75-.14-.65-.26-.23,0,1.29-.45,2.25-.53,3.32.1-.91.23-.42.28-.09.13,2.19-.08.86-.18,1.83s.16,1.62.21,2.35.21,1.39.35,2a14.84,14.84,0,0,0,1.28,3.69,11.23,11.23,0,0,1-.28-1.28l-.35-.33c-.2-1,.51,0,.83.49,0,.17.7,1.64.31,1.1a14.47,14.47,0,0,0,.79,1.38c-.05-.24-.54-1.14-.12-.52.19.48.94,1.93.33,1.09.39.76,1.07,1.59,1.06,1.37.74,1.13-.29,0-.7-.43.57.91.35.9.12.65a11.94,11.94,0,0,0,.88,1.23c-.24-.23-.31-.18-.56-.41.54.84,1.12,1.29,1.54,2l.38.17a21.72,21.72,0,0,0,3.35,3.67l-.23-.37c1.6,1,.9,1.1,3,2.57.61.38,1.11.68,1.46.86.16.08.34.17.36.14a.22.22,0,0,0,.09-.1c.22,0,.17.16.14.23l.21,0a.15.15,0,0,1,.05.12.35.35,0,0,1,0,.17,1.19,1.19,0,0,1-.06.14l-.18.34.14-.44V67.1c-.13,0-.16.07-.18.14l-.34.83c-.13.3-.25.58-.37.8L16.38,73c.37-.47.52-.17.24,1-.05-.22-.71,1.37-1.1,2.06,0-.41-.95,1.51-.36,0a4.24,4.24,0,0,0,.68-1.19A17.38,17.38,0,0,0,14.5,77a3.69,3.69,0,0,1,.33-1.2C14.76,76.11,14.87,76,14.93,75.94Z"/><path class="cls-1" d="M60.91,16.3l.18,0-.21-.08C61,16.28,61,16.3,60.91,16.3Z"/><path class="cls-1" d="M34.94,74a.11.11,0,0,0,0-.08A.11.11,0,0,0,34.94,74Z"/><path class="cls-1" d="M57.5,75.13a.13.13,0,0,1,0-.06S57.44,75.1,57.5,75.13Z"/><path class="cls-1" d="M59.6,14.62H60A2.94,2.94,0,0,0,59.6,14.62Z"/></g></svg>