<?xml version="1.0" encoding="utf-8"?>
<!-- Generator: Adobe Illustrator 24.2.1, SVG Export Plug-In . SVG Version: 6.00 Build 0)  -->
<svg version="1.1" id="Layer_1" xmlns="http://www.w3.org/2000/svg" xmlns:xlink="http://www.w3.org/1999/xlink" x="0px" y="0px"
	 viewBox="0 0 147 42.7" style="enable-background:new 0 0 147 42.7;" xml:space="preserve">
<style type="text/css">
	.st0{fill:#231F20;}
	.st1{fill:#F7941D;}
</style>
<g id="Layer_2_1_">
	<g id="Layer_1-2">
		<path class="st0" d="M9.9,17.4H0V0.3h9.9v3H3.7V7h5.8v3H3.7v4.4h6.2V17.4z"/>
		<path class="st0" d="M27.3,17.4h-4.1l-4-6.5l-4,6.5h-3.9L17,8.5l-5.3-8.3h4l3.7,6.2L23,0.3h3.9l-5.4,8.5L27.3,17.4z"/>
		<path class="st0" d="M41.3,5.6c0.1,1.6-0.5,3.2-1.7,4.2c-1.4,1.1-3.2,1.6-4.9,1.5h-1.6v6.1h-3.6V0.3H35c1.7-0.1,3.4,0.4,4.7,1.3
			C40.9,2.6,41.4,4.1,41.3,5.6z M33.1,8.3h1.2c0.9,0.1,1.8-0.2,2.5-0.7c0.6-0.5,0.9-1.2,0.8-1.9C37.7,5,37.5,4.3,37,3.8
			c-0.6-0.5-1.4-0.7-2.2-0.6h-1.7V8.3z"/>
		<path class="st0" d="M54.4,17.4h-9.9V0.3h9.9v3h-6.2V7H54v3h-5.8v4.4h6.2V17.4z"/>
		<path class="st0" d="M61.6,10.8v6.6H58V0.3h5c1.8-0.1,3.6,0.3,5.2,1.3c1.2,0.9,1.8,2.4,1.7,3.9c0,1-0.3,1.9-0.8,2.7
			c-0.6,0.8-1.4,1.5-2.4,1.8c2.6,3.9,4.3,6.3,5,7.5h-4l-4.1-6.6H61.6z M61.6,7.8h1.2c0.9,0.1,1.8-0.1,2.5-0.6
			c0.6-0.4,0.9-1.1,0.8-1.8c0.1-0.7-0.3-1.4-0.8-1.7c-0.8-0.4-1.7-0.6-2.6-0.5h-1.1V7.8z"/>
		<path class="st0" d="M80.4,17.4h-3.6V3.3h-4.6v-3h12.9v3h-4.7V17.4z"/>
		<path class="st0" d="M87.7,17.4V0.3h3.6v17.1H87.7z"/>
		<path class="st0" d="M105.8,12.6c0.1,1.4-0.6,2.8-1.7,3.7c-1.3,1-3,1.4-4.6,1.3c-1.7,0-3.3-0.3-4.8-1v-3.4
			c0.9,0.4,1.9,0.8,2.9,1.1c0.7,0.2,1.5,0.3,2.2,0.3c0.6,0,1.3-0.1,1.8-0.4c0.4-0.3,0.7-0.8,0.6-1.4c0-0.3-0.1-0.6-0.3-0.9
			c-0.2-0.3-0.5-0.6-0.8-0.8c-0.7-0.4-1.5-0.8-2.2-1.1c-0.8-0.4-1.6-0.8-2.3-1.4c-0.5-0.4-0.9-1-1.3-1.6c-0.3-0.7-0.5-1.4-0.5-2.1
			c-0.1-1.4,0.5-2.7,1.5-3.6c1.2-0.9,2.7-1.4,4.3-1.3c0.9,0,1.7,0.1,2.5,0.3c0.9,0.2,1.7,0.5,2.5,0.9L104.5,4
			c-0.7-0.3-1.5-0.6-2.3-0.8c-0.6-0.1-1.2-0.2-1.8-0.2c-0.6,0-1.1,0.1-1.6,0.5c-0.4,0.3-0.6,0.8-0.6,1.3c0,0.3,0.1,0.6,0.2,0.8
			c0.2,0.3,0.4,0.5,0.7,0.7c0.7,0.4,1.5,0.8,2.3,1.2c1.3,0.5,2.4,1.3,3.3,2.3C105.5,10.6,105.8,11.6,105.8,12.6z"/>
		<path class="st0" d="M118.8,17.4h-9.9V0.3h9.9v3h-6.2V7h5.8v3h-5.8v4.4h6.2L118.8,17.4z"/>
		<path class="st1" d="M131,17.4l-0.7-2.2h-3.4l-0.7,2.2h-2.2l3.3-9.3h2.4l3.3,9.3H131z M129.9,13.5l-1.1-3.4
			c-0.1-0.3-0.1-0.5-0.2-0.6c-0.1,0.5-0.5,1.9-1.2,4L129.9,13.5z"/>
		<path class="st1" d="M134.2,17.4V8.1h2v7.6h3.8v1.6H134.2z"/>
		<path class="st1" d="M147,14.8c0,0.8-0.3,1.5-0.9,2c-0.7,0.5-1.6,0.8-2.5,0.7c-0.9,0-1.8-0.2-2.6-0.6v-1.9c0.5,0.2,1,0.4,1.6,0.6
			c0.4,0.1,0.8,0.2,1.2,0.2c0.3,0,0.7-0.1,1-0.2c0.4-0.3,0.5-0.8,0.3-1.2c-0.1-0.2-0.3-0.3-0.4-0.4c-0.4-0.2-0.8-0.5-1.2-0.6
			c-0.5-0.2-0.9-0.5-1.4-0.8c-0.3-0.2-0.5-0.5-0.7-0.9c-0.2-0.4-0.3-0.7-0.3-1.1c0-0.7,0.3-1.5,0.8-1.9c0.7-0.5,1.5-0.8,2.3-0.7
			c0.5,0,0.9,0.1,1.4,0.2c0.5,0.1,0.9,0.3,1.4,0.5l-0.6,1.5c-0.4-0.2-0.8-0.3-1.2-0.4c-0.3-0.1-0.7-0.1-1-0.1
			c-0.3,0-0.6,0.1-0.9,0.3c-0.2,0.2-0.3,0.4-0.3,0.7c0,0.2,0,0.3,0.1,0.4c0.1,0.2,0.2,0.3,0.4,0.4c0.4,0.2,0.8,0.5,1.3,0.6
			c0.7,0.3,1.3,0.7,1.8,1.2C146.8,13.7,147,14.2,147,14.8z"/>
		<path class="st0" d="M17.5,42.4H13v-9.2H4.5v9.2H0V21h4.5v8.4H13V21h4.5L17.5,42.4z"/>
		<path class="st0" d="M35.3,42.4H23V21h12.3v3.7h-7.8v4.7h7.3v3.7h-7.3v5.5h7.8V42.4z"/>
		<path class="st0" d="M44.2,42.4h-4.5V21H52v3.7h-7.8v5.5h7.3V34h-7.3V42.4z"/>
		<path class="st0" d="M56.2,21h6.7c3,0,5.2,0.4,6.6,1.3c1.4,0.9,2.2,2.5,2.1,4.1c0,1.1-0.3,2.2-0.9,3.1c-0.6,0.8-1.4,1.3-2.4,1.4
			v0.1c1.2,0.2,2.2,0.8,2.9,1.7c0.6,1,1,2.1,0.9,3.3c0.1,1.8-0.7,3.5-2.1,4.6c-1.7,1.2-3.7,1.8-5.8,1.6h-8L56.2,21z M60.8,29.5h2.6
			c0.9,0.1,1.9-0.1,2.7-0.6c0.6-0.4,0.9-1.2,0.8-1.9c0.1-0.7-0.3-1.4-0.9-1.8c-0.9-0.4-1.9-0.6-2.8-0.5h-2.4L60.8,29.5z M60.8,33.1
			v5.6h3c1,0.1,2-0.2,2.8-0.7c0.6-0.6,1-1.4,0.9-2.2c0-1.8-1.3-2.7-3.8-2.7L60.8,33.1z"/>
		<path class="st0" d="M95.8,31.6c0,3.5-0.9,6.3-2.6,8.2s-4.3,2.8-7.6,2.8s-5.8-1-7.6-2.8s-2.6-4.6-2.6-8.2s0.9-6.3,2.7-8.2
			s4.3-2.8,7.6-2.8s5.8,0.9,7.6,2.8S95.8,28.1,95.8,31.6z M80.2,31.6c-0.1,1.9,0.3,3.8,1.4,5.4c1,1.2,2.5,1.9,4.1,1.8
			c3.6,0,5.4-2.4,5.4-7.2c0-4.8-1.8-7.2-5.4-7.2c-1.6-0.1-3.1,0.6-4.1,1.8C80.5,27.8,80.1,29.7,80.2,31.6z"/>
		<path class="st0" d="M119.7,31.6c0,3.5-0.9,6.3-2.6,8.2s-4.3,2.8-7.6,2.8s-5.8-1-7.6-2.8s-2.6-4.6-2.6-8.2s0.9-6.3,2.7-8.2
			s4.3-2.8,7.6-2.8s5.8,0.9,7.6,2.8S119.7,28.1,119.7,31.6z M104.1,31.6c-0.1,1.9,0.3,3.8,1.4,5.4c1,1.2,2.5,1.9,4.1,1.8
			c3.6,0,5.4-2.4,5.4-7.2c0-4.8-1.8-7.2-5.4-7.2c-1.6-0.1-3.1,0.6-4.1,1.8C104.4,27.8,103.9,29.7,104.1,31.6z"/>
		<path class="st0" d="M133.2,42.4L128,25.6h-0.1c0.2,3.4,0.3,5.7,0.3,6.8v10h-4.1V21h6.2l5.1,16.4h0.1l5.4-16.4h6.2v21.4h-4.2V32.2
			c0-0.5,0-1,0-1.6s0.1-2.3,0.2-5h-0.1l-5.5,16.8L133.2,42.4z"/>
	</g>
</g>
</svg>
