<svg xmlns="http://www.w3.org/2000/svg" viewBox="0 0 147.04 42.67"><defs><style>.cls-1{fill:#231f20;}</style></defs><g id="Layer_2" data-name="Layer 2"><g id="Layer_1-2" data-name="Layer 1"><path class="cls-1" d="M9.9,17.38H0V.25H9.9v3H3.66V7H9.47v3H3.66v4.42H9.9Z"/><path class="cls-1" d="M27.33,17.38H23.18l-4-6.48-4,6.48H11.32L17,8.54,11.68.25h4l3.69,6.16L23,.25h3.91L21.54,8.74Z"/><path class="cls-1" d="M41.32,5.59a5.25,5.25,0,0,1-1.73,4.23,7.37,7.37,0,0,1-4.92,1.47H33.11v6.09H29.48V.25H35a7.24,7.24,0,0,1,4.74,1.34A4.87,4.87,0,0,1,41.32,5.59ZM33.11,8.31h1.2a4,4,0,0,0,2.51-.66,2.34,2.34,0,0,0,.83-1.93A2.37,2.37,0,0,0,37,3.83a3.28,3.28,0,0,0-2.18-.61H33.11Z"/><path class="cls-1" d="M54.42,17.38H44.55V.25h9.87v3H48.18V7H54v3H48.18v4.42h6.24Z"/><path class="cls-1" d="M61.63,10.8v6.58H58V.25h5a8.5,8.5,0,0,1,5.16,1.27,4.53,4.53,0,0,1,1.68,3.86A4.58,4.58,0,0,1,69,8.07a5.51,5.51,0,0,1-2.36,1.84c2.58,3.86,4.26,6.34,5,7.47h-4L63.56,10.8Zm0-3H62.8a4.5,4.5,0,0,0,2.54-.57,2.06,2.06,0,0,0,.82-1.81,1.86,1.86,0,0,0-.84-1.73,5,5,0,0,0-2.59-.52h-1.1Z"/><path class="cls-1" d="M80.45,17.38H76.81V3.27H72.16v-3H85.1v3H80.45Z"/><path class="cls-1" d="M87.74,17.38V.25h3.63V17.38Z"/><path class="cls-1" d="M105.79,12.62a4.41,4.41,0,0,1-1.67,3.66,7.24,7.24,0,0,1-4.64,1.33,10.85,10.85,0,0,1-4.85-1V13.21a20.28,20.28,0,0,0,2.93,1.09,8.68,8.68,0,0,0,2.2.31,3.13,3.13,0,0,0,1.83-.45,1.56,1.56,0,0,0,.64-1.36,1.48,1.48,0,0,0-.28-.9,3.28,3.28,0,0,0-.83-.76A22.88,22.88,0,0,0,98.9,10a10.6,10.6,0,0,1-2.35-1.41A5.37,5.37,0,0,1,95.29,7a4.51,4.51,0,0,1-.46-2.1A4.43,4.43,0,0,1,96.37,1.3,6.36,6.36,0,0,1,100.63,0a10,10,0,0,1,2.54.32,16.46,16.46,0,0,1,2.54.89L104.54,4a16.25,16.25,0,0,0-2.27-.78A7.21,7.21,0,0,0,100.51,3a2.31,2.31,0,0,0-1.58.48,1.58,1.58,0,0,0-.55,1.26,1.55,1.55,0,0,0,.22.84,2.6,2.6,0,0,0,.71.69,22.42,22.42,0,0,0,2.3,1.2,9.05,9.05,0,0,1,3.29,2.3A4.45,4.45,0,0,1,105.79,12.62Z"/><path class="cls-1" d="M118.77,17.38H108.9V.25h9.87v3h-6.24V7h5.8v3h-5.8v4.42h6.24Z"/><path class="cls-1" d="M131,17.37l-.68-2.21h-3.38l-.67,2.21H124.1l3.27-9.31h2.41l3.28,9.31Zm-1.15-3.86-1.05-3.39c-.07-.26-.13-.47-.16-.62-.14.54-.54,1.88-1.2,4Z"/><path class="cls-1" d="M134.23,17.37V8.1h2v7.65H140v1.62Z"/><path class="cls-1" d="M147,14.79a2.4,2.4,0,0,1-.9,2,3.9,3.9,0,0,1-2.52.73,5.9,5.9,0,0,1-2.62-.56V15.11a9.83,9.83,0,0,0,1.59.59,4.42,4.42,0,0,0,1.18.17,1.74,1.74,0,0,0,1-.24A.94.94,0,0,0,145,14.4a1.64,1.64,0,0,0-.45-.4,8.1,8.1,0,0,0-1.2-.63A5.67,5.67,0,0,1,142,12.6a2.81,2.81,0,0,1-.68-.86,2.4,2.4,0,0,1-.26-1.14,2.38,2.38,0,0,1,.84-1.93,3.44,3.44,0,0,1,2.3-.71,5.11,5.11,0,0,1,1.38.18,8.76,8.76,0,0,1,1.38.48l-.64,1.53a8.33,8.33,0,0,0-1.22-.43,4.07,4.07,0,0,0-1-.12,1.3,1.3,0,0,0-.86.26.88.88,0,0,0-.29.68.84.84,0,0,0,.12.45,1.37,1.37,0,0,0,.38.38,13.9,13.9,0,0,0,1.25.65,5,5,0,0,1,1.78,1.24A2.45,2.45,0,0,1,147,14.79Z"/><path class="cls-1" d="M17.55,42.38H13V33.14H4.54v9.24H0V21H4.54v8.4H13V21h4.53Z"/><path class="cls-1" d="M35.29,42.38H23V21H35.29v3.72H27.5v4.71h7.25v3.72H27.5v5.52h7.79Z"/><path class="cls-1" d="M44.22,42.38H39.76V21H52v3.72H44.22v5.53h7.27v3.7H44.22Z"/><path class="cls-1" d="M56.22,21h6.67c3,0,5.24.44,6.61,1.3a4.51,4.51,0,0,1,2.06,4.12,5.2,5.2,0,0,1-.9,3.15A3.58,3.58,0,0,1,68.26,31v.15a4.71,4.71,0,0,1,2.94,1.7,5.52,5.52,0,0,1,.9,3.31A5.47,5.47,0,0,1,70,40.74a9.16,9.16,0,0,1-5.75,1.64h-8Zm4.54,8.48H63.4a4.81,4.81,0,0,0,2.67-.57A2.13,2.13,0,0,0,66.9,27a1.88,1.88,0,0,0-.9-1.76,5.74,5.74,0,0,0-2.85-.54H60.76Zm0,3.61v5.58h3a4.39,4.39,0,0,0,2.77-.72,2.67,2.67,0,0,0,.89-2.2q0-2.66-3.81-2.66Z"/><path class="cls-1" d="M95.82,31.64c0,3.55-.88,6.27-2.64,8.18s-4.28,2.85-7.56,2.85-5.8-1-7.56-2.85-2.64-4.64-2.64-8.21.89-6.28,2.65-8.16,4.29-2.82,7.58-2.82,5.81.94,7.55,2.84S95.82,28.09,95.82,31.64Zm-15.63,0a9,9,0,0,0,1.36,5.41,4.76,4.76,0,0,0,4.07,1.81q5.43,0,5.43-7.22t-5.4-7.23a4.79,4.79,0,0,0-4.09,1.82A8.88,8.88,0,0,0,80.19,31.64Z"/><path class="cls-1" d="M119.69,31.64c0,3.55-.88,6.27-2.63,8.18s-4.28,2.85-7.56,2.85-5.8-1-7.56-2.85-2.64-4.64-2.64-8.21.88-6.28,2.65-8.16,4.29-2.82,7.58-2.82,5.8.94,7.55,2.84S119.69,28.09,119.69,31.64Zm-15.63,0a9,9,0,0,0,1.36,5.41,4.78,4.78,0,0,0,4.08,1.81q5.43,0,5.43-7.22t-5.4-7.23a4.79,4.79,0,0,0-4.09,1.82A8.88,8.88,0,0,0,104.06,31.64Z"/><path class="cls-1" d="M133.2,42.38,128,25.58h-.13q.28,5.13.28,6.84v10h-4.06V21h6.18l5.07,16.38h.09L140.84,21H147V42.38h-4.24V32.24c0-.48,0-1,0-1.65s.09-2.29.2-5h-.13l-5.52,16.77Z"/></g></g></svg>