<?xml version="1.0" standalone="no"?>
<!DOCTYPE svg PUBLIC "-//W3C//DTD SVG 20010904//EN"
 "http://www.w3.org/TR/2001/REC-SVG-20010904/DTD/svg10.dtd">
<svg version="1.0" xmlns="http://www.w3.org/2000/svg"
 width="700.000000pt" height="700.000000pt" viewBox="0 0 700.000000 700.000000"
 preserveAspectRatio="xMidYMid meet">
<metadata>
Created by potrace 1.11, written by Peter Selinger 2001-2013
</metadata>
<g transform="translate(0.000000,700.000000) scale(0.100000,-0.100000)"
fill="#000000" stroke="none">
<path d="M4645 4482 c-60 -26 -105 -55 -105 -69 0 -7 -4 -13 -8 -13 -17 0 -41
-95 -37 -145 5 -56 22 -105 38 -105 6 0 7 -3 4 -6 -4 -4 12 -24 35 -45 23 -21
44 -36 47 -34 2 3 10 0 17 -5 6 -6 40 -25 75 -41 80 -39 121 -68 114 -80 -4
-5 -2 -9 3 -9 20 0 10 -58 -15 -81 -40 -38 -148 -35 -253 8 -46 19 -70 24 -71
16 -6 -39 -4 -132 3 -145 5 -10 18 -18 28 -18 11 0 20 -4 20 -8 0 -4 12 -9 28
-10 15 -1 38 -5 52 -8 37 -9 162 -10 185 -3 11 4 29 11 40 15 11 4 23 6 28 6
4 -1 7 3 7 10 0 6 3 8 6 5 12 -11 81 52 100 90 19 40 29 173 13 173 -5 0 -8 3
-8 8 4 22 -5 36 -45 76 -38 37 -93 70 -233 140 -28 14 -53 58 -48 84 4 23 24
62 25 49 0 -4 10 -1 23 6 37 23 138 11 209 -24 10 -5 19 -9 21 -9 8 0 58 121
55 132 -2 6 -11 13 -19 14 -7 2 -34 11 -59 20 -65 25 -222 28 -275 6z"/>
<path d="M70 4090 c0 -220 3 -400 8 -401 42 -5 449 -2 446 3 -2 4 1 10 7 14 8
4 7 9 -2 15 -8 5 -9 9 -3 9 6 0 10 20 9 48 l-2 47 -109 2 c-60 1 -125 3 -145
3 -38 0 -56 23 -38 51 4 8 3 19 -3 26 -6 7 -7 13 -2 13 5 0 9 20 9 45 0 25 -4
45 -8 45 -5 0 -5 5 -2 10 4 6 62 10 141 10 100 0 134 3 135 13 5 68 2 127 -6
128 -5 1 -64 3 -130 4 -147 3 -138 2 -131 20 3 8 1 15 -5 15 -6 0 -7 6 -2 13
10 16 10 41 -1 48 -5 4 -5 13 0 20 5 8 9 19 10 24 0 6 2 15 2 20 1 7 49 11
131 10 71 0 136 2 143 5 15 6 18 90 3 90 -5 0 -4 4 3 8 7 5 10 16 6 25 -5 15
-30 17 -235 17 l-229 0 0 -400z"/>
<path d="M620 4482 c0 -4 16 -31 35 -59 19 -29 35 -57 35 -63 0 -5 5 -10 10
-10 6 0 10 -4 10 -10 0 -5 22 -42 48 -82 70 -106 86 -131 93 -148 3 -9 -24
-61 -68 -128 -40 -62 -73 -117 -73 -122 0 -4 -3 -10 -7 -12 -12 -5 -105 -149
-100 -154 11 -12 160 -9 172 3 7 6 15 9 19 6 3 -4 6 -1 6 6 0 7 14 33 30 58
16 24 30 47 30 50 0 3 18 32 40 64 22 32 40 63 40 68 0 5 6 14 14 20 12 10 17
8 27 -11 7 -13 15 -25 18 -28 8 -6 59 -91 80 -132 7 -16 17 -28 22 -28 5 0 9
-5 9 -11 0 -5 10 -24 23 -42 22 -32 22 -32 109 -32 48 1 90 4 94 8 4 3 -33 65
-82 137 -49 72 -93 138 -99 148 -5 9 -25 38 -43 64 -37 53 -37 53 22 138 17
25 36 53 41 62 48 81 70 114 79 120 6 4 7 8 3 8 -4 0 3 15 17 33 15 19 26 39
26 45 0 7 5 12 10 12 6 0 10 7 10 15 0 12 -17 15 -89 15 l-89 0 -55 -92 c-30
-51 -65 -111 -77 -133 -12 -22 -24 -43 -27 -48 -4 -7 -33 16 -33 27 0 3 -22
41 -50 84 -27 43 -50 83 -50 89 0 5 -9 18 -20 28 -11 10 -17 21 -15 25 3 4 -2
11 -11 14 -23 9 -184 7 -184 -2z"/>
<path d="M1449 4488 c-1 -2 -2 -182 -3 -400 -1 -348 1 -398 14 -399 18 -1 131
-1 146 0 7 1 10 46 10 132 -1 72 1 135 4 140 8 13 51 17 83 8 15 -4 27 -4 27
0 0 4 15 8 33 8 62 0 207 87 207 125 0 5 8 26 18 47 13 25 16 45 11 59 -5 14
-4 22 2 22 6 0 7 5 3 12 -4 6 -8 28 -10 47 -2 50 -17 82 -52 116 -32 33 -60
56 -64 55 -2 -1 -16 4 -33 11 -26 12 -393 27 -396 17z m334 -162 c14 -10 29
-25 33 -34 11 -27 12 -76 0 -91 -9 -12 -8 -13 3 -6 7 4 4 -6 -9 -22 -29 -40
-62 -55 -131 -58 -55 -3 -57 -2 -62 23 -3 15 -1 30 5 33 6 4 6 9 1 12 -11 7
-10 137 1 155 11 18 126 9 159 -12z"/>
<path d="M2149 4443 c-3 -237 0 -745 5 -750 6 -7 423 -11 444 -5 8 3 12 27 12
73 l0 69 -141 -1 c-77 -1 -142 0 -144 2 -5 6 -7 56 -6 132 l1 67 135 0 136 0
-3 72 -3 73 -130 0 -130 0 -5 40 c-3 22 -3 60 0 85 l5 45 140 0 140 0 3 73 3
72 -231 0 -230 0 -1 -47z"/>
<path d="M2778 4483 c-4 -7 -3 -742 1 -783 1 -12 17 -15 80 -15 50 0 83 5 90
13 7 6 8 12 4 12 -4 0 -7 46 -6 102 1 57 2 122 2 145 1 41 2 41 34 38 17 -2
37 -4 43 -4 10 -1 122 -171 169 -259 12 -20 27 -39 35 -41 26 -6 170 -5 177 2
3 4 -2 16 -12 27 -10 11 -14 20 -9 20 5 0 4 4 -2 8 -5 4 -44 57 -85 117 -41
61 -76 112 -79 115 -3 3 -11 15 -18 28 -11 20 -10 25 10 42 13 11 26 19 30 20
11 0 70 79 73 98 2 9 4 17 5 17 8 0 14 96 7 125 -8 38 -43 93 -71 115 -64 48
-137 63 -313 65 -89 0 -163 -3 -165 -7z m342 -163 c31 -22 33 -29 32 -89 0
-24 -8 -41 -28 -57 -15 -13 -32 -24 -38 -25 -6 0 -20 -3 -31 -5 -11 -3 -38 -6
-60 -7 l-40 -1 -3 99 c-1 54 -1 104 2 110 7 19 131 0 166 -25z"/>
<path d="M3439 4488 c0 -2 -2 -33 -3 -70 -2 -43 1 -68 8 -69 6 -1 56 -2 110
-3 l100 -1 0 -329 1 -329 82 -1 c65 -1 83 2 85 14 2 8 4 156 3 327 0 202 3
314 10 316 5 2 54 3 108 2 109 0 98 -10 101 90 l1 50 -303 3 c-166 1 -302 1
-303 0z"/>
<path d="M4168 4478 c-3 -7 -4 -34 -3 -60 1 -28 -3 -48 -9 -48 -7 0 -8 -3 -1
-8 14 -10 14 -72 1 -72 -8 0 -8 -3 -1 -8 6 -4 11 -20 11 -37 0 -16 -5 -33 -11
-37 -7 -5 -7 -8 0 -8 6 0 11 -16 11 -35 0 -19 -4 -35 -8 -35 -4 0 -8 -5 -8
-11 0 -5 3 -8 8 -6 4 3 7 -26 7 -64 0 -41 -4 -69 -10 -69 -7 0 -7 -3 0 -8 6
-4 11 -25 11 -47 0 -22 -5 -43 -11 -47 -7 -5 -7 -8 1 -8 11 0 13 -78 1 -97 -4
-6 -3 -14 2 -17 5 -3 7 -19 6 -36 -2 -22 2 -30 14 -31 18 -1 118 -1 141 0 13
1 15 51 14 394 -1 215 -2 395 -3 400 -2 13 -158 8 -163 -5z"/>
<path d="M5150 4088 l0 -403 230 0 c223 0 230 1 231 20 1 11 2 44 3 72 l1 53
-137 -1 c-75 -1 -140 1 -146 5 -5 3 -9 47 -9 98 l1 93 135 5 135 5 1 63 c1 34
-1 66 -5 70 -3 4 -63 8 -135 8 l-130 -1 -1 75 c-1 41 1 80 3 86 2 6 54 10 143
9 119 0 140 2 141 15 1 8 2 41 3 73 l1 57 -232 0 -233 0 0 -402z"/>
<path d="M6009 4119 c-6 -3 -10 -9 -10 -13 2 -10 -11 -60 -19 -71 -9 -13 -34
-98 -32 -107 1 -5 -2 -8 -6 -8 -5 0 -9 -6 -10 -12 -1 -18 -7 -39 -19 -68 -30
-75 -53 -143 -49 -147 4 -4 52 -7 88 -4 11 1 20 17 28 51 l12 50 78 0 78 0 12
-32 c29 -78 25 -75 70 -72 23 1 43 4 45 6 2 2 -10 41 -26 88 -17 47 -32 92
-34 100 -2 8 -4 16 -5 18 -2 1 -3 5 -5 10 -1 4 -5 15 -9 24 -4 9 -8 22 -10 30
-1 7 -4 18 -7 23 -10 16 -33 90 -28 90 2 0 -4 11 -14 25 -14 20 -26 24 -67 25
-28 0 -55 -2 -61 -6z m83 -131 c7 -24 13 -47 14 -53 1 -5 3 -14 4 -20 1 -5 2
-13 1 -17 0 -5 4 -8 11 -8 28 0 -8 -15 -40 -17 -57 -3 -64 2 -51 34 6 15 13
38 15 50 6 30 22 73 28 73 3 0 11 -19 18 -42z"/>
<path d="M6339 4121 c-1 -3 -3 -102 -4 -218 l-2 -213 31 -1 c36 -1 228 -1 237
0 5 1 5 46 0 72 0 3 -38 5 -83 5 l-83 -1 -5 179 -5 180 -42 1 c-24 1 -44 -1
-44 -4z"/>
<path d="M6730 4119 c-59 -24 -91 -84 -76 -144 10 -38 53 -78 117 -107 31 -15
59 -33 62 -41 9 -23 -3 -56 -22 -61 -15 -4 -83 -1 -88 4 -2 1 -7 4 -13 5 -5 1
-12 4 -15 5 -3 1 -8 3 -12 4 -5 1 -14 5 -20 9 -14 9 -16 -2 -15 -57 1 -29 18
-49 34 -40 4 3 8 1 8 -4 0 -5 10 -8 23 -7 12 1 30 -2 39 -6 9 -5 19 -5 22 0 3
5 19 7 36 6 16 -1 30 1 30 6 0 5 7 9 15 9 32 0 67 46 72 94 7 61 -23 105 -97
143 -92 47 -106 66 -74 98 19 19 75 18 114 -2 22 -11 26 -10 36 10 24 45 21
58 -16 71 -45 16 -128 18 -160 5z"/>
<path d="M3929 3526 c-19 -7 -40 -11 -47 -8 -7 2 -12 -2 -12 -8 0 -7 -6 -10
-13 -7 -7 3 -24 -4 -38 -14 -13 -10 -29 -19 -35 -19 -11 0 -117 -108 -123
-125 -2 -5 -12 -27 -22 -47 -10 -21 -19 -44 -19 -53 0 -8 -4 -15 -8 -15 -4 0
-7 -12 -7 -27 1 -16 -1 -32 -4 -38 -16 -30 -14 -266 2 -292 5 -7 6 -13 3 -13
-3 0 1 -18 9 -40 8 -22 15 -44 16 -48 3 -15 40 -83 57 -104 26 -32 80 -80 85
-76 3 1 14 -5 24 -15 11 -9 23 -14 26 -10 4 3 7 2 7 -4 0 -9 33 -21 104 -40
12 -3 66 -7 122 -9 99 -3 202 14 232 38 6 6 12 7 12 4 0 -4 15 4 33 16 50 34
107 86 107 97 0 6 6 14 13 18 10 7 61 105 63 122 0 3 6 31 12 61 17 80 21 158
8 164 -8 3 -8 7 0 13 11 8 15 43 5 43 -3 0 -7 23 -8 51 -4 76 -42 180 -88 237
-32 40 -124 116 -147 121 -12 2 -30 8 -68 22 -48 17 -256 20 -301 5z m212
-176 c46 -13 119 -66 119 -87 0 -7 4 -13 8 -13 9 0 30 -60 40 -115 12 -62 5
-222 -12 -273 -20 -58 -72 -136 -86 -127 -6 3 -10 2 -10 -3 0 -17 -55 -34
-121 -38 -171 -11 -268 112 -264 336 1 90 21 190 37 190 5 0 7 4 4 9 -6 9 26
55 54 79 53 45 152 63 231 42z"/>
<path d="M5040 3526 c-53 -13 -122 -41 -148 -61 -7 -5 -26 -22 -43 -37 -17
-16 -35 -28 -41 -28 -5 0 -7 -4 -3 -9 3 -5 1 -12 -5 -16 -10 -6 -61 -99 -60
-110 0 -3 -6 -20 -13 -38 -7 -17 -13 -45 -12 -60 1 -15 -1 -30 -5 -32 -4 -3
-6 -57 -3 -122 4 -148 6 -163 13 -163 3 0 6 -9 7 -21 3 -32 61 -149 74 -149 7
0 9 -3 6 -7 -11 -10 70 -81 122 -108 80 -40 156 -55 266 -51 55 2 111 6 124
10 54 13 98 30 124 48 15 11 27 17 27 14 0 -4 20 13 44 36 99 97 145 236 140
423 -3 94 -8 150 -14 150 -1 0 -3 11 -6 25 -2 14 -7 32 -11 40 -3 8 -7 17 -8
20 -15 58 -118 176 -173 199 -17 7 -32 16 -32 20 0 4 -8 7 -18 8 -29 2 -47 8
-53 17 -11 14 -239 15 -299 2z m256 -189 c89 -46 135 -153 134 -307 -1 -143
-31 -235 -95 -288 -84 -69 -236 -66 -320 6 -29 25 -74 124 -82 179 -11 87 -4
191 18 260 25 76 85 145 141 162 44 14 169 6 204 -12z"/>
<path d="M74 3521 c-2 -2 -4 -228 -4 -502 l0 -497 107 2 107 1 0 213 c0 116 2
212 5 213 3 0 59 2 123 3 78 1 114 -2 110 -9 -4 -7 -1 -7 9 0 8 6 43 10 78 10
l65 -1 0 -215 1 -214 95 -2 c131 -2 127 -4 120 62 -3 31 -4 58 -2 60 10 9 7
85 -3 85 -6 0 -6 3 0 8 6 4 10 16 9 27 -3 41 -6 110 -4 115 7 21 3 90 -5 90
-6 0 -6 3 0 8 6 4 10 16 9 27 -3 42 -6 110 -4 120 4 29 1 135 -5 144 -3 6 0
11 7 11 10 0 10 2 -1 9 -9 6 -10 11 -2 15 7 4 7 15 1 30 -5 13 -6 27 -3 30 10
10 8 86 -2 90 -6 3 -6 5 1 5 11 1 7 60 -5 62 -47 6 -190 2 -197 -6 -6 -5 -10
-91 -10 -193 0 -127 -4 -186 -12 -194 -7 -7 -12 -8 -12 -3 0 11 -92 11 -109 1
-6 -4 -11 -4 -11 1 0 10 -93 8 -109 -1 -6 -4 -11 -4 -11 1 0 4 -29 7 -64 6
l-64 -2 2 188 c0 115 -3 192 -9 197 -10 9 -193 13 -201 5z"/>
<path d="M1170 3518 c0 -4 -6 -5 -14 -2 -11 4 -13 -75 -13 -493 l0 -499 289
-1 c238 0 288 2 284 13 -3 7 -1 16 5 19 5 4 6 11 3 17 -10 16 -11 68 -1 68 5
0 5 6 0 13 -4 6 -6 20 -5 30 3 16 -11 17 -180 17 l-183 0 0 119 c0 66 3 123 8
127 12 12 127 12 120 0 -5 -8 -3 -8 8 -1 8 6 56 10 107 10 99 -2 97 -3 92 54
-1 17 2 21 12 15 10 -6 11 -5 1 7 -6 8 -10 28 -8 46 1 17 0 36 -4 41 -8 13
-52 19 -68 9 -7 -5 -13 -5 -13 0 0 10 -93 8 -109 -1 -6 -4 -11 -4 -11 1 0 4
-30 8 -67 8 l-67 0 -1 105 0 105 180 0 c164 1 180 2 179 18 -1 9 2 17 6 17 8
0 5 48 -3 57 -3 2 -1 18 3 34 5 18 5 29 -1 29 -6 0 -8 4 -5 9 9 13 -13 17 -74
14 -30 -2 -62 -3 -70 -3 -63 1 -119 2 -140 1 -14 -1 -78 0 -143 1 -64 2 -117
0 -117 -4z"/>
<path d="M1929 3520 c-1 -5 -2 -22 -3 -37 -1 -16 -4 -33 -8 -39 -4 -6 -4 -14
0 -18 11 -12 9 -96 -2 -96 -7 0 -8 -3 -1 -8 14 -10 14 -72 1 -72 -8 0 -8 -3
-1 -8 13 -9 14 -65 2 -73 -5 -4 -6 -13 -1 -20 12 -20 12 -129 -1 -129 -7 0 -7
-3 0 -8 6 -4 11 -25 11 -47 0 -22 -5 -43 -11 -47 -7 -5 -7 -8 0 -8 14 0 14
-123 0 -132 -7 -5 -7 -8 0 -8 14 0 14 -90 0 -90 -7 0 -7 -3 0 -8 6 -4 11 -38
10 -77 l0 -70 95 -1 c52 0 100 1 105 3 6 2 10 75 9 193 0 164 2 190 15 194 9
2 83 3 164 2 91 0 151 3 155 9 4 5 7 45 7 88 l1 77 -171 0 -171 0 1 128 0 127
180 0 180 0 2 70 c4 122 33 110 -267 110 -143 0 -260 -4 -260 -8 0 -4 -9 -3
-20 3 -14 7 -20 7 -21 0z"/>
<path d="M2695 3520 c-1 -3 -2 -228 -1 -500 l1 -495 225 -1 c124 0 241 3 260
8 19 5 41 10 48 10 6 1 12 4 12 8 0 3 9 6 20 7 11 1 27 9 35 17 8 8 23 17 34
21 23 7 73 70 91 115 18 43 19 185 2 202 -7 7 -12 19 -12 28 0 19 -72 90 -92
90 -7 0 -21 7 -31 14 -16 13 -16 14 7 20 37 9 91 70 106 118 11 39 15 108 7
148 -12 64 -85 142 -146 157 -14 3 -30 8 -36 12 -12 7 -27 9 -85 15 -25 3 -45
5 -45 6 0 5 -397 4 -400 0z m438 -194 c20 -10 40 -23 44 -29 11 -19 21 -87 12
-87 -5 0 -9 -6 -9 -13 0 -17 -44 -59 -53 -50 -4 3 -7 1 -7 -6 0 -7 -4 -9 -10
-6 -5 3 -15 3 -22 -1 -18 -11 -68 -10 -68 1 0 6 -4 4 -9 -3 -4 -8 -12 -14 -16
-14 -4 0 -12 6 -16 14 -7 10 -9 10 -9 1 0 -15 -21 -13 -32 2 -5 6 -8 5 -8 -2
0 -7 -6 -10 -12 -8 -12 5 -14 50 -9 196 l1 25 93 -1 c66 -1 102 -6 130 -19z
m15 -390 c63 -32 83 -97 51 -162 -27 -57 -74 -74 -199 -74 l-95 0 2 113 c0 61
1 119 2 128 1 14 15 16 104 14 72 -2 113 -8 135 -19z"/>
<path d="M5864 3508 c-3 -10 -4 -50 -3 -88 1 -39 0 -72 -2 -74 -2 -2 -2 -75 1
-161 3 -86 3 -158 0 -160 -3 -2 -3 -47 0 -100 3 -53 3 -99 1 -101 -2 -2 -4
-22 -3 -44 0 -22 1 -89 1 -149 l1 -108 95 0 95 0 0 116 c1 184 -1 437 -4 550
-3 99 6 118 19 39 4 -21 11 -38 16 -38 6 0 8 -4 5 -9 -6 -9 17 -88 36 -128 6
-11 7 -26 4 -32 -4 -6 -2 -11 3 -11 6 0 11 -6 11 -13 0 -7 11 -46 24 -87 13
-41 26 -84 28 -95 2 -11 6 -22 10 -25 4 -3 9 -17 11 -30 5 -26 39 -139 61
-200 l12 -35 92 0 c92 -1 110 5 116 37 1 7 17 58 36 113 19 55 35 102 35 105
1 3 7 25 15 50 7 25 13 48 12 53 -1 4 3 7 10 7 6 0 9 3 6 6 -4 3 7 45 24 92
17 48 31 93 31 100 0 6 3 12 7 12 5 0 9 18 12 58 1 6 5 12 9 12 4 0 10 15 13
33 4 17 12 45 19 60 10 23 12 -47 12 -355 l0 -383 98 -1 97 -1 -2 500 -3 501
-138 0 c-132 1 -148 -2 -154 -29 -2 -9 -36 -108 -50 -145 -7 -16 -9 -24 -17
-55 -7 -27 -154 -466 -163 -485 -3 -8 -5 -21 -4 -27 1 -7 -2 -13 -7 -13 -5 0
-19 35 -32 78 -12 42 -25 82 -29 87 -3 6 -6 15 -6 20 -1 6 -7 30 -15 55 -7 25
-14 48 -16 53 -1 4 -2 8 -4 10 -1 1 -3 9 -5 17 -4 19 -54 180 -62 200 -3 8 -7
20 -8 26 -2 6 -17 55 -35 110 l-31 99 -90 0 c-49 0 -89 -3 -89 -8 0 -4 -5 -5
-11 -1 -6 4 -29 7 -50 8 -30 2 -40 -2 -45 -16z"/>
</g>
</svg>
